<mxfile host="app.diagrams.net" modified="2024-01-15T15:48:16.377Z" agent="Mozilla/5.0 (Windows NT 10.0; Win64; x64) AppleWebKit/537.36 (KHTML, like Gecko) Chrome/120.0.0.0 Safari/537.36 Edg/120.0.0.0" etag="nhNlMHAtuBC7rtjDeFZk" version="22.1.17" type="device" pages="7">
  <diagram name="home" id="SC4fCpotEB5E9-z7Wser">
    <mxGraphModel dx="2087" dy="1175" grid="1" gridSize="10" guides="1" tooltips="1" connect="1" arrows="1" fold="1" page="1" pageScale="1" pageWidth="583" pageHeight="827" math="0" shadow="0">
      <root>
        <mxCell id="0" />
        <mxCell id="1" parent="0" />
        <mxCell id="9Ei-aNohFMWiA8_TWf-m-3" value="" style="rounded=0;whiteSpace=wrap;html=1;" parent="1" vertex="1">
          <mxGeometry x="30" y="40" width="1090" height="40" as="geometry" />
        </mxCell>
        <mxCell id="9Ei-aNohFMWiA8_TWf-m-4" value="&lt;font style=&quot;font-size: 14px;&quot;&gt;CakeCove&lt;/font&gt;" style="text;html=1;strokeColor=none;fillColor=none;align=center;verticalAlign=middle;whiteSpace=wrap;rounded=0;" parent="1" vertex="1">
          <mxGeometry x="40" y="40" width="70" height="40" as="geometry" />
        </mxCell>
        <mxCell id="9Ei-aNohFMWiA8_TWf-m-6" value="" style="shape=image;verticalLabelPosition=bottom;labelBackgroundColor=default;verticalAlign=top;aspect=fixed;imageAspect=0;image=data:image/png,iVBORw0KGgoAAAANSUhEUgAAAEAAAABACAYAAACqaXHeAAAACXBIWXMAAAsTAAALEwEAmpwYAAAC9UlEQVR4nO2azWsTQRTAf1tjKeLHRawV/QMEFbT2JvQgaqioNzF+oHioeLQN1YPeFARtTfHUu58HT3r3KFoJBT2o6KnVKqKHpopfNTLwAsO4iZtss8ms7wdDlsnMmzeZN++9mQ0oiqIoiqIoiqIoiRAAvcAR4IwU87xNvksta4EC8BYoVynmu2tANykiAEaA+RoTd0sJyKfBIrqA2yETnJX6UWBMnmdD2t0SGV4ShEz+KbAb6Ahpb+r2AMWQH8FLSxhxJmJWekmEfhnxFXbfYTxjDTBnTcCYer2MOz7BOFFvKDhmH2Xlwyyh6FiQFwROqDN7vlGylpwZX3zBdkvpd1UcXlRM3/eWPJMstT2HLYVNFIjLXUveITwgbyl8ZRHkXfUtGgxbChvl4zJqyRvCA3L/+xbodVLeuE7wgyVvKx6GwWwMWQOWnGlfwiBypK0oXpSkpl5Mn6mY2WTbpMKFBmRcd1Jh7+4I8s6BZjyiJWScyZfl1sg7AjnKlp3tkK1xHB5wzN6UGz7tfZeukB+hLOntHTngjEmos719pdz0+UKkQiDJUamOK7E5MXtvVz6MblntmRoTnxZvb5xoagkkoclZ1+I5qUvViiuK8hedQB9wEBgEzkoZlLo+aZMqNgOXgEnge4QQaNo8AS4Cm/CUpcBJ4Hkdsb9aeQacaPBA1RKOAm+qTOY38AK4B0wAl6VMSN1LaRPW97XcN7Yt64AHIYqXJJ/fB6yKIMe02S9pcFj2eB/ooc3YBXx2FP0oDm55DLmm7zmRZcv+BOykTTgO/LCUW5Cjb5yJu6wQmQuOszxGiznt7FmTy/c3cbx+GcP2KadoEXuBn5YyxuNvSGDcHued4S/gAAmzxfnHx2REB7dYrAQeW+PPS76RCBl541sZ3Bxv15M8q4FXlh5Tkn80nfPWoN/EGlrFRuCrpY/Rral0AF+sAS/QeoacrRDnRUwkKnvvUVIm9w/Mny8eWr6o6SwDdshnu9ApIdLkC4qiKIqiKAoR+ANHc0fJ9QoTfAAAAABJRU5ErkJggg==;" parent="1" vertex="1">
          <mxGeometry x="1030" y="45" width="30" height="30" as="geometry" />
        </mxCell>
        <mxCell id="9Ei-aNohFMWiA8_TWf-m-7" value="" style="shape=image;verticalLabelPosition=bottom;labelBackgroundColor=default;verticalAlign=top;aspect=fixed;imageAspect=0;image=data:image/png,iVBORw0KGgoAAAANSUhEUgAAADIAAAAyCAYAAAAeP4ixAAAACXBIWXMAAAsTAAALEwEAmpwYAAACrUlEQVR4nO2ZO4xMURjHf1YyjalorAqVkXg0VuFViA2xGla2oGIlXhGroluFR8Go6GzhHatCRWM7q/Co2MSuhFgVjV2yEhn55H/lkp2559wZe7+IX3KSyZzv/93/yb333O+cA/+pSwnoAW4Cr4AJNft9Q30W45qdwBhQy2ijwA4cMhuopow+BQ4DFWCOWkX/PUvFnZPWDVUZ+wrsAWY1iG0DehWbDMbN41QDvgBrInRrU4PZTsGUUu+E3YlY9kn7uugJoCf1TtgjE4tpniuH3dnCuCUTh5rIcUQ5rlMgIzKxpIkcS5XDvjOF8Vkmyk3kKCuH5SqM5HvgJc+/P5DJgHJjptpk3kHMc2C+9kebm2cgKwNmk5l6tEbUvyJP8m0SP2jCQChZeR6qvytP8oMSD9Tp35gyYL/zEpJnQP3mKZqzEvfX6R9NGbBaKS8heU6q/0yeC1yT2Eru6XiXMvA2zwUi8vSq3zxFMyRxZ53+LTJhF9+c5wIReTrlxTxF86YFdVSrqMiLLRmiy+upFtRRraIsL99ilwsLJPyIHz7JU3uMaLVEtujxwgt56sizDr+LH+7JU3eM6JhEF/HDJXnqixFdkOg4fjghT7b1FMwdiXbhh93yNBgjeiLROvywXp6GY0QfJFqIHxbJ03iowDbKvqt52jUvxfparJG/xx/j8mZ3J5MNCn6MP4blzd6X4NnhNv4YjJlNk/n6PP6oxnzfki/oUfzRF1Nx3Fewx6Oxbnmzuiu4ylyFPzpiqvKk7p+PP9pD10nJSmwq58HN36YtdOWarI1ti8YrYyF7CcluxSP8MiSPmxoF7VXQFfxyNeTwtV9Bp/DL6Ywd0N/2WPfjlwPyeJmAXe+t+KUr4JTg51mIBS3DL8vl8WWjoAkHp1K1wGZep8XjUVtW+3UU9wNY5IVjWCP9OAAAAABJRU5ErkJggg==;" parent="1" vertex="1">
          <mxGeometry x="980" y="50" width="20" height="20" as="geometry" />
        </mxCell>
        <mxCell id="9Ei-aNohFMWiA8_TWf-m-11" value="" style="rounded=1;whiteSpace=wrap;html=1;" parent="1" vertex="1">
          <mxGeometry x="218" y="150" width="724" height="320" as="geometry" />
        </mxCell>
        <mxCell id="9Ei-aNohFMWiA8_TWf-m-21" value="Home" style="text;html=1;strokeColor=none;fillColor=none;align=center;verticalAlign=middle;whiteSpace=wrap;rounded=0;" parent="1" vertex="1">
          <mxGeometry x="320" y="40" width="70" height="40" as="geometry" />
        </mxCell>
        <mxCell id="9Ei-aNohFMWiA8_TWf-m-22" value="Product" style="text;html=1;strokeColor=none;fillColor=none;align=center;verticalAlign=middle;whiteSpace=wrap;rounded=0;" parent="1" vertex="1">
          <mxGeometry x="410" y="40" width="70" height="40" as="geometry" />
        </mxCell>
        <mxCell id="9Ei-aNohFMWiA8_TWf-m-24" value="About Us" style="text;html=1;strokeColor=none;fillColor=none;align=center;verticalAlign=middle;whiteSpace=wrap;rounded=0;" parent="1" vertex="1">
          <mxGeometry x="487.5" y="40" width="70" height="40" as="geometry" />
        </mxCell>
        <mxCell id="9Ei-aNohFMWiA8_TWf-m-25" value="Contact Us" style="text;html=1;strokeColor=none;fillColor=none;align=center;verticalAlign=middle;whiteSpace=wrap;rounded=0;" parent="1" vertex="1">
          <mxGeometry x="560" y="40" width="90" height="40" as="geometry" />
        </mxCell>
        <mxCell id="9Ei-aNohFMWiA8_TWf-m-30" value="" style="rounded=0;whiteSpace=wrap;html=1;strokeWidth=1;" parent="1" vertex="1">
          <mxGeometry x="360" y="600" width="200" height="240" as="geometry" />
        </mxCell>
        <mxCell id="9Ei-aNohFMWiA8_TWf-m-31" value="" style="rounded=1;whiteSpace=wrap;html=1;" parent="1" vertex="1">
          <mxGeometry x="390" y="790" width="140" height="30" as="geometry" />
        </mxCell>
        <mxCell id="9Ei-aNohFMWiA8_TWf-m-32" value="" style="rounded=0;whiteSpace=wrap;html=1;" parent="1" vertex="1">
          <mxGeometry x="380" y="630" width="160" height="140" as="geometry" />
        </mxCell>
        <mxCell id="9Ei-aNohFMWiA8_TWf-m-33" value="" style="rounded=0;whiteSpace=wrap;html=1;strokeWidth=1;" parent="1" vertex="1">
          <mxGeometry x="840" y="600" width="200" height="240" as="geometry" />
        </mxCell>
        <mxCell id="9Ei-aNohFMWiA8_TWf-m-34" value="" style="rounded=1;whiteSpace=wrap;html=1;" parent="1" vertex="1">
          <mxGeometry x="870" y="790" width="140" height="30" as="geometry" />
        </mxCell>
        <mxCell id="9Ei-aNohFMWiA8_TWf-m-35" value="" style="rounded=0;whiteSpace=wrap;html=1;" parent="1" vertex="1">
          <mxGeometry x="860" y="630" width="160" height="140" as="geometry" />
        </mxCell>
        <mxCell id="9Ei-aNohFMWiA8_TWf-m-36" value="" style="rounded=0;whiteSpace=wrap;html=1;strokeWidth=1;" parent="1" vertex="1">
          <mxGeometry x="120" y="600" width="200" height="240" as="geometry" />
        </mxCell>
        <mxCell id="9Ei-aNohFMWiA8_TWf-m-37" value="" style="rounded=1;whiteSpace=wrap;html=1;" parent="1" vertex="1">
          <mxGeometry x="150" y="790" width="140" height="30" as="geometry" />
        </mxCell>
        <mxCell id="9Ei-aNohFMWiA8_TWf-m-38" value="" style="rounded=0;whiteSpace=wrap;html=1;" parent="1" vertex="1">
          <mxGeometry x="140" y="630" width="160" height="140" as="geometry" />
        </mxCell>
        <mxCell id="9Ei-aNohFMWiA8_TWf-m-76" value="" style="rounded=0;whiteSpace=wrap;html=1;strokeWidth=1;" parent="1" vertex="1">
          <mxGeometry x="360" y="920" width="200" height="240" as="geometry" />
        </mxCell>
        <mxCell id="9Ei-aNohFMWiA8_TWf-m-77" value="" style="rounded=1;whiteSpace=wrap;html=1;" parent="1" vertex="1">
          <mxGeometry x="390" y="1110" width="140" height="30" as="geometry" />
        </mxCell>
        <mxCell id="9Ei-aNohFMWiA8_TWf-m-78" value="" style="rounded=0;whiteSpace=wrap;html=1;" parent="1" vertex="1">
          <mxGeometry x="380" y="950" width="160" height="140" as="geometry" />
        </mxCell>
        <mxCell id="9Ei-aNohFMWiA8_TWf-m-79" value="" style="rounded=0;whiteSpace=wrap;html=1;strokeWidth=1;" parent="1" vertex="1">
          <mxGeometry x="840" y="920" width="200" height="240" as="geometry" />
        </mxCell>
        <mxCell id="9Ei-aNohFMWiA8_TWf-m-80" value="" style="rounded=1;whiteSpace=wrap;html=1;" parent="1" vertex="1">
          <mxGeometry x="870" y="1110" width="140" height="30" as="geometry" />
        </mxCell>
        <mxCell id="9Ei-aNohFMWiA8_TWf-m-81" value="" style="rounded=0;whiteSpace=wrap;html=1;" parent="1" vertex="1">
          <mxGeometry x="860" y="950" width="160" height="140" as="geometry" />
        </mxCell>
        <mxCell id="9Ei-aNohFMWiA8_TWf-m-82" value="" style="rounded=0;whiteSpace=wrap;html=1;strokeWidth=1;" parent="1" vertex="1">
          <mxGeometry x="120" y="920" width="200" height="240" as="geometry" />
        </mxCell>
        <mxCell id="9Ei-aNohFMWiA8_TWf-m-83" value="" style="rounded=1;whiteSpace=wrap;html=1;" parent="1" vertex="1">
          <mxGeometry x="150" y="1110" width="140" height="30" as="geometry" />
        </mxCell>
        <mxCell id="9Ei-aNohFMWiA8_TWf-m-84" value="" style="rounded=0;whiteSpace=wrap;html=1;" parent="1" vertex="1">
          <mxGeometry x="140" y="950" width="160" height="140" as="geometry" />
        </mxCell>
        <mxCell id="9Ei-aNohFMWiA8_TWf-m-132" value="" style="rounded=0;whiteSpace=wrap;html=1;strokeWidth=1;" parent="1" vertex="1">
          <mxGeometry x="600" y="920" width="200" height="240" as="geometry" />
        </mxCell>
        <mxCell id="9Ei-aNohFMWiA8_TWf-m-133" value="" style="rounded=1;whiteSpace=wrap;html=1;" parent="1" vertex="1">
          <mxGeometry x="630" y="1110" width="140" height="30" as="geometry" />
        </mxCell>
        <mxCell id="9Ei-aNohFMWiA8_TWf-m-134" value="" style="rounded=0;whiteSpace=wrap;html=1;" parent="1" vertex="1">
          <mxGeometry x="620" y="950" width="160" height="140" as="geometry" />
        </mxCell>
        <mxCell id="Kqna34Ej_5IUEIA27o9x-3" value="" style="rounded=0;whiteSpace=wrap;html=1;strokeWidth=1;" parent="1" vertex="1">
          <mxGeometry x="600" y="600" width="200" height="240" as="geometry" />
        </mxCell>
        <mxCell id="Kqna34Ej_5IUEIA27o9x-4" value="" style="rounded=1;whiteSpace=wrap;html=1;" parent="1" vertex="1">
          <mxGeometry x="630" y="790" width="140" height="30" as="geometry" />
        </mxCell>
        <mxCell id="Kqna34Ej_5IUEIA27o9x-5" value="" style="rounded=0;whiteSpace=wrap;html=1;" parent="1" vertex="1">
          <mxGeometry x="620" y="630" width="160" height="140" as="geometry" />
        </mxCell>
        <mxCell id="2BVUKk83utop40ggsSPK-1" value="" style="rounded=0;whiteSpace=wrap;html=1;movable=1;resizable=1;rotatable=1;deletable=1;editable=1;locked=0;connectable=1;dropTarget=0;container=0;" parent="1" vertex="1">
          <mxGeometry y="1400" width="1160" height="252" as="geometry" />
        </mxCell>
        <mxCell id="2BVUKk83utop40ggsSPK-2" value="CakeCove" style="text;html=1;strokeColor=none;fillColor=none;align=center;verticalAlign=middle;whiteSpace=wrap;rounded=0;" parent="1" vertex="1">
          <mxGeometry x="50" y="1450" width="95" height="30" as="geometry" />
        </mxCell>
        <mxCell id="2BVUKk83utop40ggsSPK-3" value="&lt;span style=&quot;color: rgb(78, 78, 78); font-family: Inter, BlinkMacSystemFont, &amp;quot;Segoe UI&amp;quot;, Roboto, Oxygen, Ubuntu, Cantarell, &amp;quot;Fira Sans&amp;quot;, &amp;quot;Droid Sans&amp;quot;, &amp;quot;Helvetica Neue&amp;quot;, sans-serif; font-size: 11.104px;&quot;&gt;Portions of this content are ©1881–2023 – Cake&lt;/span&gt;&lt;span style=&quot;color: rgb(78, 78, 78); font-family: Inter, BlinkMacSystemFont, &amp;quot;Segoe UI&amp;quot;, Roboto, Oxygen, Ubuntu, Cantarell, &amp;quot;Fira Sans&amp;quot;, &amp;quot;Droid Sans&amp;quot;, &amp;quot;Helvetica Neue&amp;quot;, sans-serif; font-size: 11.104px;&quot;&gt;Cove&lt;/span&gt;" style="text;html=1;strokeColor=none;fillColor=none;align=left;verticalAlign=middle;whiteSpace=wrap;rounded=0;labelBackgroundColor=none;" parent="1" vertex="1">
          <mxGeometry x="435" y="1580" width="270" height="38" as="geometry" />
        </mxCell>
        <mxCell id="2BVUKk83utop40ggsSPK-4" value="" style="ellipse;whiteSpace=wrap;html=1;aspect=fixed;" parent="1" vertex="1">
          <mxGeometry x="1055" y="1550" width="40" height="40" as="geometry" />
        </mxCell>
        <mxCell id="2BVUKk83utop40ggsSPK-5" value="" style="ellipse;whiteSpace=wrap;html=1;aspect=fixed;" parent="1" vertex="1">
          <mxGeometry x="1055" y="1420" width="40" height="40" as="geometry" />
        </mxCell>
        <mxCell id="2BVUKk83utop40ggsSPK-6" value="" style="ellipse;whiteSpace=wrap;html=1;aspect=fixed;" parent="1" vertex="1">
          <mxGeometry x="1055" y="1480" width="40" height="40" as="geometry" />
        </mxCell>
        <mxCell id="2BVUKk83utop40ggsSPK-7" value="Home" style="text;html=1;strokeColor=none;fillColor=none;align=center;verticalAlign=middle;whiteSpace=wrap;rounded=0;" parent="1" vertex="1">
          <mxGeometry x="55" y="1520" width="60" height="30" as="geometry" />
        </mxCell>
        <mxCell id="2BVUKk83utop40ggsSPK-8" value="Product" style="text;html=1;strokeColor=none;fillColor=none;align=center;verticalAlign=middle;whiteSpace=wrap;rounded=0;" parent="1" vertex="1">
          <mxGeometry x="135" y="1520" width="60" height="30" as="geometry" />
        </mxCell>
        <mxCell id="2BVUKk83utop40ggsSPK-9" value="About" style="text;html=1;strokeColor=none;fillColor=none;align=center;verticalAlign=middle;whiteSpace=wrap;rounded=0;" parent="1" vertex="1">
          <mxGeometry x="215" y="1520" width="60" height="30" as="geometry" />
        </mxCell>
        <mxCell id="2BVUKk83utop40ggsSPK-10" value="Contact" style="text;html=1;strokeColor=none;fillColor=none;align=center;verticalAlign=middle;whiteSpace=wrap;rounded=0;" parent="1" vertex="1">
          <mxGeometry x="290" y="1520" width="60" height="30" as="geometry" />
        </mxCell>
        <mxCell id="2BVUKk83utop40ggsSPK-11" value="&lt;font color=&quot;#999999&quot; style=&quot;font-size: 21px;&quot;&gt;yourname@example.com&lt;/font&gt;" style="rounded=1;whiteSpace=wrap;html=1;align=left;" parent="1" vertex="1">
          <mxGeometry x="370" y="1440" width="305" height="60" as="geometry" />
        </mxCell>
        <mxCell id="2BVUKk83utop40ggsSPK-12" value="&lt;font style=&quot;font-size: 17px;&quot;&gt;SubScribe&lt;/font&gt;" style="rounded=1;whiteSpace=wrap;html=1;" parent="1" vertex="1">
          <mxGeometry x="695" y="1440" width="120" height="60" as="geometry" />
        </mxCell>
      </root>
    </mxGraphModel>
  </diagram>
  <diagram name="Products" id="PEPxJHJ3Bly2fcOfFaje">
    <mxGraphModel dx="2906" dy="705" grid="1" gridSize="10" guides="1" tooltips="1" connect="1" arrows="1" fold="1" page="1" pageScale="1" pageWidth="827" pageHeight="1169" math="0" shadow="0">
      <root>
        <mxCell id="6wSTXPw-Damp9xC62pnF-0" />
        <mxCell id="6wSTXPw-Damp9xC62pnF-1" parent="6wSTXPw-Damp9xC62pnF-0" />
        <mxCell id="6wSTXPw-Damp9xC62pnF-24" value="" style="rounded=0;whiteSpace=wrap;html=1;strokeWidth=1;" parent="6wSTXPw-Damp9xC62pnF-1" vertex="1">
          <mxGeometry x="-1405" y="190" width="200" height="240" as="geometry" />
        </mxCell>
        <mxCell id="6wSTXPw-Damp9xC62pnF-25" value="" style="rounded=1;whiteSpace=wrap;html=1;" parent="6wSTXPw-Damp9xC62pnF-1" vertex="1">
          <mxGeometry x="-1375" y="380" width="140" height="30" as="geometry" />
        </mxCell>
        <mxCell id="6wSTXPw-Damp9xC62pnF-26" value="" style="rounded=0;whiteSpace=wrap;html=1;" parent="6wSTXPw-Damp9xC62pnF-1" vertex="1">
          <mxGeometry x="-1385" y="220" width="160" height="140" as="geometry" />
        </mxCell>
        <mxCell id="6wSTXPw-Damp9xC62pnF-27" value="" style="rounded=0;whiteSpace=wrap;html=1;strokeWidth=1;" parent="6wSTXPw-Damp9xC62pnF-1" vertex="1">
          <mxGeometry x="-675" y="190" width="200" height="240" as="geometry" />
        </mxCell>
        <mxCell id="6wSTXPw-Damp9xC62pnF-28" value="" style="rounded=1;whiteSpace=wrap;html=1;" parent="6wSTXPw-Damp9xC62pnF-1" vertex="1">
          <mxGeometry x="-645" y="380" width="140" height="30" as="geometry" />
        </mxCell>
        <mxCell id="6wSTXPw-Damp9xC62pnF-29" value="" style="rounded=0;whiteSpace=wrap;html=1;" parent="6wSTXPw-Damp9xC62pnF-1" vertex="1">
          <mxGeometry x="-655" y="220" width="160" height="140" as="geometry" />
        </mxCell>
        <mxCell id="6wSTXPw-Damp9xC62pnF-95" value="" style="rounded=0;whiteSpace=wrap;html=1;strokeWidth=1;" parent="6wSTXPw-Damp9xC62pnF-1" vertex="1">
          <mxGeometry x="-1040" y="190" width="200" height="240" as="geometry" />
        </mxCell>
        <mxCell id="6wSTXPw-Damp9xC62pnF-96" value="" style="rounded=1;whiteSpace=wrap;html=1;" parent="6wSTXPw-Damp9xC62pnF-1" vertex="1">
          <mxGeometry x="-1010" y="380" width="140" height="30" as="geometry" />
        </mxCell>
        <mxCell id="6wSTXPw-Damp9xC62pnF-97" value="" style="rounded=0;whiteSpace=wrap;html=1;" parent="6wSTXPw-Damp9xC62pnF-1" vertex="1">
          <mxGeometry x="-1020" y="220" width="160" height="140" as="geometry" />
        </mxCell>
        <mxCell id="ufWLhdJVgepQfhwkog8V-0" value="" style="rounded=0;whiteSpace=wrap;html=1;" parent="6wSTXPw-Damp9xC62pnF-1" vertex="1">
          <mxGeometry x="-1515" y="40" width="1120" height="40" as="geometry" />
        </mxCell>
        <mxCell id="ufWLhdJVgepQfhwkog8V-1" value="&lt;font style=&quot;font-size: 14px;&quot;&gt;CakeCove&lt;/font&gt;" style="text;html=1;strokeColor=none;fillColor=none;align=center;verticalAlign=middle;whiteSpace=wrap;rounded=0;" parent="6wSTXPw-Damp9xC62pnF-1" vertex="1">
          <mxGeometry x="-1465" y="40" width="70" height="40" as="geometry" />
        </mxCell>
        <mxCell id="ufWLhdJVgepQfhwkog8V-2" value="" style="shape=image;verticalLabelPosition=bottom;labelBackgroundColor=default;verticalAlign=top;aspect=fixed;imageAspect=0;image=data:image/png,iVBORw0KGgoAAAANSUhEUgAAAEAAAABACAYAAACqaXHeAAAACXBIWXMAAAsTAAALEwEAmpwYAAAC9UlEQVR4nO2azWsTQRTAf1tjKeLHRawV/QMEFbT2JvQgaqioNzF+oHioeLQN1YPeFARtTfHUu58HT3r3KFoJBT2o6KnVKqKHpopfNTLwAsO4iZtss8ms7wdDlsnMmzeZN++9mQ0oiqIoiqIoiqIoiRAAvcAR4IwU87xNvksta4EC8BYoVynmu2tANykiAEaA+RoTd0sJyKfBIrqA2yETnJX6UWBMnmdD2t0SGV4ShEz+KbAb6Ahpb+r2AMWQH8FLSxhxJmJWekmEfhnxFXbfYTxjDTBnTcCYer2MOz7BOFFvKDhmH2Xlwyyh6FiQFwROqDN7vlGylpwZX3zBdkvpd1UcXlRM3/eWPJMstT2HLYVNFIjLXUveITwgbyl8ZRHkXfUtGgxbChvl4zJqyRvCA3L/+xbodVLeuE7wgyVvKx6GwWwMWQOWnGlfwiBypK0oXpSkpl5Mn6mY2WTbpMKFBmRcd1Jh7+4I8s6BZjyiJWScyZfl1sg7AjnKlp3tkK1xHB5wzN6UGz7tfZeukB+hLOntHTngjEmos719pdz0+UKkQiDJUamOK7E5MXtvVz6MblntmRoTnxZvb5xoagkkoclZ1+I5qUvViiuK8hedQB9wEBgEzkoZlLo+aZMqNgOXgEnge4QQaNo8AS4Cm/CUpcBJ4Hkdsb9aeQacaPBA1RKOAm+qTOY38AK4B0wAl6VMSN1LaRPW97XcN7Yt64AHIYqXJJ/fB6yKIMe02S9pcFj2eB/ooc3YBXx2FP0oDm55DLmm7zmRZcv+BOykTTgO/LCUW5Cjb5yJu6wQmQuOszxGiznt7FmTy/c3cbx+GcP2KadoEXuBn5YyxuNvSGDcHued4S/gAAmzxfnHx2REB7dYrAQeW+PPS76RCBl541sZ3Bxv15M8q4FXlh5Tkn80nfPWoN/EGlrFRuCrpY/Rral0AF+sAS/QeoacrRDnRUwkKnvvUVIm9w/Mny8eWr6o6SwDdshnu9ApIdLkC4qiKIqiKAoR+ANHc0fJ9QoTfAAAAABJRU5ErkJggg==;" parent="6wSTXPw-Damp9xC62pnF-1" vertex="1">
          <mxGeometry x="-475" y="45" width="30" height="30" as="geometry" />
        </mxCell>
        <mxCell id="ufWLhdJVgepQfhwkog8V-3" value="" style="shape=image;verticalLabelPosition=bottom;labelBackgroundColor=default;verticalAlign=top;aspect=fixed;imageAspect=0;image=data:image/png,iVBORw0KGgoAAAANSUhEUgAAADIAAAAyCAYAAAAeP4ixAAAACXBIWXMAAAsTAAALEwEAmpwYAAACrUlEQVR4nO2ZO4xMURjHf1YyjalorAqVkXg0VuFViA2xGla2oGIlXhGroluFR8Go6GzhHatCRWM7q/Co2MSuhFgVjV2yEhn55H/lkp2559wZe7+IX3KSyZzv/93/yb333O+cA/+pSwnoAW4Cr4AJNft9Q30W45qdwBhQy2ijwA4cMhuopow+BQ4DFWCOWkX/PUvFnZPWDVUZ+wrsAWY1iG0DehWbDMbN41QDvgBrInRrU4PZTsGUUu+E3YlY9kn7uugJoCf1TtgjE4tpniuH3dnCuCUTh5rIcUQ5rlMgIzKxpIkcS5XDvjOF8Vkmyk3kKCuH5SqM5HvgJc+/P5DJgHJjptpk3kHMc2C+9kebm2cgKwNmk5l6tEbUvyJP8m0SP2jCQChZeR6qvytP8oMSD9Tp35gyYL/zEpJnQP3mKZqzEvfX6R9NGbBaKS8heU6q/0yeC1yT2Eru6XiXMvA2zwUi8vSq3zxFMyRxZ53+LTJhF9+c5wIReTrlxTxF86YFdVSrqMiLLRmiy+upFtRRraIsL99ilwsLJPyIHz7JU3uMaLVEtujxwgt56sizDr+LH+7JU3eM6JhEF/HDJXnqixFdkOg4fjghT7b1FMwdiXbhh93yNBgjeiLROvywXp6GY0QfJFqIHxbJ03iowDbKvqt52jUvxfparJG/xx/j8mZ3J5MNCn6MP4blzd6X4NnhNv4YjJlNk/n6PP6oxnzfki/oUfzRF1Nx3Fewx6Oxbnmzuiu4ylyFPzpiqvKk7p+PP9pD10nJSmwq58HN36YtdOWarI1ti8YrYyF7CcluxSP8MiSPmxoF7VXQFfxyNeTwtV9Bp/DL6Ywd0N/2WPfjlwPyeJmAXe+t+KUr4JTg51mIBS3DL8vl8WWjoAkHp1K1wGZep8XjUVtW+3UU9wNY5IVjWCP9OAAAAABJRU5ErkJggg==;" parent="6wSTXPw-Damp9xC62pnF-1" vertex="1">
          <mxGeometry x="-525" y="50" width="20" height="20" as="geometry" />
        </mxCell>
        <mxCell id="ufWLhdJVgepQfhwkog8V-4" value="Home" style="text;html=1;strokeColor=none;fillColor=none;align=center;verticalAlign=middle;whiteSpace=wrap;rounded=0;" parent="6wSTXPw-Damp9xC62pnF-1" vertex="1">
          <mxGeometry x="-1200" y="40" width="70" height="40" as="geometry" />
        </mxCell>
        <mxCell id="ufWLhdJVgepQfhwkog8V-5" value="Product" style="text;html=1;strokeColor=none;fillColor=none;align=center;verticalAlign=middle;whiteSpace=wrap;rounded=0;" parent="6wSTXPw-Damp9xC62pnF-1" vertex="1">
          <mxGeometry x="-1115" y="40" width="70" height="40" as="geometry" />
        </mxCell>
        <mxCell id="ufWLhdJVgepQfhwkog8V-6" value="Gallery" style="text;html=1;strokeColor=none;fillColor=none;align=center;verticalAlign=middle;whiteSpace=wrap;rounded=0;" parent="6wSTXPw-Damp9xC62pnF-1" vertex="1">
          <mxGeometry x="-1035" y="40" width="70" height="40" as="geometry" />
        </mxCell>
        <mxCell id="ufWLhdJVgepQfhwkog8V-7" value="About Us" style="text;html=1;strokeColor=none;fillColor=none;align=center;verticalAlign=middle;whiteSpace=wrap;rounded=0;" parent="6wSTXPw-Damp9xC62pnF-1" vertex="1">
          <mxGeometry x="-965" y="40" width="70" height="40" as="geometry" />
        </mxCell>
        <mxCell id="ufWLhdJVgepQfhwkog8V-8" value="Contact Us" style="text;html=1;strokeColor=none;fillColor=none;align=center;verticalAlign=middle;whiteSpace=wrap;rounded=0;" parent="6wSTXPw-Damp9xC62pnF-1" vertex="1">
          <mxGeometry x="-885" y="40" width="90" height="40" as="geometry" />
        </mxCell>
        <mxCell id="opB08MeEYCHaAEhxpW8E-0" value="" style="rounded=0;whiteSpace=wrap;html=1;movable=1;resizable=1;rotatable=1;deletable=1;editable=1;locked=0;connectable=1;dropTarget=0;container=0;" parent="6wSTXPw-Damp9xC62pnF-1" vertex="1">
          <mxGeometry x="-1555" y="1220" width="1160" height="252" as="geometry" />
        </mxCell>
        <mxCell id="opB08MeEYCHaAEhxpW8E-1" value="CakeCove" style="text;html=1;strokeColor=none;fillColor=none;align=center;verticalAlign=middle;whiteSpace=wrap;rounded=0;" parent="6wSTXPw-Damp9xC62pnF-1" vertex="1">
          <mxGeometry x="-1505" y="1270" width="95" height="30" as="geometry" />
        </mxCell>
        <mxCell id="opB08MeEYCHaAEhxpW8E-2" value="&lt;span style=&quot;color: rgb(78, 78, 78); font-family: Inter, BlinkMacSystemFont, &amp;quot;Segoe UI&amp;quot;, Roboto, Oxygen, Ubuntu, Cantarell, &amp;quot;Fira Sans&amp;quot;, &amp;quot;Droid Sans&amp;quot;, &amp;quot;Helvetica Neue&amp;quot;, sans-serif; font-size: 11.104px;&quot;&gt;Portions of this content are ©1881–2023 – Cake&lt;/span&gt;&lt;span style=&quot;color: rgb(78, 78, 78); font-family: Inter, BlinkMacSystemFont, &amp;quot;Segoe UI&amp;quot;, Roboto, Oxygen, Ubuntu, Cantarell, &amp;quot;Fira Sans&amp;quot;, &amp;quot;Droid Sans&amp;quot;, &amp;quot;Helvetica Neue&amp;quot;, sans-serif; font-size: 11.104px;&quot;&gt;Cove&lt;/span&gt;" style="text;html=1;strokeColor=none;fillColor=none;align=left;verticalAlign=middle;whiteSpace=wrap;rounded=0;labelBackgroundColor=none;" parent="6wSTXPw-Damp9xC62pnF-1" vertex="1">
          <mxGeometry x="-1120" y="1400" width="270" height="38" as="geometry" />
        </mxCell>
        <mxCell id="opB08MeEYCHaAEhxpW8E-3" value="" style="ellipse;whiteSpace=wrap;html=1;aspect=fixed;" parent="6wSTXPw-Damp9xC62pnF-1" vertex="1">
          <mxGeometry x="-500" y="1370" width="40" height="40" as="geometry" />
        </mxCell>
        <mxCell id="opB08MeEYCHaAEhxpW8E-4" value="" style="ellipse;whiteSpace=wrap;html=1;aspect=fixed;" parent="6wSTXPw-Damp9xC62pnF-1" vertex="1">
          <mxGeometry x="-500" y="1240" width="40" height="40" as="geometry" />
        </mxCell>
        <mxCell id="opB08MeEYCHaAEhxpW8E-5" value="" style="ellipse;whiteSpace=wrap;html=1;aspect=fixed;" parent="6wSTXPw-Damp9xC62pnF-1" vertex="1">
          <mxGeometry x="-500" y="1300" width="40" height="40" as="geometry" />
        </mxCell>
        <mxCell id="lx13Q8tt6r2Ibo1-PZK3-0" value="Cake" style="text;html=1;strokeColor=none;fillColor=none;align=center;verticalAlign=middle;whiteSpace=wrap;rounded=0;" parent="6wSTXPw-Damp9xC62pnF-1" vertex="1">
          <mxGeometry x="-1405" y="150" width="60" height="30" as="geometry" />
        </mxCell>
        <mxCell id="lx13Q8tt6r2Ibo1-PZK3-1" value="View All" style="text;html=1;strokeColor=none;fillColor=none;align=center;verticalAlign=middle;whiteSpace=wrap;rounded=0;" parent="6wSTXPw-Damp9xC62pnF-1" vertex="1">
          <mxGeometry x="-545" y="150" width="60" height="30" as="geometry" />
        </mxCell>
        <mxCell id="lx13Q8tt6r2Ibo1-PZK3-2" value="" style="rounded=0;whiteSpace=wrap;html=1;strokeWidth=1;" parent="6wSTXPw-Damp9xC62pnF-1" vertex="1">
          <mxGeometry x="-1410" y="510" width="200" height="240" as="geometry" />
        </mxCell>
        <mxCell id="lx13Q8tt6r2Ibo1-PZK3-3" value="" style="rounded=1;whiteSpace=wrap;html=1;" parent="6wSTXPw-Damp9xC62pnF-1" vertex="1">
          <mxGeometry x="-1380" y="700" width="140" height="30" as="geometry" />
        </mxCell>
        <mxCell id="lx13Q8tt6r2Ibo1-PZK3-4" value="" style="rounded=0;whiteSpace=wrap;html=1;" parent="6wSTXPw-Damp9xC62pnF-1" vertex="1">
          <mxGeometry x="-1390" y="540" width="160" height="140" as="geometry" />
        </mxCell>
        <mxCell id="lx13Q8tt6r2Ibo1-PZK3-5" value="" style="rounded=0;whiteSpace=wrap;html=1;strokeWidth=1;" parent="6wSTXPw-Damp9xC62pnF-1" vertex="1">
          <mxGeometry x="-680" y="510" width="200" height="240" as="geometry" />
        </mxCell>
        <mxCell id="lx13Q8tt6r2Ibo1-PZK3-6" value="" style="rounded=1;whiteSpace=wrap;html=1;" parent="6wSTXPw-Damp9xC62pnF-1" vertex="1">
          <mxGeometry x="-650" y="700" width="140" height="30" as="geometry" />
        </mxCell>
        <mxCell id="lx13Q8tt6r2Ibo1-PZK3-7" value="" style="rounded=0;whiteSpace=wrap;html=1;" parent="6wSTXPw-Damp9xC62pnF-1" vertex="1">
          <mxGeometry x="-660" y="540" width="160" height="140" as="geometry" />
        </mxCell>
        <mxCell id="lx13Q8tt6r2Ibo1-PZK3-8" value="" style="rounded=0;whiteSpace=wrap;html=1;strokeWidth=1;" parent="6wSTXPw-Damp9xC62pnF-1" vertex="1">
          <mxGeometry x="-1045" y="510" width="200" height="240" as="geometry" />
        </mxCell>
        <mxCell id="lx13Q8tt6r2Ibo1-PZK3-9" value="" style="rounded=1;whiteSpace=wrap;html=1;" parent="6wSTXPw-Damp9xC62pnF-1" vertex="1">
          <mxGeometry x="-1015" y="700" width="140" height="30" as="geometry" />
        </mxCell>
        <mxCell id="lx13Q8tt6r2Ibo1-PZK3-10" value="" style="rounded=0;whiteSpace=wrap;html=1;" parent="6wSTXPw-Damp9xC62pnF-1" vertex="1">
          <mxGeometry x="-1025" y="540" width="160" height="140" as="geometry" />
        </mxCell>
        <mxCell id="lx13Q8tt6r2Ibo1-PZK3-11" value="Wedding" style="text;html=1;strokeColor=none;fillColor=none;align=center;verticalAlign=middle;whiteSpace=wrap;rounded=0;" parent="6wSTXPw-Damp9xC62pnF-1" vertex="1">
          <mxGeometry x="-1410" y="470" width="60" height="30" as="geometry" />
        </mxCell>
        <mxCell id="lx13Q8tt6r2Ibo1-PZK3-12" value="View All" style="text;html=1;strokeColor=none;fillColor=none;align=center;verticalAlign=middle;whiteSpace=wrap;rounded=0;" parent="6wSTXPw-Damp9xC62pnF-1" vertex="1">
          <mxGeometry x="-550" y="470" width="60" height="30" as="geometry" />
        </mxCell>
        <mxCell id="lx13Q8tt6r2Ibo1-PZK3-13" value="" style="rounded=0;whiteSpace=wrap;html=1;strokeWidth=1;" parent="6wSTXPw-Damp9xC62pnF-1" vertex="1">
          <mxGeometry x="-1405" y="830" width="200" height="240" as="geometry" />
        </mxCell>
        <mxCell id="lx13Q8tt6r2Ibo1-PZK3-14" value="" style="rounded=1;whiteSpace=wrap;html=1;" parent="6wSTXPw-Damp9xC62pnF-1" vertex="1">
          <mxGeometry x="-1375" y="1020" width="140" height="30" as="geometry" />
        </mxCell>
        <mxCell id="lx13Q8tt6r2Ibo1-PZK3-15" value="" style="rounded=0;whiteSpace=wrap;html=1;" parent="6wSTXPw-Damp9xC62pnF-1" vertex="1">
          <mxGeometry x="-1385" y="860" width="160" height="140" as="geometry" />
        </mxCell>
        <mxCell id="lx13Q8tt6r2Ibo1-PZK3-16" value="" style="rounded=0;whiteSpace=wrap;html=1;strokeWidth=1;" parent="6wSTXPw-Damp9xC62pnF-1" vertex="1">
          <mxGeometry x="-675" y="830" width="200" height="240" as="geometry" />
        </mxCell>
        <mxCell id="lx13Q8tt6r2Ibo1-PZK3-17" value="" style="rounded=1;whiteSpace=wrap;html=1;" parent="6wSTXPw-Damp9xC62pnF-1" vertex="1">
          <mxGeometry x="-645" y="1020" width="140" height="30" as="geometry" />
        </mxCell>
        <mxCell id="lx13Q8tt6r2Ibo1-PZK3-18" value="" style="rounded=0;whiteSpace=wrap;html=1;" parent="6wSTXPw-Damp9xC62pnF-1" vertex="1">
          <mxGeometry x="-655" y="860" width="160" height="140" as="geometry" />
        </mxCell>
        <mxCell id="lx13Q8tt6r2Ibo1-PZK3-19" value="" style="rounded=0;whiteSpace=wrap;html=1;strokeWidth=1;" parent="6wSTXPw-Damp9xC62pnF-1" vertex="1">
          <mxGeometry x="-1040" y="830" width="200" height="240" as="geometry" />
        </mxCell>
        <mxCell id="lx13Q8tt6r2Ibo1-PZK3-20" value="" style="rounded=1;whiteSpace=wrap;html=1;" parent="6wSTXPw-Damp9xC62pnF-1" vertex="1">
          <mxGeometry x="-1010" y="1020" width="140" height="30" as="geometry" />
        </mxCell>
        <mxCell id="lx13Q8tt6r2Ibo1-PZK3-21" value="" style="rounded=0;whiteSpace=wrap;html=1;" parent="6wSTXPw-Damp9xC62pnF-1" vertex="1">
          <mxGeometry x="-1020" y="860" width="160" height="140" as="geometry" />
        </mxCell>
        <mxCell id="lx13Q8tt6r2Ibo1-PZK3-22" value="CupeCake" style="text;html=1;strokeColor=none;fillColor=none;align=center;verticalAlign=middle;whiteSpace=wrap;rounded=0;" parent="6wSTXPw-Damp9xC62pnF-1" vertex="1">
          <mxGeometry x="-1405" y="790" width="60" height="30" as="geometry" />
        </mxCell>
        <mxCell id="lx13Q8tt6r2Ibo1-PZK3-23" value="View All" style="text;html=1;strokeColor=none;fillColor=none;align=center;verticalAlign=middle;whiteSpace=wrap;rounded=0;" parent="6wSTXPw-Damp9xC62pnF-1" vertex="1">
          <mxGeometry x="-545" y="790" width="60" height="30" as="geometry" />
        </mxCell>
        <mxCell id="lx13Q8tt6r2Ibo1-PZK3-24" value="Load More" style="rounded=1;whiteSpace=wrap;html=1;" parent="6wSTXPw-Damp9xC62pnF-1" vertex="1">
          <mxGeometry x="-1070" y="1140" width="195" height="50" as="geometry" />
        </mxCell>
        <mxCell id="lx13Q8tt6r2Ibo1-PZK3-25" value="Home" style="text;html=1;strokeColor=none;fillColor=none;align=center;verticalAlign=middle;whiteSpace=wrap;rounded=0;" parent="6wSTXPw-Damp9xC62pnF-1" vertex="1">
          <mxGeometry x="-1500" y="1340" width="60" height="30" as="geometry" />
        </mxCell>
        <mxCell id="lx13Q8tt6r2Ibo1-PZK3-26" value="Product" style="text;html=1;strokeColor=none;fillColor=none;align=center;verticalAlign=middle;whiteSpace=wrap;rounded=0;" parent="6wSTXPw-Damp9xC62pnF-1" vertex="1">
          <mxGeometry x="-1420" y="1340" width="60" height="30" as="geometry" />
        </mxCell>
        <mxCell id="lx13Q8tt6r2Ibo1-PZK3-27" value="About" style="text;html=1;strokeColor=none;fillColor=none;align=center;verticalAlign=middle;whiteSpace=wrap;rounded=0;" parent="6wSTXPw-Damp9xC62pnF-1" vertex="1">
          <mxGeometry x="-1340" y="1340" width="60" height="30" as="geometry" />
        </mxCell>
        <mxCell id="lx13Q8tt6r2Ibo1-PZK3-28" value="Contact" style="text;html=1;strokeColor=none;fillColor=none;align=center;verticalAlign=middle;whiteSpace=wrap;rounded=0;" parent="6wSTXPw-Damp9xC62pnF-1" vertex="1">
          <mxGeometry x="-1265" y="1340" width="60" height="30" as="geometry" />
        </mxCell>
        <mxCell id="lx13Q8tt6r2Ibo1-PZK3-29" value="&lt;font color=&quot;#999999&quot; style=&quot;font-size: 21px;&quot;&gt;yourname@example.com&lt;/font&gt;" style="rounded=1;whiteSpace=wrap;html=1;align=left;" parent="6wSTXPw-Damp9xC62pnF-1" vertex="1">
          <mxGeometry x="-1185" y="1260" width="305" height="60" as="geometry" />
        </mxCell>
        <mxCell id="lx13Q8tt6r2Ibo1-PZK3-30" value="&lt;font style=&quot;font-size: 17px;&quot;&gt;SubScribe&lt;/font&gt;" style="rounded=1;whiteSpace=wrap;html=1;" parent="6wSTXPw-Damp9xC62pnF-1" vertex="1">
          <mxGeometry x="-860" y="1260" width="120" height="60" as="geometry" />
        </mxCell>
      </root>
    </mxGraphModel>
  </diagram>
  <diagram id="a1sFPWuGLBqGuR1NfSct" name="about">
    <mxGraphModel dx="3130" dy="1763" grid="1" gridSize="10" guides="1" tooltips="1" connect="1" arrows="1" fold="1" page="1" pageScale="1" pageWidth="1200" pageHeight="1920" math="0" shadow="0">
      <root>
        <mxCell id="0" />
        <mxCell id="1" parent="0" />
        <mxCell id="qmEY1DGqFrO-wXTPjEkY-1" value="" style="rounded=0;whiteSpace=wrap;html=1;" parent="1" vertex="1">
          <mxGeometry x="120" y="40" width="1000" height="40" as="geometry" />
        </mxCell>
        <mxCell id="qmEY1DGqFrO-wXTPjEkY-2" value="&lt;font style=&quot;font-size: 14px;&quot;&gt;CakeCove&lt;/font&gt;" style="text;html=1;strokeColor=none;fillColor=none;align=center;verticalAlign=middle;whiteSpace=wrap;rounded=0;" parent="1" vertex="1">
          <mxGeometry x="140" y="40" width="70" height="40" as="geometry" />
        </mxCell>
        <mxCell id="qmEY1DGqFrO-wXTPjEkY-3" value="" style="shape=image;verticalLabelPosition=bottom;labelBackgroundColor=default;verticalAlign=top;aspect=fixed;imageAspect=0;image=data:image/png,iVBORw0KGgoAAAANSUhEUgAAAEAAAABACAYAAACqaXHeAAAACXBIWXMAAAsTAAALEwEAmpwYAAAC9UlEQVR4nO2azWsTQRTAf1tjKeLHRawV/QMEFbT2JvQgaqioNzF+oHioeLQN1YPeFARtTfHUu58HT3r3KFoJBT2o6KnVKqKHpopfNTLwAsO4iZtss8ms7wdDlsnMmzeZN++9mQ0oiqIoiqIoiqIoiRAAvcAR4IwU87xNvksta4EC8BYoVynmu2tANykiAEaA+RoTd0sJyKfBIrqA2yETnJX6UWBMnmdD2t0SGV4ShEz+KbAb6Ahpb+r2AMWQH8FLSxhxJmJWekmEfhnxFXbfYTxjDTBnTcCYer2MOz7BOFFvKDhmH2Xlwyyh6FiQFwROqDN7vlGylpwZX3zBdkvpd1UcXlRM3/eWPJMstT2HLYVNFIjLXUveITwgbyl8ZRHkXfUtGgxbChvl4zJqyRvCA3L/+xbodVLeuE7wgyVvKx6GwWwMWQOWnGlfwiBypK0oXpSkpl5Mn6mY2WTbpMKFBmRcd1Jh7+4I8s6BZjyiJWScyZfl1sg7AjnKlp3tkK1xHB5wzN6UGz7tfZeukB+hLOntHTngjEmos719pdz0+UKkQiDJUamOK7E5MXtvVz6MblntmRoTnxZvb5xoagkkoclZ1+I5qUvViiuK8hedQB9wEBgEzkoZlLo+aZMqNgOXgEnge4QQaNo8AS4Cm/CUpcBJ4Hkdsb9aeQacaPBA1RKOAm+qTOY38AK4B0wAl6VMSN1LaRPW97XcN7Yt64AHIYqXJJ/fB6yKIMe02S9pcFj2eB/ooc3YBXx2FP0oDm55DLmm7zmRZcv+BOykTTgO/LCUW5Cjb5yJu6wQmQuOszxGiznt7FmTy/c3cbx+GcP2KadoEXuBn5YyxuNvSGDcHued4S/gAAmzxfnHx2REB7dYrAQeW+PPS76RCBl541sZ3Bxv15M8q4FXlh5Tkn80nfPWoN/EGlrFRuCrpY/Rral0AF+sAS/QeoacrRDnRUwkKnvvUVIm9w/Mny8eWr6o6SwDdshnu9ApIdLkC4qiKIqiKAoR+ANHc0fJ9QoTfAAAAABJRU5ErkJggg==;" parent="1" vertex="1">
          <mxGeometry x="1065" y="45" width="30" height="30" as="geometry" />
        </mxCell>
        <mxCell id="qmEY1DGqFrO-wXTPjEkY-4" value="" style="shape=image;verticalLabelPosition=bottom;labelBackgroundColor=default;verticalAlign=top;aspect=fixed;imageAspect=0;image=data:image/png,iVBORw0KGgoAAAANSUhEUgAAADIAAAAyCAYAAAAeP4ixAAAACXBIWXMAAAsTAAALEwEAmpwYAAACrUlEQVR4nO2ZO4xMURjHf1YyjalorAqVkXg0VuFViA2xGla2oGIlXhGroluFR8Go6GzhHatCRWM7q/Co2MSuhFgVjV2yEhn55H/lkp2559wZe7+IX3KSyZzv/93/yb333O+cA/+pSwnoAW4Cr4AJNft9Q30W45qdwBhQy2ijwA4cMhuopow+BQ4DFWCOWkX/PUvFnZPWDVUZ+wrsAWY1iG0DehWbDMbN41QDvgBrInRrU4PZTsGUUu+E3YlY9kn7uugJoCf1TtgjE4tpniuH3dnCuCUTh5rIcUQ5rlMgIzKxpIkcS5XDvjOF8Vkmyk3kKCuH5SqM5HvgJc+/P5DJgHJjptpk3kHMc2C+9kebm2cgKwNmk5l6tEbUvyJP8m0SP2jCQChZeR6qvytP8oMSD9Tp35gyYL/zEpJnQP3mKZqzEvfX6R9NGbBaKS8heU6q/0yeC1yT2Eru6XiXMvA2zwUi8vSq3zxFMyRxZ53+LTJhF9+c5wIReTrlxTxF86YFdVSrqMiLLRmiy+upFtRRraIsL99ilwsLJPyIHz7JU3uMaLVEtujxwgt56sizDr+LH+7JU3eM6JhEF/HDJXnqixFdkOg4fjghT7b1FMwdiXbhh93yNBgjeiLROvywXp6GY0QfJFqIHxbJ03iowDbKvqt52jUvxfparJG/xx/j8mZ3J5MNCn6MP4blzd6X4NnhNv4YjJlNk/n6PP6oxnzfki/oUfzRF1Nx3Fewx6Oxbnmzuiu4ylyFPzpiqvKk7p+PP9pD10nJSmwq58HN36YtdOWarI1ti8YrYyF7CcluxSP8MiSPmxoF7VXQFfxyNeTwtV9Bp/DL6Ywd0N/2WPfjlwPyeJmAXe+t+KUr4JTg51mIBS3DL8vl8WWjoAkHp1K1wGZep8XjUVtW+3UU9wNY5IVjWCP9OAAAAABJRU5ErkJggg==;" parent="1" vertex="1">
          <mxGeometry x="1015" y="50" width="20" height="20" as="geometry" />
        </mxCell>
        <mxCell id="qmEY1DGqFrO-wXTPjEkY-5" value="Home" style="text;html=1;strokeColor=none;fillColor=none;align=center;verticalAlign=middle;whiteSpace=wrap;rounded=0;" parent="1" vertex="1">
          <mxGeometry x="430" y="40" width="70" height="40" as="geometry" />
        </mxCell>
        <mxCell id="qmEY1DGqFrO-wXTPjEkY-6" value="Product" style="text;html=1;strokeColor=none;fillColor=none;align=center;verticalAlign=middle;whiteSpace=wrap;rounded=0;" parent="1" vertex="1">
          <mxGeometry x="510" y="40" width="70" height="40" as="geometry" />
        </mxCell>
        <mxCell id="qmEY1DGqFrO-wXTPjEkY-8" value="About Us" style="text;html=1;strokeColor=none;fillColor=none;align=center;verticalAlign=middle;whiteSpace=wrap;rounded=0;" parent="1" vertex="1">
          <mxGeometry x="590" y="40" width="70" height="40" as="geometry" />
        </mxCell>
        <mxCell id="qmEY1DGqFrO-wXTPjEkY-9" value="Contact Us" style="text;html=1;strokeColor=none;fillColor=none;align=center;verticalAlign=middle;whiteSpace=wrap;rounded=0;" parent="1" vertex="1">
          <mxGeometry x="660" y="40" width="90" height="40" as="geometry" />
        </mxCell>
        <mxCell id="vDZpL7-3cRqO_Faz27KP-1" value="" style="shape=cylinder3;whiteSpace=wrap;html=1;boundedLbl=1;backgroundOutline=1;size=15;" vertex="1" parent="1">
          <mxGeometry x="970" y="920" width="65" height="80" as="geometry" />
        </mxCell>
        <mxCell id="vDZpL7-3cRqO_Faz27KP-2" value="" style="shape=cylinder3;whiteSpace=wrap;html=1;boundedLbl=1;backgroundOutline=1;size=15;" vertex="1" parent="1">
          <mxGeometry x="630" y="920" width="65" height="80" as="geometry" />
        </mxCell>
        <mxCell id="vDZpL7-3cRqO_Faz27KP-3" value="" style="shape=cylinder3;whiteSpace=wrap;html=1;boundedLbl=1;backgroundOutline=1;size=15;" vertex="1" parent="1">
          <mxGeometry x="275" y="920" width="65" height="80" as="geometry" />
        </mxCell>
        <mxCell id="vDZpL7-3cRqO_Faz27KP-4" value="" style="rounded=1;whiteSpace=wrap;html=1;" vertex="1" parent="1">
          <mxGeometry x="230" y="600" width="490" height="240" as="geometry" />
        </mxCell>
        <mxCell id="vDZpL7-3cRqO_Faz27KP-5" value="&lt;h1&gt;Heading&lt;/h1&gt;&lt;p&gt;Lorem ipsum dolor sit amet, consectetur adipisicing elit, sed do eiusmod tempor incididunt ut labore et dolore magna aliqua.&lt;/p&gt;Lorem ipsum dolor sit amet, consectetur adipisicing elit, sed do eiusmod tempor incididunt ut labore et dolore magna aliqua.Lorem ipsum dolor sit amet, consectetur adipisicing elit, sed do eiusmod tempor incididunt ut labore et dolore magna aliqua.Lorem ipsum dolor sit amet, consectetur adipisicing elit, sed do eiusmod tempor incididunt ut labore et dolore magna aliqua." style="text;html=1;strokeColor=none;fillColor=none;spacing=5;spacingTop=-20;whiteSpace=wrap;overflow=hidden;rounded=0;" vertex="1" parent="1">
          <mxGeometry x="800" y="600" width="320" height="240" as="geometry" />
        </mxCell>
        <mxCell id="MRDq6ovh6rV1CWPjuyR2-1" value="Orders" style="text;html=1;strokeColor=none;fillColor=none;align=center;verticalAlign=middle;whiteSpace=wrap;rounded=0;" vertex="1" parent="1">
          <mxGeometry x="275" y="1020" width="60" height="30" as="geometry" />
        </mxCell>
        <mxCell id="MRDq6ovh6rV1CWPjuyR2-2" value="Deliverys" style="text;html=1;strokeColor=none;fillColor=none;align=center;verticalAlign=middle;whiteSpace=wrap;rounded=0;" vertex="1" parent="1">
          <mxGeometry x="630" y="1020" width="60" height="30" as="geometry" />
        </mxCell>
        <mxCell id="MRDq6ovh6rV1CWPjuyR2-3" value="Review" style="text;html=1;strokeColor=none;fillColor=none;align=center;verticalAlign=middle;whiteSpace=wrap;rounded=0;" vertex="1" parent="1">
          <mxGeometry x="975" y="1030" width="60" height="30" as="geometry" />
        </mxCell>
        <mxCell id="MRDq6ovh6rV1CWPjuyR2-4" value="" style="rounded=1;whiteSpace=wrap;html=1;" vertex="1" parent="1">
          <mxGeometry x="240" y="1210" width="680" height="40" as="geometry" />
        </mxCell>
        <mxCell id="MRDq6ovh6rV1CWPjuyR2-5" value="" style="rounded=1;whiteSpace=wrap;html=1;" vertex="1" parent="1">
          <mxGeometry x="240" y="1290" width="680" height="40" as="geometry" />
        </mxCell>
        <mxCell id="GoKu1tewhBtNoJxgXMEu-1" value="" style="rounded=1;whiteSpace=wrap;html=1;" vertex="1" parent="1">
          <mxGeometry x="240" y="1370" width="680" height="40" as="geometry" />
        </mxCell>
        <mxCell id="GoKu1tewhBtNoJxgXMEu-2" value="" style="rounded=1;whiteSpace=wrap;html=1;" vertex="1" parent="1">
          <mxGeometry x="240" y="1450" width="680" height="40" as="geometry" />
        </mxCell>
        <mxCell id="GoKu1tewhBtNoJxgXMEu-3" value="" style="triangle;whiteSpace=wrap;html=1;rotation=90;" vertex="1" parent="1">
          <mxGeometry x="855" y="1210" width="30" height="40" as="geometry" />
        </mxCell>
        <mxCell id="GoKu1tewhBtNoJxgXMEu-4" value="" style="triangle;whiteSpace=wrap;html=1;rotation=90;" vertex="1" parent="1">
          <mxGeometry x="855" y="1290" width="30" height="40" as="geometry" />
        </mxCell>
        <mxCell id="GoKu1tewhBtNoJxgXMEu-5" value="" style="triangle;whiteSpace=wrap;html=1;rotation=90;" vertex="1" parent="1">
          <mxGeometry x="855" y="1370" width="30" height="40" as="geometry" />
        </mxCell>
        <mxCell id="GoKu1tewhBtNoJxgXMEu-6" value="" style="triangle;whiteSpace=wrap;html=1;rotation=90;" vertex="1" parent="1">
          <mxGeometry x="855" y="1450" width="30" height="40" as="geometry" />
        </mxCell>
        <mxCell id="GoKu1tewhBtNoJxgXMEu-8" value="&lt;font style=&quot;font-size: 17px;&quot;&gt;FAQ About Cake Cove&lt;/font&gt;" style="text;html=1;strokeColor=none;fillColor=none;align=center;verticalAlign=middle;whiteSpace=wrap;rounded=0;" vertex="1" parent="1">
          <mxGeometry x="240" y="1140" width="210" height="30" as="geometry" />
        </mxCell>
        <mxCell id="atC6SXgB5PT_RDvDmD7F-1" value="" style="rounded=0;whiteSpace=wrap;html=1;movable=1;resizable=1;rotatable=1;deletable=1;editable=1;locked=0;connectable=1;dropTarget=0;container=0;" vertex="1" parent="1">
          <mxGeometry y="1590" width="1200" height="252" as="geometry" />
        </mxCell>
        <mxCell id="atC6SXgB5PT_RDvDmD7F-2" value="CakeCove" style="text;html=1;strokeColor=none;fillColor=none;align=center;verticalAlign=middle;whiteSpace=wrap;rounded=0;" vertex="1" parent="1">
          <mxGeometry x="50" y="1640" width="95" height="30" as="geometry" />
        </mxCell>
        <mxCell id="atC6SXgB5PT_RDvDmD7F-3" value="&lt;span style=&quot;color: rgb(78, 78, 78); font-family: Inter, BlinkMacSystemFont, &amp;quot;Segoe UI&amp;quot;, Roboto, Oxygen, Ubuntu, Cantarell, &amp;quot;Fira Sans&amp;quot;, &amp;quot;Droid Sans&amp;quot;, &amp;quot;Helvetica Neue&amp;quot;, sans-serif; font-size: 11.104px;&quot;&gt;Portions of this content are ©1881–2023 – Cake&lt;/span&gt;&lt;span style=&quot;color: rgb(78, 78, 78); font-family: Inter, BlinkMacSystemFont, &amp;quot;Segoe UI&amp;quot;, Roboto, Oxygen, Ubuntu, Cantarell, &amp;quot;Fira Sans&amp;quot;, &amp;quot;Droid Sans&amp;quot;, &amp;quot;Helvetica Neue&amp;quot;, sans-serif; font-size: 11.104px;&quot;&gt;Cove&lt;/span&gt;" style="text;html=1;strokeColor=none;fillColor=none;align=left;verticalAlign=middle;whiteSpace=wrap;rounded=0;labelBackgroundColor=none;" vertex="1" parent="1">
          <mxGeometry x="435" y="1770" width="270" height="38" as="geometry" />
        </mxCell>
        <mxCell id="atC6SXgB5PT_RDvDmD7F-4" value="" style="ellipse;whiteSpace=wrap;html=1;aspect=fixed;" vertex="1" parent="1">
          <mxGeometry x="1055" y="1740" width="40" height="40" as="geometry" />
        </mxCell>
        <mxCell id="atC6SXgB5PT_RDvDmD7F-5" value="" style="ellipse;whiteSpace=wrap;html=1;aspect=fixed;" vertex="1" parent="1">
          <mxGeometry x="1055" y="1610" width="40" height="40" as="geometry" />
        </mxCell>
        <mxCell id="atC6SXgB5PT_RDvDmD7F-6" value="" style="ellipse;whiteSpace=wrap;html=1;aspect=fixed;" vertex="1" parent="1">
          <mxGeometry x="1055" y="1670" width="40" height="40" as="geometry" />
        </mxCell>
        <mxCell id="atC6SXgB5PT_RDvDmD7F-7" value="Home" style="text;html=1;strokeColor=none;fillColor=none;align=center;verticalAlign=middle;whiteSpace=wrap;rounded=0;" vertex="1" parent="1">
          <mxGeometry x="55" y="1710" width="60" height="30" as="geometry" />
        </mxCell>
        <mxCell id="atC6SXgB5PT_RDvDmD7F-8" value="Product" style="text;html=1;strokeColor=none;fillColor=none;align=center;verticalAlign=middle;whiteSpace=wrap;rounded=0;" vertex="1" parent="1">
          <mxGeometry x="135" y="1710" width="60" height="30" as="geometry" />
        </mxCell>
        <mxCell id="atC6SXgB5PT_RDvDmD7F-9" value="About" style="text;html=1;strokeColor=none;fillColor=none;align=center;verticalAlign=middle;whiteSpace=wrap;rounded=0;" vertex="1" parent="1">
          <mxGeometry x="215" y="1710" width="60" height="30" as="geometry" />
        </mxCell>
        <mxCell id="atC6SXgB5PT_RDvDmD7F-10" value="Contact" style="text;html=1;strokeColor=none;fillColor=none;align=center;verticalAlign=middle;whiteSpace=wrap;rounded=0;" vertex="1" parent="1">
          <mxGeometry x="290" y="1710" width="60" height="30" as="geometry" />
        </mxCell>
        <mxCell id="atC6SXgB5PT_RDvDmD7F-11" value="&lt;font color=&quot;#999999&quot; style=&quot;font-size: 21px;&quot;&gt;yourname@example.com&lt;/font&gt;" style="rounded=1;whiteSpace=wrap;html=1;align=left;" vertex="1" parent="1">
          <mxGeometry x="370" y="1630" width="305" height="60" as="geometry" />
        </mxCell>
        <mxCell id="atC6SXgB5PT_RDvDmD7F-12" value="&lt;font style=&quot;font-size: 17px;&quot;&gt;SubScribe&lt;/font&gt;" style="rounded=1;whiteSpace=wrap;html=1;" vertex="1" parent="1">
          <mxGeometry x="695" y="1630" width="120" height="60" as="geometry" />
        </mxCell>
        <mxCell id="tP-URYEri-w03wPDcws0-1" value="" style="rounded=1;whiteSpace=wrap;html=1;" vertex="1" parent="1">
          <mxGeometry x="195" y="170" width="900" height="340" as="geometry" />
        </mxCell>
        <mxCell id="tP-URYEri-w03wPDcws0-2" value="" style="triangle;whiteSpace=wrap;html=1;rotation=0;" vertex="1" parent="1">
          <mxGeometry x="633.75" y="310" width="60" height="80" as="geometry" />
        </mxCell>
      </root>
    </mxGraphModel>
  </diagram>
  <diagram name="contact_us" id="w7Egmjymwp8ZgM2u23JS">
    <mxGraphModel dx="4173" dy="2350" grid="1" gridSize="10" guides="1" tooltips="1" connect="1" arrows="1" fold="1" page="1" pageScale="1" pageWidth="1200" pageHeight="1920" math="0" shadow="0">
      <root>
        <mxCell id="rQ8qsEqDv_wKgGIWciBQ-0" />
        <mxCell id="rQ8qsEqDv_wKgGIWciBQ-1" parent="rQ8qsEqDv_wKgGIWciBQ-0" />
        <mxCell id="rQ8qsEqDv_wKgGIWciBQ-46" value="Subscribe to Our News Letter" style="rounded=1;whiteSpace=wrap;html=1;align=center;" parent="rQ8qsEqDv_wKgGIWciBQ-1" vertex="1">
          <mxGeometry x="279" y="960" width="400" height="40" as="geometry" />
        </mxCell>
        <mxCell id="rQ8qsEqDv_wKgGIWciBQ-47" value="&lt;font style=&quot;font-size: 19px;&quot;&gt;Subscribe&lt;/font&gt;" style="rounded=1;whiteSpace=wrap;html=1;" parent="rQ8qsEqDv_wKgGIWciBQ-1" vertex="1">
          <mxGeometry x="719" y="960" width="160" height="40" as="geometry" />
        </mxCell>
        <mxCell id="bsdRk4pSXZeLKEqFgTDM-2" value="&lt;font style=&quot;font-size: 20px;&quot;&gt;&amp;nbsp; &amp;nbsp; Full Name&lt;/font&gt;" style="rounded=1;whiteSpace=wrap;html=1;align=left;" parent="rQ8qsEqDv_wKgGIWciBQ-1" vertex="1">
          <mxGeometry x="279" y="200" width="638.5" height="40" as="geometry" />
        </mxCell>
        <mxCell id="bsdRk4pSXZeLKEqFgTDM-3" value="&lt;font style=&quot;font-size: 18px;&quot;&gt;&amp;nbsp; &amp;nbsp; Your Email or Phone Number&lt;/font&gt;" style="rounded=1;whiteSpace=wrap;html=1;align=left;" parent="rQ8qsEqDv_wKgGIWciBQ-1" vertex="1">
          <mxGeometry x="279" y="270" width="638.5" height="40" as="geometry" />
        </mxCell>
        <mxCell id="bsdRk4pSXZeLKEqFgTDM-4" value="&lt;font style=&quot;font-size: 22px;&quot;&gt;&amp;nbsp; &amp;nbsp;Select the branch suitable to your question&lt;/font&gt;" style="rounded=1;whiteSpace=wrap;html=1;align=left;" parent="rQ8qsEqDv_wKgGIWciBQ-1" vertex="1">
          <mxGeometry x="279" y="342.5" width="638.5" height="40" as="geometry" />
        </mxCell>
        <mxCell id="bsdRk4pSXZeLKEqFgTDM-5" value="" style="triangle;whiteSpace=wrap;html=1;rotation=90;" parent="rQ8qsEqDv_wKgGIWciBQ-1" vertex="1">
          <mxGeometry x="879.5" y="350" width="20" height="25" as="geometry" />
        </mxCell>
        <mxCell id="bsdRk4pSXZeLKEqFgTDM-6" value="" style="rounded=1;whiteSpace=wrap;html=1;" parent="rQ8qsEqDv_wKgGIWciBQ-1" vertex="1">
          <mxGeometry x="272.5" y="420" width="645" height="240" as="geometry" />
        </mxCell>
        <mxCell id="bsdRk4pSXZeLKEqFgTDM-7" value="&lt;font style=&quot;font-size: 17px;&quot;&gt;Send Botton&lt;/font&gt;" style="rounded=1;whiteSpace=wrap;html=1;" parent="rQ8qsEqDv_wKgGIWciBQ-1" vertex="1">
          <mxGeometry x="477.5" y="720" width="202" height="40" as="geometry" />
        </mxCell>
        <mxCell id="M7fIntefrAxEa325hg5T-0" value="" style="rounded=0;whiteSpace=wrap;html=1;movable=1;resizable=1;rotatable=1;deletable=1;editable=1;locked=0;connectable=1;dropTarget=0;container=0;" parent="rQ8qsEqDv_wKgGIWciBQ-1" vertex="1">
          <mxGeometry x="120" y="1520" width="990" height="252" as="geometry" />
        </mxCell>
        <mxCell id="M7fIntefrAxEa325hg5T-1" value="CakeCove" style="text;html=1;strokeColor=none;fillColor=none;align=center;verticalAlign=middle;whiteSpace=wrap;rounded=0;" parent="rQ8qsEqDv_wKgGIWciBQ-1" vertex="1">
          <mxGeometry x="130" y="1560" width="95" height="30" as="geometry" />
        </mxCell>
        <mxCell id="M7fIntefrAxEa325hg5T-2" value="&lt;span style=&quot;color: rgb(78, 78, 78); font-family: Inter, BlinkMacSystemFont, &amp;quot;Segoe UI&amp;quot;, Roboto, Oxygen, Ubuntu, Cantarell, &amp;quot;Fira Sans&amp;quot;, &amp;quot;Droid Sans&amp;quot;, &amp;quot;Helvetica Neue&amp;quot;, sans-serif; font-size: 11.104px;&quot;&gt;Portions of this content are ©1881–2023 – Cake&lt;/span&gt;&lt;span style=&quot;color: rgb(78, 78, 78); font-family: Inter, BlinkMacSystemFont, &amp;quot;Segoe UI&amp;quot;, Roboto, Oxygen, Ubuntu, Cantarell, &amp;quot;Fira Sans&amp;quot;, &amp;quot;Droid Sans&amp;quot;, &amp;quot;Helvetica Neue&amp;quot;, sans-serif; font-size: 11.104px;&quot;&gt;Cove&lt;/span&gt;" style="text;html=1;strokeColor=none;fillColor=none;align=left;verticalAlign=middle;whiteSpace=wrap;rounded=0;labelBackgroundColor=none;" parent="rQ8qsEqDv_wKgGIWciBQ-1" vertex="1">
          <mxGeometry x="433.5" y="1700" width="270" height="38" as="geometry" />
        </mxCell>
        <mxCell id="M7fIntefrAxEa325hg5T-3" value="" style="ellipse;whiteSpace=wrap;html=1;aspect=fixed;" parent="rQ8qsEqDv_wKgGIWciBQ-1" vertex="1">
          <mxGeometry x="1053.5" y="1670" width="40" height="40" as="geometry" />
        </mxCell>
        <mxCell id="M7fIntefrAxEa325hg5T-4" value="" style="ellipse;whiteSpace=wrap;html=1;aspect=fixed;" parent="rQ8qsEqDv_wKgGIWciBQ-1" vertex="1">
          <mxGeometry x="1053.5" y="1540" width="40" height="40" as="geometry" />
        </mxCell>
        <mxCell id="M7fIntefrAxEa325hg5T-5" value="" style="ellipse;whiteSpace=wrap;html=1;aspect=fixed;" parent="rQ8qsEqDv_wKgGIWciBQ-1" vertex="1">
          <mxGeometry x="1053.5" y="1600" width="40" height="40" as="geometry" />
        </mxCell>
        <mxCell id="M7fIntefrAxEa325hg5T-6" value="Home" style="text;html=1;strokeColor=none;fillColor=none;align=center;verticalAlign=middle;whiteSpace=wrap;rounded=0;" parent="rQ8qsEqDv_wKgGIWciBQ-1" vertex="1">
          <mxGeometry x="130" y="1640" width="60" height="30" as="geometry" />
        </mxCell>
        <mxCell id="M7fIntefrAxEa325hg5T-7" value="Product" style="text;html=1;strokeColor=none;fillColor=none;align=center;verticalAlign=middle;whiteSpace=wrap;rounded=0;" parent="rQ8qsEqDv_wKgGIWciBQ-1" vertex="1">
          <mxGeometry x="190" y="1640" width="60" height="30" as="geometry" />
        </mxCell>
        <mxCell id="M7fIntefrAxEa325hg5T-8" value="About" style="text;html=1;strokeColor=none;fillColor=none;align=center;verticalAlign=middle;whiteSpace=wrap;rounded=0;" parent="rQ8qsEqDv_wKgGIWciBQ-1" vertex="1">
          <mxGeometry x="260" y="1640" width="60" height="30" as="geometry" />
        </mxCell>
        <mxCell id="M7fIntefrAxEa325hg5T-9" value="Contact" style="text;html=1;strokeColor=none;fillColor=none;align=center;verticalAlign=middle;whiteSpace=wrap;rounded=0;" parent="rQ8qsEqDv_wKgGIWciBQ-1" vertex="1">
          <mxGeometry x="345" y="1640" width="60" height="30" as="geometry" />
        </mxCell>
        <mxCell id="M7fIntefrAxEa325hg5T-10" value="&lt;font color=&quot;#999999&quot; style=&quot;font-size: 21px;&quot;&gt;yourname@example.com&lt;/font&gt;" style="rounded=1;whiteSpace=wrap;html=1;align=left;" parent="rQ8qsEqDv_wKgGIWciBQ-1" vertex="1">
          <mxGeometry x="368.5" y="1560" width="305" height="60" as="geometry" />
        </mxCell>
        <mxCell id="M7fIntefrAxEa325hg5T-11" value="&lt;font style=&quot;font-size: 17px;&quot;&gt;SubScribe&lt;/font&gt;" style="rounded=1;whiteSpace=wrap;html=1;" parent="rQ8qsEqDv_wKgGIWciBQ-1" vertex="1">
          <mxGeometry x="693.5" y="1560" width="120" height="60" as="geometry" />
        </mxCell>
        <mxCell id="c-2eJdn0twR-lIy99uOP-0" value="" style="rounded=0;whiteSpace=wrap;html=1;" parent="rQ8qsEqDv_wKgGIWciBQ-1" vertex="1">
          <mxGeometry x="70" y="40" width="1090" height="40" as="geometry" />
        </mxCell>
        <mxCell id="c-2eJdn0twR-lIy99uOP-1" value="&lt;font style=&quot;font-size: 14px;&quot;&gt;CakeCove&lt;/font&gt;" style="text;html=1;strokeColor=none;fillColor=none;align=center;verticalAlign=middle;whiteSpace=wrap;rounded=0;" parent="rQ8qsEqDv_wKgGIWciBQ-1" vertex="1">
          <mxGeometry x="80" y="40" width="70" height="40" as="geometry" />
        </mxCell>
        <mxCell id="c-2eJdn0twR-lIy99uOP-2" value="" style="shape=image;verticalLabelPosition=bottom;labelBackgroundColor=default;verticalAlign=top;aspect=fixed;imageAspect=0;image=data:image/png,iVBORw0KGgoAAAANSUhEUgAAAEAAAABACAYAAACqaXHeAAAACXBIWXMAAAsTAAALEwEAmpwYAAAC9UlEQVR4nO2azWsTQRTAf1tjKeLHRawV/QMEFbT2JvQgaqioNzF+oHioeLQN1YPeFARtTfHUu58HT3r3KFoJBT2o6KnVKqKHpopfNTLwAsO4iZtss8ms7wdDlsnMmzeZN++9mQ0oiqIoiqIoiqIoiRAAvcAR4IwU87xNvksta4EC8BYoVynmu2tANykiAEaA+RoTd0sJyKfBIrqA2yETnJX6UWBMnmdD2t0SGV4ShEz+KbAb6Ahpb+r2AMWQH8FLSxhxJmJWekmEfhnxFXbfYTxjDTBnTcCYer2MOz7BOFFvKDhmH2Xlwyyh6FiQFwROqDN7vlGylpwZX3zBdkvpd1UcXlRM3/eWPJMstT2HLYVNFIjLXUveITwgbyl8ZRHkXfUtGgxbChvl4zJqyRvCA3L/+xbodVLeuE7wgyVvKx6GwWwMWQOWnGlfwiBypK0oXpSkpl5Mn6mY2WTbpMKFBmRcd1Jh7+4I8s6BZjyiJWScyZfl1sg7AjnKlp3tkK1xHB5wzN6UGz7tfZeukB+hLOntHTngjEmos719pdz0+UKkQiDJUamOK7E5MXtvVz6MblntmRoTnxZvb5xoagkkoclZ1+I5qUvViiuK8hedQB9wEBgEzkoZlLo+aZMqNgOXgEnge4QQaNo8AS4Cm/CUpcBJ4Hkdsb9aeQacaPBA1RKOAm+qTOY38AK4B0wAl6VMSN1LaRPW97XcN7Yt64AHIYqXJJ/fB6yKIMe02S9pcFj2eB/ooc3YBXx2FP0oDm55DLmm7zmRZcv+BOykTTgO/LCUW5Cjb5yJu6wQmQuOszxGiznt7FmTy/c3cbx+GcP2KadoEXuBn5YyxuNvSGDcHued4S/gAAmzxfnHx2REB7dYrAQeW+PPS76RCBl541sZ3Bxv15M8q4FXlh5Tkn80nfPWoN/EGlrFRuCrpY/Rral0AF+sAS/QeoacrRDnRUwkKnvvUVIm9w/Mny8eWr6o6SwDdshnu9ApIdLkC4qiKIqiKAoR+ANHc0fJ9QoTfAAAAABJRU5ErkJggg==;" parent="rQ8qsEqDv_wKgGIWciBQ-1" vertex="1">
          <mxGeometry x="1070" y="45" width="30" height="30" as="geometry" />
        </mxCell>
        <mxCell id="c-2eJdn0twR-lIy99uOP-3" value="" style="shape=image;verticalLabelPosition=bottom;labelBackgroundColor=default;verticalAlign=top;aspect=fixed;imageAspect=0;image=data:image/png,iVBORw0KGgoAAAANSUhEUgAAADIAAAAyCAYAAAAeP4ixAAAACXBIWXMAAAsTAAALEwEAmpwYAAACrUlEQVR4nO2ZO4xMURjHf1YyjalorAqVkXg0VuFViA2xGla2oGIlXhGroluFR8Go6GzhHatCRWM7q/Co2MSuhFgVjV2yEhn55H/lkp2559wZe7+IX3KSyZzv/93/yb333O+cA/+pSwnoAW4Cr4AJNft9Q30W45qdwBhQy2ijwA4cMhuopow+BQ4DFWCOWkX/PUvFnZPWDVUZ+wrsAWY1iG0DehWbDMbN41QDvgBrInRrU4PZTsGUUu+E3YlY9kn7uugJoCf1TtgjE4tpniuH3dnCuCUTh5rIcUQ5rlMgIzKxpIkcS5XDvjOF8Vkmyk3kKCuH5SqM5HvgJc+/P5DJgHJjptpk3kHMc2C+9kebm2cgKwNmk5l6tEbUvyJP8m0SP2jCQChZeR6qvytP8oMSD9Tp35gyYL/zEpJnQP3mKZqzEvfX6R9NGbBaKS8heU6q/0yeC1yT2Eru6XiXMvA2zwUi8vSq3zxFMyRxZ53+LTJhF9+c5wIReTrlxTxF86YFdVSrqMiLLRmiy+upFtRRraIsL99ilwsLJPyIHz7JU3uMaLVEtujxwgt56sizDr+LH+7JU3eM6JhEF/HDJXnqixFdkOg4fjghT7b1FMwdiXbhh93yNBgjeiLROvywXp6GY0QfJFqIHxbJ03iowDbKvqt52jUvxfparJG/xx/j8mZ3J5MNCn6MP4blzd6X4NnhNv4YjJlNk/n6PP6oxnzfki/oUfzRF1Nx3Fewx6Oxbnmzuiu4ylyFPzpiqvKk7p+PP9pD10nJSmwq58HN36YtdOWarI1ti8YrYyF7CcluxSP8MiSPmxoF7VXQFfxyNeTwtV9Bp/DL6Ywd0N/2WPfjlwPyeJmAXe+t+KUr4JTg51mIBS3DL8vl8WWjoAkHp1K1wGZep8XjUVtW+3UU9wNY5IVjWCP9OAAAAABJRU5ErkJggg==;" parent="rQ8qsEqDv_wKgGIWciBQ-1" vertex="1">
          <mxGeometry x="1020" y="50" width="20" height="20" as="geometry" />
        </mxCell>
        <mxCell id="c-2eJdn0twR-lIy99uOP-4" value="Home" style="text;html=1;strokeColor=none;fillColor=none;align=center;verticalAlign=middle;whiteSpace=wrap;rounded=0;" parent="rQ8qsEqDv_wKgGIWciBQ-1" vertex="1">
          <mxGeometry x="345" y="40" width="70" height="40" as="geometry" />
        </mxCell>
        <mxCell id="c-2eJdn0twR-lIy99uOP-5" value="Product" style="text;html=1;strokeColor=none;fillColor=none;align=center;verticalAlign=middle;whiteSpace=wrap;rounded=0;" parent="rQ8qsEqDv_wKgGIWciBQ-1" vertex="1">
          <mxGeometry x="430" y="40" width="70" height="40" as="geometry" />
        </mxCell>
        <mxCell id="c-2eJdn0twR-lIy99uOP-6" value="Gallery" style="text;html=1;strokeColor=none;fillColor=none;align=center;verticalAlign=middle;whiteSpace=wrap;rounded=0;" parent="rQ8qsEqDv_wKgGIWciBQ-1" vertex="1">
          <mxGeometry x="510" y="40" width="70" height="40" as="geometry" />
        </mxCell>
        <mxCell id="c-2eJdn0twR-lIy99uOP-7" value="About Us" style="text;html=1;strokeColor=none;fillColor=none;align=center;verticalAlign=middle;whiteSpace=wrap;rounded=0;" parent="rQ8qsEqDv_wKgGIWciBQ-1" vertex="1">
          <mxGeometry x="580" y="40" width="70" height="40" as="geometry" />
        </mxCell>
        <mxCell id="c-2eJdn0twR-lIy99uOP-8" value="Contact Us" style="text;html=1;strokeColor=none;fillColor=none;align=center;verticalAlign=middle;whiteSpace=wrap;rounded=0;" parent="rQ8qsEqDv_wKgGIWciBQ-1" vertex="1">
          <mxGeometry x="660" y="40" width="90" height="40" as="geometry" />
        </mxCell>
        <mxCell id="_YEYLEg34SzePRPFU_P4-1" value="" style="rounded=0;whiteSpace=wrap;html=1;" vertex="1" parent="rQ8qsEqDv_wKgGIWciBQ-1">
          <mxGeometry x="200" y="1080" width="844.5" height="370" as="geometry" />
        </mxCell>
        <mxCell id="_YEYLEg34SzePRPFU_P4-3" value="&lt;font style=&quot;font-size: 18px;&quot;&gt;Map&lt;/font&gt;" style="text;html=1;strokeColor=none;fillColor=none;align=center;verticalAlign=middle;whiteSpace=wrap;rounded=0;" vertex="1" parent="rQ8qsEqDv_wKgGIWciBQ-1">
          <mxGeometry x="614" y="1220" width="60" height="30" as="geometry" />
        </mxCell>
        <mxCell id="_YEYLEg34SzePRPFU_P4-4" style="edgeStyle=orthogonalEdgeStyle;rounded=0;orthogonalLoop=1;jettySize=auto;html=1;exitX=0.5;exitY=1;exitDx=0;exitDy=0;strokeWidth=2;" edge="1" parent="rQ8qsEqDv_wKgGIWciBQ-1" source="_YEYLEg34SzePRPFU_P4-3" target="_YEYLEg34SzePRPFU_P4-3">
          <mxGeometry relative="1" as="geometry" />
        </mxCell>
      </root>
    </mxGraphModel>
  </diagram>
  <diagram id="K09csS_A-UclZHsMKKyG" name="login_register">
    <mxGraphModel dx="1426" dy="793" grid="1" gridSize="10" guides="1" tooltips="1" connect="1" arrows="1" fold="1" page="1" pageScale="1" pageWidth="1200" pageHeight="1920" math="0" shadow="0">
      <root>
        <mxCell id="0" />
        <mxCell id="1" parent="0" />
        <mxCell id="uB8stE_nZeS71T9XruUY-1" value="" style="rounded=0;whiteSpace=wrap;html=1;" parent="1" vertex="1">
          <mxGeometry x="50" y="40" width="1090" height="40" as="geometry" />
        </mxCell>
        <mxCell id="uB8stE_nZeS71T9XruUY-2" value="&lt;font style=&quot;font-size: 14px;&quot;&gt;CakeCove&lt;/font&gt;" style="text;html=1;strokeColor=none;fillColor=none;align=center;verticalAlign=middle;whiteSpace=wrap;rounded=0;" parent="1" vertex="1">
          <mxGeometry x="60" y="40" width="70" height="40" as="geometry" />
        </mxCell>
        <mxCell id="uB8stE_nZeS71T9XruUY-3" value="&amp;nbsp; search ..." style="rounded=1;whiteSpace=wrap;html=1;strokeWidth=1;perimeterSpacing=4;align=left;" parent="1" vertex="1">
          <mxGeometry x="850" y="45" width="230" height="30" as="geometry" />
        </mxCell>
        <mxCell id="uB8stE_nZeS71T9XruUY-4" value="" style="shape=image;verticalLabelPosition=bottom;labelBackgroundColor=default;verticalAlign=top;aspect=fixed;imageAspect=0;image=data:image/png,iVBORw0KGgoAAAANSUhEUgAAAEAAAABACAYAAACqaXHeAAAACXBIWXMAAAsTAAALEwEAmpwYAAAC9UlEQVR4nO2azWsTQRTAf1tjKeLHRawV/QMEFbT2JvQgaqioNzF+oHioeLQN1YPeFARtTfHUu58HT3r3KFoJBT2o6KnVKqKHpopfNTLwAsO4iZtss8ms7wdDlsnMmzeZN++9mQ0oiqIoiqIoiqIoiRAAvcAR4IwU87xNvksta4EC8BYoVynmu2tANykiAEaA+RoTd0sJyKfBIrqA2yETnJX6UWBMnmdD2t0SGV4ShEz+KbAb6Ahpb+r2AMWQH8FLSxhxJmJWekmEfhnxFXbfYTxjDTBnTcCYer2MOz7BOFFvKDhmH2Xlwyyh6FiQFwROqDN7vlGylpwZX3zBdkvpd1UcXlRM3/eWPJMstT2HLYVNFIjLXUveITwgbyl8ZRHkXfUtGgxbChvl4zJqyRvCA3L/+xbodVLeuE7wgyVvKx6GwWwMWQOWnGlfwiBypK0oXpSkpl5Mn6mY2WTbpMKFBmRcd1Jh7+4I8s6BZjyiJWScyZfl1sg7AjnKlp3tkK1xHB5wzN6UGz7tfZeukB+hLOntHTngjEmos719pdz0+UKkQiDJUamOK7E5MXtvVz6MblntmRoTnxZvb5xoagkkoclZ1+I5qUvViiuK8hedQB9wEBgEzkoZlLo+aZMqNgOXgEnge4QQaNo8AS4Cm/CUpcBJ4Hkdsb9aeQacaPBA1RKOAm+qTOY38AK4B0wAl6VMSN1LaRPW97XcN7Yt64AHIYqXJJ/fB6yKIMe02S9pcFj2eB/ooc3YBXx2FP0oDm55DLmm7zmRZcv+BOykTTgO/LCUW5Cjb5yJu6wQmQuOszxGiznt7FmTy/c3cbx+GcP2KadoEXuBn5YyxuNvSGDcHued4S/gAAmzxfnHx2REB7dYrAQeW+PPS76RCBl541sZ3Bxv15M8q4FXlh5Tkn80nfPWoN/EGlrFRuCrpY/Rral0AF+sAS/QeoacrRDnRUwkKnvvUVIm9w/Mny8eWr6o6SwDdshnu9ApIdLkC4qiKIqiKAoR+ANHc0fJ9QoTfAAAAABJRU5ErkJggg==;" parent="1" vertex="1">
          <mxGeometry x="1090" y="45" width="30" height="30" as="geometry" />
        </mxCell>
        <mxCell id="uB8stE_nZeS71T9XruUY-5" value="" style="shape=image;verticalLabelPosition=bottom;labelBackgroundColor=default;verticalAlign=top;aspect=fixed;imageAspect=0;image=data:image/png,iVBORw0KGgoAAAANSUhEUgAAAB4AAAAeCAYAAAA7MK6iAAAACXBIWXMAAAsTAAALEwEAmpwYAAABaUlEQVR4nO2Wz0pCQRjFf2i6ydop9ArZO1T7FhrlK0TSH+spxNcw61GCaJMFJZn71rqolfHBufBtwjtzLxLkgYELM+ecud98cxhY4Q+hDLSAW+ANmGnY90BztiZXHAIfwHzBGAPNPAwLQM8JPwEXwDawrlEHLoGhW9cVNxo9CX0BJwvEbO5UaxPz6PLOJbQbwNtz5o1Q07I7U/vTULTFfQdKIcSWO9OYsyoCz9I4CiHeiXROPDrSuAkhjUSy7o1FXRp2z1NjKlIlg/GGNKbLNt6MMR7lUOod19mpMRDJEikW19Lox1ynYYbr9CKN49AAGYtoMRiKM3EnwFooueki02IwLfaBb3EPiETXmbdVwt9Q1J8mpp9ANda44MznisGOwqGiYd175c40MU3W18iAhq7FoofAROWtuqzObF5S4Fv2vioYZtpQX93rG6mWp3koqu5lYpvd4r+Y11zZH5ZpnJg/AvfLNl4Bww/dcoIlpDH7/gAAAABJRU5ErkJggg==;" parent="1" vertex="1">
          <mxGeometry x="1050" y="50" width="20" height="20" as="geometry" />
        </mxCell>
        <mxCell id="uB8stE_nZeS71T9XruUY-6" value="" style="rounded=0;whiteSpace=wrap;html=1;strokeColor=default;" parent="1" vertex="1">
          <mxGeometry x="50" y="80" width="1090" height="40" as="geometry" />
        </mxCell>
        <mxCell id="uB8stE_nZeS71T9XruUY-7" value="About Us" style="text;html=1;strokeColor=none;fillColor=none;align=center;verticalAlign=middle;whiteSpace=wrap;rounded=0;" parent="1" vertex="1">
          <mxGeometry x="880" y="80" width="60" height="40" as="geometry" />
        </mxCell>
        <mxCell id="uB8stE_nZeS71T9XruUY-8" value="Contact Us" style="text;html=1;strokeColor=none;fillColor=none;align=center;verticalAlign=middle;whiteSpace=wrap;rounded=0;" parent="1" vertex="1">
          <mxGeometry x="940" y="80" width="70" height="40" as="geometry" />
        </mxCell>
        <mxCell id="uB8stE_nZeS71T9XruUY-9" value="07319181734" style="text;html=1;strokeColor=none;fillColor=none;align=left;verticalAlign=middle;whiteSpace=wrap;rounded=0;" parent="1" vertex="1">
          <mxGeometry x="1040" y="80" width="80" height="40" as="geometry" />
        </mxCell>
        <mxCell id="uB8stE_nZeS71T9XruUY-10" value="" style="shape=image;verticalLabelPosition=bottom;labelBackgroundColor=default;verticalAlign=top;aspect=fixed;imageAspect=0;image=data:image/png,iVBORw0KGgoAAAANSUhEUgAAACAAAAAgCAYAAABzenr0AAAACXBIWXMAAAsTAAALEwEAmpwYAAACC0lEQVR4nO2WTUhUURiGn/Evf6aESnAR6lBSKVHtBkKXCa5aiAtduVGiZbRIN+1cirQKF4JRJLgoSqjUIFrook0juDGKtNAKBDH6m5qJA+/A5+WOFXPPMAtfuIv7nXO+973n+7uwjxJGHLgN7ABLwNliktcAz4CsebaA88UgrwaeiPQDcAZ4pPdN4JRP8nJDtgGclP0A8NiIOuFLwA2RfATaQsIyr/V3wDEfAj6LIJlnvQ54rj33oyaPAd/kvH6PfRe0Zx0PmJPzy3nWXUJ+0p5xHwJ65fyVbiQf+QOgyoeAKl2tI+kx9jJlv7M/9EWew5CIVlSWOUzJPolnVAKvRXbF2E8Dv4FfQLtvEZckwM2BhLHflP2lmpNX3BHZgknIg8Ab2aeVG95wRO3YkY0EQrEl+wxQG3LWlfGiRDYVIqJbcc8AfcbeYUQsA+fM2mhgir4FWgoRMSJH34FOYz8OpLTmEvMWMKb3NDAAvIhCRAyYMP8EycCAcl/803xx2vSQeFQiyoF7cvRFobFwY/uubsk2sDARzYWImDBXfj2kCg7lOWtFuGlKIeEYVmJm5bT1H88mFKofIXPmv9EFvJeIr8C1v8yHBpOws0SEemV+Ro7XgEGgYg9yN18aiRgX1QtyVeA65VXgqP4dc+QpifGCMqAfWA00oWwxyIOV4gbZU+XGtirn8K5d+ygl/AE3xpvuGHiprQAAAABJRU5ErkJggg==;" parent="1" vertex="1">
          <mxGeometry x="1020" y="90" width="20" height="20" as="geometry" />
        </mxCell>
        <mxCell id="uB8stE_nZeS71T9XruUY-11" value="Franchise" style="text;html=1;strokeColor=none;fillColor=none;align=center;verticalAlign=middle;whiteSpace=wrap;rounded=0;" parent="1" vertex="1">
          <mxGeometry x="820" y="80" width="60" height="40" as="geometry" />
        </mxCell>
        <mxCell id="uB8stE_nZeS71T9XruUY-12" value="Our Stores" style="text;html=1;strokeColor=none;fillColor=none;align=center;verticalAlign=middle;whiteSpace=wrap;rounded=0;" parent="1" vertex="1">
          <mxGeometry x="740" y="80" width="70" height="40" as="geometry" />
        </mxCell>
        <mxCell id="uB8stE_nZeS71T9XruUY-13" value="" style="rounded=0;whiteSpace=wrap;html=1;movable=1;resizable=1;rotatable=1;deletable=1;editable=1;locked=0;connectable=1;dropTarget=0;container=0;" parent="1" vertex="1">
          <mxGeometry y="1280" width="1200" height="468" as="geometry" />
        </mxCell>
        <mxCell id="uB8stE_nZeS71T9XruUY-14" value="CakeCove" style="text;html=1;strokeColor=none;fillColor=none;align=center;verticalAlign=middle;whiteSpace=wrap;rounded=0;" parent="1" vertex="1">
          <mxGeometry x="45" y="1305" width="95" height="30" as="geometry" />
        </mxCell>
        <mxCell id="uB8stE_nZeS71T9XruUY-15" value="" style="rounded=0;whiteSpace=wrap;html=1;strokeColor=#000000;" parent="1" vertex="1">
          <mxGeometry x="65" y="1490" width="420" height="220" as="geometry" />
        </mxCell>
        <mxCell id="uB8stE_nZeS71T9XruUY-16" value="" style="shape=image;verticalLabelPosition=bottom;labelBackgroundColor=default;verticalAlign=top;aspect=fixed;imageAspect=0;image=data:image/png,iVBORw0KGgoAAAANSUhEUgAAADIAAAAyCAYAAAAeP4ixAAAACXBIWXMAAAsTAAALEwEAmpwYAAADuElEQVR4nO2ZWYiOURjHfzRkmbHPZOJCWYZCiNwoW7JEGtkaV24VuZG9xnZBcodsxYWILJESLiQiDLIklEhqLFnGvoxPR/+3TtN8531f3znffCO/euvr/f7vc/bnOec58J9G6QBUAbuAq8BL4Luel3q3E5gLlFCAVAB7gM9AJuHzCdgN9KUAaAdsBn6ocr/U6yuB0Wpgez0VercKuCZtRqO1CWjTVI0wPXlHlakH9gO9U3zfBzhgNegyUE6eGao5byrwABiWg63hwEPZegYMJo8jETXiDNDZg80uwFmrMeX5WBN3rEYUebTdCjhnTbOga2azNZ18jERjI/NIZawhEBXyTvU5rok4RsgBfAS6hyhgj3rKeKfQHFRZ20JE7E/qqSQutgxYB9xUz5rnBrAWKE3oUH7pu2I8UqUeMsEujplAnSOivwdmJLBzXfo5eGSXjJqIHdeIKMAdUySPIvsY4LgVQCtjbK2WdofHdvwZiYwq5ppO0UgsceiWSvMO6ObQjZXuCh55JaP9HJp11kjEcSKBi+0nzQs88k1GXVvvWwlGrWFvGweQjRJpvuKRLzLqirYfpEniZaJKmqno2kVkdDTwRq2MugJUXYqGdLA8WDZ6SPMcj9yX0YEOzU1pjHeKY5y0NQ7NEGnu4pGTMjrboVkrzfEU9qodmnnSHMUjG2R0vUNTqqmSkYvNxnJp3gJdHbqNCRqbmtkyarbZLmYo2GXkYsdqzRRrOkUjYTTTY2xdlDZOl4oyFf5V3sRFpYJdti3K2wSV66Sdtnk64pkbqsiUBNpuCnY1cst12jtVx0yniFkqy4yKd6LIvZfwHEmw1v6a/pbvj5teudBRAdhsPnuFKqRGjTGuMRQLVcb5gGWwwEoOhKAIeKwyzBkoGMWWRzJna9/MtbYlJqsSlC0q7HDAqbuCPFBuLcZBHu1OsA5cJo7kha0BRsUs7qD5rMboaWVVRnmwV6lGvA6U+HNSbZ3yWuZgp7WVxF5AE9AWeKIKzM/BzhLZuOc5l/xX+a5anfrSUmq584k0IS2AS6qISXCnZZ++Ndv7Jmeors9+AiNTfDfJuktMc9MVlOiYez/hvYbJojzVN4soIFoDtxMchyO2W+eNXDxeEIZoitXHZFImKf6Y0+YACpQ16uknWbYZZUqBGs1iCpgi4IKVxjFeLcJModP671SD/wqSnlbSe2UjR+XaUFdqIZimdWDWy2Rgqn4bFz2eZka1RuCNUkDm9zKaIS2AQ1Y+q+GaaVaU6Mbpsu9LTf5VfgNttDSN+ivn8AAAAABJRU5ErkJggg==;" parent="1" vertex="1">
          <mxGeometry x="235" y="1600" width="30" height="30" as="geometry" />
        </mxCell>
        <mxCell id="uB8stE_nZeS71T9XruUY-17" value="Location" style="text;html=1;strokeColor=none;fillColor=none;align=center;verticalAlign=middle;whiteSpace=wrap;rounded=0;fontSize=14;" parent="1" vertex="1">
          <mxGeometry x="65" y="1390" width="60" height="30" as="geometry" />
        </mxCell>
        <mxCell id="uB8stE_nZeS71T9XruUY-18" value="On Google Map" style="text;html=1;strokeColor=none;fillColor=none;align=center;verticalAlign=middle;whiteSpace=wrap;rounded=0;" parent="1" vertex="1">
          <mxGeometry x="65" y="1460" width="90" height="30" as="geometry" />
        </mxCell>
        <mxCell id="uB8stE_nZeS71T9XruUY-19" value="123 S. Road BT18DF, Belfast" style="text;html=1;strokeColor=none;fillColor=none;align=left;verticalAlign=middle;whiteSpace=wrap;rounded=0;" parent="1" vertex="1">
          <mxGeometry x="65" y="1420" width="170" height="30" as="geometry" />
        </mxCell>
        <mxCell id="uB8stE_nZeS71T9XruUY-20" value="Our Menu" style="text;html=1;strokeColor=none;fillColor=none;align=center;verticalAlign=middle;whiteSpace=wrap;rounded=0;" parent="1" vertex="1">
          <mxGeometry x="538" y="1305" width="77" height="30" as="geometry" />
        </mxCell>
        <mxCell id="uB8stE_nZeS71T9XruUY-21" value="Cakes" style="text;html=1;strokeColor=none;fillColor=none;align=left;verticalAlign=middle;whiteSpace=wrap;rounded=0;" parent="1" vertex="1">
          <mxGeometry x="548" y="1345" width="67" height="25" as="geometry" />
        </mxCell>
        <mxCell id="uB8stE_nZeS71T9XruUY-22" value="Cupcakes" style="text;html=1;strokeColor=none;fillColor=none;align=left;verticalAlign=middle;whiteSpace=wrap;rounded=0;" parent="1" vertex="1">
          <mxGeometry x="548" y="1380" width="70" height="20" as="geometry" />
        </mxCell>
        <mxCell id="uB8stE_nZeS71T9XruUY-23" value="Wedding" style="text;html=1;strokeColor=none;fillColor=none;align=left;verticalAlign=middle;whiteSpace=wrap;rounded=0;" parent="1" vertex="1">
          <mxGeometry x="548" y="1410" width="70" height="20" as="geometry" />
        </mxCell>
        <mxCell id="uB8stE_nZeS71T9XruUY-24" value="Treats" style="text;html=1;strokeColor=none;fillColor=none;align=left;verticalAlign=middle;whiteSpace=wrap;rounded=0;" parent="1" vertex="1">
          <mxGeometry x="548" y="1440" width="70" height="20" as="geometry" />
        </mxCell>
        <mxCell id="uB8stE_nZeS71T9XruUY-25" value="Accessories" style="text;html=1;strokeColor=none;fillColor=none;align=left;verticalAlign=middle;whiteSpace=wrap;rounded=0;" parent="1" vertex="1">
          <mxGeometry x="548" y="1470" width="70" height="20" as="geometry" />
        </mxCell>
        <mxCell id="uB8stE_nZeS71T9XruUY-26" value="Links" style="text;html=1;strokeColor=none;fillColor=none;align=center;verticalAlign=middle;whiteSpace=wrap;rounded=0;" parent="1" vertex="1">
          <mxGeometry x="775" y="1300" width="77" height="30" as="geometry" />
        </mxCell>
        <mxCell id="uB8stE_nZeS71T9XruUY-27" value="Social media" style="text;html=1;strokeColor=none;fillColor=none;align=center;verticalAlign=middle;whiteSpace=wrap;rounded=0;" parent="1" vertex="1">
          <mxGeometry x="1005" y="1300" width="117" height="30" as="geometry" />
        </mxCell>
        <mxCell id="uB8stE_nZeS71T9XruUY-28" value="Facebook" style="text;html=1;strokeColor=none;fillColor=none;align=left;verticalAlign=middle;whiteSpace=wrap;rounded=0;" parent="1" vertex="1">
          <mxGeometry x="1035" y="1335" width="67" height="25" as="geometry" />
        </mxCell>
        <mxCell id="uB8stE_nZeS71T9XruUY-29" value="TikTok" style="text;html=1;strokeColor=none;fillColor=none;align=left;verticalAlign=middle;whiteSpace=wrap;rounded=0;" parent="1" vertex="1">
          <mxGeometry x="1035" y="1365" width="67" height="25" as="geometry" />
        </mxCell>
        <mxCell id="uB8stE_nZeS71T9XruUY-30" value="Instgram" style="text;html=1;strokeColor=none;fillColor=none;align=left;verticalAlign=middle;whiteSpace=wrap;rounded=0;" parent="1" vertex="1">
          <mxGeometry x="1035" y="1395" width="67" height="25" as="geometry" />
        </mxCell>
        <mxCell id="uB8stE_nZeS71T9XruUY-31" value="Twitter" style="text;html=1;strokeColor=none;fillColor=none;align=left;verticalAlign=middle;whiteSpace=wrap;rounded=0;" parent="1" vertex="1">
          <mxGeometry x="1035" y="1425" width="67" height="25" as="geometry" />
        </mxCell>
        <mxCell id="uB8stE_nZeS71T9XruUY-32" value="&lt;span style=&quot;color: rgb(78, 78, 78); font-family: Inter, BlinkMacSystemFont, &amp;quot;Segoe UI&amp;quot;, Roboto, Oxygen, Ubuntu, Cantarell, &amp;quot;Fira Sans&amp;quot;, &amp;quot;Droid Sans&amp;quot;, &amp;quot;Helvetica Neue&amp;quot;, sans-serif; font-size: 11.104px;&quot;&gt;Portions of this content are ©1881–2023 – Cake&lt;/span&gt;&lt;span style=&quot;color: rgb(78, 78, 78); font-family: Inter, BlinkMacSystemFont, &amp;quot;Segoe UI&amp;quot;, Roboto, Oxygen, Ubuntu, Cantarell, &amp;quot;Fira Sans&amp;quot;, &amp;quot;Droid Sans&amp;quot;, &amp;quot;Helvetica Neue&amp;quot;, sans-serif; font-size: 11.104px;&quot;&gt;Cove&lt;/span&gt;" style="text;html=1;strokeColor=none;fillColor=none;align=left;verticalAlign=middle;whiteSpace=wrap;rounded=0;labelBackgroundColor=none;" parent="1" vertex="1">
          <mxGeometry x="383" y="1710" width="422" height="38" as="geometry" />
        </mxCell>
        <mxCell id="uB8stE_nZeS71T9XruUY-33" value="Our Stores" style="text;html=1;strokeColor=none;fillColor=none;align=left;verticalAlign=middle;whiteSpace=wrap;rounded=0;" parent="1" vertex="1">
          <mxGeometry x="795" y="1335" width="67" height="25" as="geometry" />
        </mxCell>
        <mxCell id="uB8stE_nZeS71T9XruUY-34" value="Franchies" style="text;html=1;strokeColor=none;fillColor=none;align=left;verticalAlign=middle;whiteSpace=wrap;rounded=0;" parent="1" vertex="1">
          <mxGeometry x="795" y="1365" width="67" height="25" as="geometry" />
        </mxCell>
        <mxCell id="uB8stE_nZeS71T9XruUY-35" value="About US" style="text;html=1;strokeColor=none;fillColor=none;align=left;verticalAlign=middle;whiteSpace=wrap;rounded=0;" parent="1" vertex="1">
          <mxGeometry x="795" y="1395" width="67" height="25" as="geometry" />
        </mxCell>
        <mxCell id="uB8stE_nZeS71T9XruUY-36" value="Contact Us" style="text;html=1;strokeColor=none;fillColor=none;align=left;verticalAlign=middle;whiteSpace=wrap;rounded=0;" parent="1" vertex="1">
          <mxGeometry x="795" y="1420" width="67" height="25" as="geometry" />
        </mxCell>
        <mxCell id="uB8stE_nZeS71T9XruUY-37" value="Privacy Policy" style="text;html=1;strokeColor=none;fillColor=none;align=left;verticalAlign=middle;whiteSpace=wrap;rounded=0;" parent="1" vertex="1">
          <mxGeometry x="795" y="1445" width="80" height="25" as="geometry" />
        </mxCell>
        <mxCell id="uB8stE_nZeS71T9XruUY-38" value="Terms&amp;nbsp;" style="text;html=1;strokeColor=none;fillColor=none;align=left;verticalAlign=middle;whiteSpace=wrap;rounded=0;" parent="1" vertex="1">
          <mxGeometry x="795" y="1470" width="80" height="25" as="geometry" />
        </mxCell>
        <mxCell id="aj0srUwWaOgaoKYd7bmc-1" value="" style="rounded=0;whiteSpace=wrap;html=1;movable=1;resizable=1;rotatable=1;deletable=1;editable=1;locked=0;connectable=1;" parent="1" vertex="1">
          <mxGeometry x="94" y="320" width="965" height="560" as="geometry" />
        </mxCell>
        <mxCell id="aj0srUwWaOgaoKYd7bmc-2" value="" style="rounded=0;whiteSpace=wrap;html=1;strokeWidth=3;strokeColor=#b22e2e;movable=0;resizable=0;rotatable=0;deletable=0;editable=0;locked=1;connectable=0;" parent="1" vertex="1">
          <mxGeometry x="579" y="320" width="480" height="560" as="geometry" />
        </mxCell>
        <mxCell id="aj0srUwWaOgaoKYd7bmc-3" value="" style="rounded=0;whiteSpace=wrap;html=1;strokeWidth=3;strokeColor=#00A600;movable=0;resizable=0;rotatable=0;deletable=0;editable=0;locked=1;connectable=0;" parent="1" vertex="1">
          <mxGeometry x="94" y="320" width="485" height="560" as="geometry" />
        </mxCell>
        <mxCell id="aj0srUwWaOgaoKYd7bmc-4" value="&lt;font style=&quot;font-size: 17px;&quot;&gt;Image&lt;/font&gt;" style="text;html=1;strokeColor=none;fillColor=none;align=center;verticalAlign=middle;whiteSpace=wrap;rounded=0;" parent="1" vertex="1">
          <mxGeometry x="299" y="580" width="60" height="30" as="geometry" />
        </mxCell>
        <mxCell id="aj0srUwWaOgaoKYd7bmc-5" value="&lt;font style=&quot;font-size: 17px;&quot;&gt;CakeCove&lt;/font&gt;" style="text;html=1;strokeColor=none;fillColor=none;align=center;verticalAlign=middle;whiteSpace=wrap;rounded=0;" parent="1" vertex="1">
          <mxGeometry x="763" y="340" width="101" height="30" as="geometry" />
        </mxCell>
        <mxCell id="aj0srUwWaOgaoKYd7bmc-6" value="&lt;b&gt;&lt;font style=&quot;font-size: 16px;&quot;&gt;Hello again!&lt;/font&gt;&lt;/b&gt;" style="text;html=1;strokeColor=none;fillColor=none;align=center;verticalAlign=middle;whiteSpace=wrap;rounded=0;" parent="1" vertex="1">
          <mxGeometry x="756" y="400" width="115" height="30" as="geometry" />
        </mxCell>
        <mxCell id="aj0srUwWaOgaoKYd7bmc-7" value="&lt;font color=&quot;#787878&quot; style=&quot;font-size: 13px;&quot;&gt;&amp;nbsp; Email&amp;nbsp;&lt;/font&gt;" style="rounded=1;whiteSpace=wrap;html=1;align=left;" parent="1" vertex="1">
          <mxGeometry x="699" y="470" width="242.5" height="40" as="geometry" />
        </mxCell>
        <mxCell id="aj0srUwWaOgaoKYd7bmc-8" value="&amp;nbsp; &lt;font color=&quot;#747272&quot; style=&quot;font-size: 14px;&quot;&gt;Password&lt;/font&gt;" style="rounded=1;whiteSpace=wrap;html=1;align=left;" parent="1" vertex="1">
          <mxGeometry x="699" y="540" width="242.5" height="40" as="geometry" />
        </mxCell>
        <mxCell id="aj0srUwWaOgaoKYd7bmc-9" value="&lt;font style=&quot;font-size: 17px;&quot; color=&quot;#ffffff&quot;&gt;Login&amp;nbsp;&lt;/font&gt;" style="rounded=1;whiteSpace=wrap;html=1;fillColor=#1c4bba;shadow=0;glass=0;" parent="1" vertex="1">
          <mxGeometry x="699" y="610" width="242.5" height="40" as="geometry" />
        </mxCell>
        <mxCell id="aj0srUwWaOgaoKYd7bmc-10" value="&amp;nbsp;" style="rounded=1;whiteSpace=wrap;html=1;fillColor=#FFFFFF;shadow=0;glass=0;" parent="1" vertex="1">
          <mxGeometry x="699" y="687.5" width="242.5" height="40" as="geometry" />
        </mxCell>
        <mxCell id="aj0srUwWaOgaoKYd7bmc-11" value="" style="shape=image;verticalLabelPosition=bottom;labelBackgroundColor=default;verticalAlign=top;aspect=fixed;imageAspect=0;image=data:image/png,iVBORw0KGgoAAAANSUhEUgAAAgAAAAIACAYAAAD0eNT6AAAABHNCSVQICAgIfAhkiAAAAAlwSFlzAAAOxAAADsQBlSsOGwAAABl0RVh0U29mdHdhcmUAd3d3Lmlua3NjYXBlLm9yZ5vuPBoAACAASURBVHic7N15nFV1/T/w1/vce4cdZFMYNDM1RdZhUEMBB0QUS1N0cCktzSXLJbNy/db0q1iyVS1Ts0wrhQnJUHFhGWFwZVhEct9SARn2deDee96/PwDZZoZZzjnvs7yef8Es57weysz7dT+fc84VEFGoaXFxZmUnt6ubQ1dR6S7QAwDpINADXOAAEXQAnAMg2g6Klgq0FSAD4AABUgp02OuQHQA4APDxygN3fswFsG6vr1sHICeQdYBmFdgIkRoo1kPddSKyDpC1gK6FylqkdK2b0+UocKtdZ3X1wKqqrJ//XYioecQ6AFFSKSArTynqLjnnEIgWuiqHCPRgQHtA5RAIugJ6ICCd/MqwWwHww2oBVrhAtQD/A+QTVf3EAT5CSj9xHffjogXPLhNA/QxBRLVjASDykZaWpqqr3z1MRI5Scb/gQA5X4HAovgDgCwBaWubzuQDslwA1CrynindF9F1V5z0Rfdd19a13j2n//pjy8rxpQKIYYwEg8oCWlKTXYOPRObi9xEFPKHoCOBrAUQBaGMerk3UB2I+tAN4E8AYEr4ur/0UKS9Z03PrmsIqKnHU4oqhjASBqpFWjjm+f37qtP4B+ok4/QPsD6I0QD/q6hLwA1EqAGkCWQHSh68qilOMu3LLZWfSld6att85GFCUsAET10JKS9GpZc5TCKVbIiQAGY/sre8c4mieiWADqsQxAJUTnikjVmnU184Z9UFFjHYoorFgAiHazbEhR10zKOVFFhwI4AUARgALjWL6JWQHY21ZAFypkrkBn5wsK5g6smrrSOhRRWLAAUKKtHN6vB9Q5WQVDADlxx959YsS8AOxNAX0DQKUq5iDjzhiw4Nml1qGIrLAAUKKsKOnV1kHBl1zHGSGqIwAMQIJ/DhJWAGrzHoDpAKYXuDqj15KnV1sHIgpKYn/xUTJoGZxVzxUfq3BPh8ooCAYASFnnCgsWgD3koaiCg2ki+mS/RYPmCcpc61BEfmEBoNhZd+qgTluz207e8Qr/KwAKrTOFFQtAPRQrIZilIo+n1Znad/ETa6wjEXmJBYBiYdXQYw9xU/lREJwBxanY/ihc2g8WgAbLQ/AioOUOnMn9Xp32sXUgouZiAaDIWjl0QE83hbMFOBtAMfjvudFYAJpEAcyDYkpe3CkDFz/zhnUgoqbgL0yKlNUjij+Xy+FsEbcU2+/Lp2ZgAfDEfyEoh5P/R9HCZ9+2DkPUUCwAFHorh/froZoaA+j5gBxnnSdOWAA8pQK8pCITNZWbxFsMKexYACiU3i8padnG2XCGQC+G4jQAaetMccQC4BsXghdE5UGR/D/6vfrMJutARHtjAaBQqR42oFigFyvwdT/fBpe2YwEIxHoRPOaqPli0+OkZfPtjCgsWADK3bEhR13RavgnB5VAcaZ0nSVgAAvcWVO7Lt0g/wMcSkzUWADJTPWxAMYArAFwEoJVxnERiATCzDcBjCr2XqwJkhQWAArV6RHGHfF4vBeTbgH7ROk/SsQCEwlsQuTufyf51YNX0ddZhKDlYACgQK4b2P9JJydUKuRRAW+s8tB0LQKhsBPBPR9w7+736zGvWYSj+WADIN1oGZ+XsAV9WV68RkRHgv7fQYQEIJQXwLFTv6P/aoGl8PwLyC38hk+e0tFfBqpUF5yvkRgDHWOehurEAhN47EL1rS5v2957wQvkW6zAULywA5JlVo45vn9+Su0REfwigh3Ue2j8WgMhYAcHdBXm9g29ZTF5hAaBmqz6lqBBZ+SEEl4H7+5HCAhA5GxS4z83prwa+/vQy6zAUbSwA1GSrRxR/zs27NyjkcvA2vkhiAYisbSKYmHPlpwNfm/audRiKJhYAarRlJf0/nxG5XiFXAGhpnYeajgUg8rIieESd/M/4RkTUWCwA1GBrhhcdmlf5iW5/cA+fzR8DLACxkYPigbzmfjZwyfT/WYehaGABoP1aNqSoayrj3CCq14Gv+GOFBSB2tgF4IJ/TMl4jQPvDAkB1WnfqoE7bsluvheL7ANpZ5yHvsQDE1maF3plGekLfxU+ssQ5D4cQCQPvQ0l4F1dUtrxLRMgAHWOch/7AAxN4agUxYs2HL74d9UFFjHYbChQWAPqOAVA8vPlcUEwA9zDoP+Y8FIDE+FsjP3jq67f1jysvz1mEoHFgACACwcljRySpyOxRF1lkoOCwAySKQKhH8qN+r02ZaZyF7LAAJt6JkwBGOYKwCpdZZKHgsAAkl8njexff4DIFkYwFIqKVnFLfObNIfQXEjeGV/YrEAJFpWBHe33Fpw29Fv/meDdRgKHgtAwuza59dfAficdR6yxQJAAJaqyM1Fr057SLa/EyElBAtAgqwuGdg7L+7dAAZbZ6FwYAGgXXS2OPhO/0VPL7FOQsFgAUiA3Zb7bwZQYJ2HwoMFgPaSE8EfM/maW3stqdhoHYb8xQIQc9XDB5whijsU+Lx1FgofFgCqwycqet2AV5+ebB2E/MMCEFMrh/froUjdBcVZ1lkovFgAqD4qeNTN6tV8rHA8OdYByHsrhheXqjqvcvgTUXOIYnQqLa8v7DPqCuULxtjh/9AYWVbS//MpyL0icop1FooGrgBQw+lspNzL+LbD8cEVgBjQMjgrSoqvS4vzGoc/EflDhiKfmj+/92nXKso4O2KAKwARt2Z40aE5xQOAlFhnoejhCgA10fOuq98oXvL0O9ZBqOnY4iJs5bCii3Mqizn8iShgJziOzOe1AdHG/3ER9OnJxx/kuNl7AZxpnYWijSsA1FwCPOWm898asODZpdZZqHG4AhAxnw4rOkfc7BJw+BNRCChwmmRTixb0GcW7jiKGKwAR8dGgQa1atawZr5BrrbNQfHAFgLwkgocE7lX9Xn1mk3UW2j+uAETAqmH9erVqtfUlDn8iCjNVXOSqvDK/16n9rLPQ/rEAhJgCUj1swBUuUi+roo91HiKi/ZOejiMvLuh76nW8QDDc+D8npNYO7tMxm8k8AO71k4+4BUB+UsGjbiZ36cCq6euss9C+uAIQQtXDiwdkM5lXwOFPRBEmitGpbHrRwn6nHmedhfbFAhAyK4cVXQzVSgCHW2chImo2xaHqyuwFfU+9zjoK7YlbACGxoqRXW3Fa3AfF+dZZKDm4BUBB4l0C4cIVgBBYUTLgCEiLFzj8iSjOtt8l4Dz/ap8vf8E6C7EAmFtRMuA0EbwsQG/rLEREAeibR/6Vhb1HjbQOknQsAEYUkJUlRTeK4HEAHa3zEBEFqJOKPrmwz6gbeaugHf6HN7B8ZN826Wz6rwqUWmehZOM1AGRNFI/kWmS+NbBq6mbrLEnDFYCAVZ9SVJjKpp/j8CciAlRwfmpb9vl5vUZ8zjpL0rAABGhFSf/+yMmLAIqtsxARhUi/lJN+cUGv0461DpIkLAABWVFSdK6IMxfAIdZZiIhCqLs4mD2/72kXWAdJChYAnykgK4YX3SYikwC0ts5DRBRWCrQUxT8W9D7tZussScCLAH2kJSXplbL+jwAut85CVBteBEgh9kC+oPqKgVVVWesgccUC4JMVJb3aihRMBOR06yxEdWEBoHCTZ7duwblfemfaeuskccQtAB+sKDm2m0iLCg5/IqLm0FNatNI5C/t9pYd1kjhiAfDYipIBR4jk54BX+hMReaGvurk58/qMPNo6SNywAHho5fCBx0HwIoAjrLMQEcXIYSl15szvffpA6yBxwgLgkeqSgSWq7rMCdLbOQkQUO4IuIm7Fgt4jT7GOEhcsAB6oHlZ0JsSdBqC9dRYiohhrA3Gmzu976jnWQeKABaCZVg4vugiQyQBaWmchIkqAFqIycX7v075lHSTqWACaoXrYgOtV5W8A0tZZiIgSJCWC++b3Pu1a6yBRxgLQRNXDBvwQwG/AZykQEVkQEfx+YZ/TbrMOElUsAE2wsqToRgC/tM5BRJR0CvxsQe/TfmKdI4pYABppZUnRjSoy3joHERHtICib3+dU/l5uJBaARqgeVvT/OPyJiMJHIDcu6H0aV2YbgQWggVYOH/BzQP7POgcREdVB8MP5fU77tXWMqGABaIDqYcU/VsWt1jmIiKh+AnyfJaBhWAD2o3rYgOsB/al1DiIiahiWgIZhAajHiuFF12D7rX5ERBQhLAH7xwJQhxXDii4Vld9b5yAioqZhCagfC0AtVpYUf0Mg94EP+SEiijSWgLqxAOxl5bABo1X0fvC/DRFRLLAE1I5DbjfVw4pOUuAfAFLWWYiIyDssAftiAdhhdcnA3oBMAd/Vj4gollgC9sQCAGDV0GMPyYv7JICO1lmIiMg/LAG7JL4ALC0p7uKm8s8COMQ6CxER+U+A78/vO+pi6xzWEl0Alp5R3DoN/Q+Ao6yzEBFRYJ5stxkTrUNYS2wB0JKSdGajThbBIOssREQUmCfbbpHRR74zbat1EGuJLQDVsv53AE6zzkFERIHh8N9NIgtA9fAB3xPgu9Y5iIgoMBz+e0lcAVgxvGgUFL+yzkFERIHh8K9FogrAqmH9eonKw+CDfoiIkoLDvw6JKQArSo7t5iL1JIAO1lmIiCgQHP71SEQB+GjQoFYi+akAPmedhYiIAsHhvx+JKACtWm39I4CB1jmIiCgQHP4NEPsCUD18wPdU8U3rHEREFAgO/waKdQH4dNjAE6GYYJ2DiIgCweHfCGnrAH6pHlLcHXDLARRYZyEiIt9x+DdSLFcA3h51RAuk3X8D6G6dhYiIfMfh3wSxLAAHbG13FyDHWecgIiLfcfg3UewKwLapmcucTtu+Zp2DiIh8x+HfDLF6It7W6TjGKXAfLei9unXug/bQjRnrSEShtn5zG+sIRE3F4d9MsSkAOgstFZgG4BDJKAp6rgFLAFH9WAAoojj8PRCbLYC8izsB9Nv5d2mVR9sL30aq+2bDVERE5DEOf4/EogDkZqBUgcv2/jhLABFRrHD4eyjyWwA1M3C4AI8DaFnb57kdQFQ3bgFQhHD4eyzSBUDnIYMaTIXgiPq+jiWAqHYsABQRHP4+iPQWQG4dbofgSw35Wm4HEBFFEoe/TyK7ApCbjq9A8DsA0tDv4UoA0Z64AkAhx+Hvo0gWAJ2FLu72W/7aNfZ7WQKIdmEBoBDj8PdZJLcAsi7+AKBbU7+f2wFERKHG4R+AyBWA3HScL8CY5h6HJYCIKJQ4/AMSqS0AnY2uroupADxZt+R2ACUdtwAoZDj8AxSpFYBcFn8CcKCXx+RKABFRKHD4BywyBSA3Hd8AMNqPY7MEEBGZ4vA3EIktAJ2BHq7gMQCt/DoHtwMoibgFQCHA4W8k9CsAqpAccB+Ajn6fiysBRESB4vA3FPoCkJ2BSwGMCup8LAFERIHg8DcW6i0AnY7OKvg3gNZBnpfbAZQU3AIgIxz+IRDqFYAs8BsAXSzOzZUAIiJfcPiHRIOfox+07AwMBVAB44zu5jQ2/eNI5D/17fpDoqZyASwD9ANAPlHFCgFWikh1Hu6nKcU6OKn1otlNjjgbZVtuPQBoOqUdKxau3XmQRX1HthHNFABAPpXvkMqnnHxqW8p1050d1U6q2lkcdBJ1Oiu0E4CuAA4B8HlsfyJnaH+PUOg8VuC2G9NrSfk26yAU0h9cnYSCXGcsBNDTOgvAEkCmXADvAfoW4LwB1beQkrdy+fz73TakPpGqqqxluLePGNViY9vc5zTvHAqVQx3BESrSG6q9sb0gEO3E4R8yoSwA2Rm4DcDPrHPsjiWAApADsAjAPIgudFxZmC3ILe72zKubrIM1xRtHndluU4tsL0fRR6B9AByrwAAABdbZKHAc/iEUugJQMwOHp4DF8PGe/6bSLSls/OeRyC8L9JpEiq8sgFdVZLpA52a2ZSsPqFy8xjqUn2aVlKTbryro54gMFkixKoaAKwVxxz3/kApdAchOx+MQfNk6R124EkDNsAlAhYhU5lXmHNhlyytSviTxr4jm9R51uONgpKg7EpDhANpbZyLP8JV/iIWqAOSm43wVPGydY3+4EkCNsBLANBWZCrdm2oEVSzZaBwqzWSUl6Q6rWp8gmh8JkVMBFCNkv6eowTj8Qy40P1j6NNrk0ngLQKF1loZgCaB6vCfQx6GY2hkdKqSiImcdKKoW9x55SM6R0YCUQnECQvQ7i+rFZf8ICM0PU3Y6/h8E/2edozG4HUC7yFsK/Zs4+X91nbHoLes0cbS9DKTOAfRcloFQ4yv/iAjFD5DOQI8c8CaAyD2WjCsBiVYjwFSo3tu5YsEMAdQ6UFIs7j3ykLykLlTot8GLCMOEr/wjJBQFYNt0/E0EF1vnaCqWgMSpAnAvtrV6uOvcuRuswySZosxZ0OeF4QK5AsBXwVsMLXH4R4x5Adj2LIrEwTyE/LHE+8PtgNhbC+A+wLm/66x5b1qHoX3NLxrVFTn9lgBXA+hhnSdhuOwfQeYFIDsDzwEYap3DC1wJiKXlENyTdt3f7f74XAqvecXFmdS2rmcBuB7AIOs8CcBX/hFlWgByMzFaFZMtM3iNJSAeRLBYFXdt1PYPHlZRUWOdh5pmfp/Thwrc72H79kCkVxlDiq/8I8ysAOx43v9rAI60yuAXloAo07kQmdBl5vzHeVFffFT1/nLPlJO/WRUXIuRvgx4hfOUfcWYFIDsd34fg11bn9xuvCYicmSLOzV1mznvZOgj5h0XAMxz+MWBSAPRZdMg5eA9AJ4vzB4UrAZHwXxUpO3BmVbl1EArOor4je7vq/ATAOQjBtVARw2X/mDD5h5+diZ9C8WOLcweNJSC0PgLw8y5dDr9fysvz1mHIRlWfkcUC57cCDLHOEhF85R8jgRcAnYUDci7eB3BA0Oe2whIQJrpaFL/cgA6/58V9tNOivqPOcFV/B+AL1llCjMM/ZgK/KjaXx4+QoOEPANIqjzYXvIPUQVusoyRZDsBvUynnC10qFkzg8Kfd9Xt12tQCt11PiH4PwDrrPCHE4R9Dga4A6Cx0ybl4D0C7IM8bFlwJMCJYIOJe2WXGwleso1D4vdzr9G4Zx/0NgAuss4QE9/xjKtAVgJyLm5DQ4Q9sXwloe+HbSHXfbB0lKTaJ6k1dOh9+LIc/NdRxS55cXrT4qQsVcjqAD6zzGHuy7RY5j8M/ngJbAdBZ6JZz8S6AxL/85UpAAASPpxz5bqfpVf+zjkLRNa/4jNbOtm0/FsgPkLzbBrnsH3OBFYDsdPwegmuDOl/Y8TkBvvkfBFd3nTl/qnUQio+qPiOLHZE/Q6W/dZaAcNk/AQIpAPoMCnMpvAOA0243XAnwlgDl6Wz2ygMqF6+xzkLxM6ukJH3A6pa3QXEb4r0awFf+CRFIAchNxx9U8J0gzhU1LAGeWC+iV3eZueAh6yAUf/P7nDZIgL8jnrcMcvgniO8FQJ/Ggbk0PgBf/deJJaA59GVV+dqBFfPfsU5CyfHiEaPat2ytd6niIussHuLwTxjf7wLIpXENOPzrxbsDmiSvIhO6rHcGc/hT0L70zrT1/V996mJAvg5gg3UeDzxW4LY7m8M/WXxdAdCpaJ1rjQ8BdPHzPHHBlYAG+5+KXnTgzAWzrYMQLex3+hfV1cmA9rbO0kR85Z9Qvq4AZNvgMnD4NxhXAhpAMSefyR3L4U9h0X/Rk28VuFsGAZhknaUJOPwTzLcVAJ2EVL4z3lTgcL/OEVdcCajTvV3Wy9VSVZW1DkJUm4V9Rl2h0LsAZKyzNACHf8L5tgKQ74wxHP5Nw5WAfWyDyuVdZ82/ksOfwqz/4mn3QjESwArrLPvBPX/ybwUgOwNVAAb4dfwk4EoAAGAl1CntWjGvwjoIUUMt6jvyMFflCUB6WmepBV/5EwCfVgCy0zECHP7NxpUALEqLDuTwp6jp9+oz76eQPhGCWdZZ9sLhT5/xZwtA8ENfjptASX0rYQUezbaVEzrOXPChdRaipui7+Ik1Bfl2p0H1QessO3D40x483wLY+ix6Og6W+HHsJEvYdsBDXbT9pVJRkbMOQtRcCsiiPqN+pNBxsPu9yOFP+/B8BSDl4Cpw+HsuKdsBArmzy6z53+Dwp7gQQPsvnjYBolcAyBtE4AV/VCtPB/WOB/98DKCjl8elXeK8EqAiEw6cWXWTdQ4ivyzsPeo8FX0Iwd0myFf+VCdPVwCyrXEhOPx9FdOVAIXgeg5/irv+r02bCNWzBagJ4HQc/lQvTwuAAN/28nhUu5iVgJyoXNJ15vzfWQchCkLRa08/oYpRADb6eBoOf9ovzwrAtpk4HkCxV8ej+sXk7oBtUJzdpaLqb9ZBiIJU9NpTFeJgFID1Phyee/7UIF6uAFzl4bGoAZzWObT9+ltRXQnIQ/UbXSvmP24dhMhC/0VPVbpwhwNY4+Fhn2y7Rc7rtaR8m4fHpJjy5CJAnYUDci4+ARC/K9MiIIIXBipUruhaUfVn6yBE1qr6jCx24DyL5l8/xWV/ahRPVgByeVwKDn8z0bsmQH/A4U+0XfHiZ6pcuKegeSsBHP7UaM0uAKoQCK7wIgw1XVRKgIjc3HXWgt9Y5yAKk2aWAA5/apJmF4DcDHwJwFEeZKFmCnsJEJWfd5lZNd46B1EYNbEEcPhTkzW7AAjwdS+CkDfCeneAKu7qUlH1f9Y5iMKskSWAw5+apVkFQOcho4IxXoUhb4Tt7gABnu7a9fDvWecgioIGlgAOf2q2ZhWA/HqcDqCLR1nIQ6HZDhC87qTkPCkvt3gGOlEk7acEcPiTJ5q3AqBc/g8z6xKgwCp1cWan6VXrTAIQRVgdJYDDnzzT5OcA6LPokHOwDEArD/OQD4yeE5CFOiO7VsyrCPKkRHGz23MCXuDwJy81eQUg62AMOPwjwWQlQPBdDn+i5ite/EyVODqEj/clrzV5BSA7A88BGOphFvJZgCsBt3edNf9Hfp+EiIiarkkrADoDhwIY7HEW8lkQtwiq6rNdTprPt/UlIgq5JhWAHHBBU7+XbPl8i+AKyTvfkDK4fhyciIi807QhrjjH4xwUIJ+uCXAdkYu6zqla5uVBiYjIH40uADoLB0NQ7EcYCo7XJUBVf9l5ZtUznhyMiIh81+gCkFWMhkdvI0y2vCsB+nLXDc6PPQlFRESBaHQBEOBsP4KQDQ9KwNp8Pn++VFVlvcxFRET+alQB0OnoDOXV/3HTrBKgelW32a++730qIiLyU6MKQNbBVwGkfcpChppyi6AIHuhaseARH2MREZFPGlUARLn8H2eNvEVw5TZXfuh3JiIi8keDC4DOQlsAI3zMQiHQ0O0AVVxdWFG1MqBYRETksQYXgLzidAAtfcxCIbH/EqBPHlgxf2KgoYiIyFMNLgCu4gw/g1C41FMCNjj59LctMhERkXcaVABUIcLl/8SprQSI4JbOs1/5yDAWERF5oEEFIFuBfgC6+ZyFQmiPEpB2F3bufPjd1pmIiKj5GlQARHGK30EovKRVHm0veCdXcMTaq6S8PG+dh4iImq+h1wCM9DUFhZ7TKndvh7s/eNE6BxEReWO/z/TXWWiZc7EaQKsA8lA4bUg7+KIMw3LrIERE5I39rgDkFCeBwz/ZFOM5/ImI4mX/WwDc/0+6T9Jb8DvrEERE5K2GXAPA/f8EE8Etcgaa+37BREQUMvUWAJ2FbgB6B5SFwmdRajb+bh2CiIi8V28ByOdxMhpwoSDFlOAGKYNrHYOIiLxX/xaA4MSAclD4PJsZjhnWIYiIyB/1bwGABSCxXIy1jkBERP6pc3lfn0T7XAusBpAKMA+Fw8uZk3G8dQgiIvJPuq5P5FpiEJTDP4lEMc46AwVj8C1LJ1lnICIfuVJROb77H2v7VJ0FAMAJPsWhcHsjVYn/WIeggChKrSMQkZ+0B4BaC0Dd1wAo9/+TSBTjeeU/EVFMCPqiTGud9bV+UCchBeA4X0NRGH2cWo2HrUMQEZFn2p6QW3FYbZ+otQBkO6MfgHa+RqLQUcWvZAy2WecgIiLvSD7fr7aP174FoBjkaxoKozWZPP5sHYKIiLymjSgADgtAAj0gp2KTdQgiIvKYSMMLgCgG+JuGQkbzij9ZhyAiIh8oGlYA9Hm0AvBF3wNRmExvOQJvWYcgIiLvCXBoSdn7B+z98X0KQHYzeoNP/0sUEdxjnYGIiHwjuS0t9nln3323AAT9A4lDYbEqVYPHrUMQEZGPUvteB7BPAXCk9r0CiicB/imnY6t1DiIi8pHueyfAvtcAKFcAksQV/M06AxER+a7v3h/YowCoQgD0CSwOWVtSMBxV1iGIiMh3PQHd4x2A9ygAW2fiCwDaBxqJLPGxv0REydB+0K0fF+7+gT0KQJoXACZKPg++FSwRUUKkVY7e/e97bgHUskdAMaVY2HIk3raOQUREwXBd6bn73/e8CFCxxycpxhy++iciShJxUG8BODLQNGQmDzxqnYGIiIKjirq3ACA4PNA0ZEKAd1sOx5vWOYiIKDiCOrYAdBa6AWgXeCIKnAL/sc5ARESB6z74pg877vzLZwUgl+fyf2IInrCOQEREwdNUi6N2/nnXCoDDApAQG9MrMcc6BBERBU/c/GfbAJ8VAOEFgEkxW8Zgm3UIIiKy4Hx2IeCuiwBZAJJBMcM6AhERWdEjdv5pVwEQFoAkUIcFgIgowT638w8O8NmbAPEWwPirzgzDq9YhiIjIzCE7/7B9BaACBwFoY5WGAjNXBGodgoiIzBw46pq3WwA7CkBW0cM2DwVC8Lx1BCIiMiUb2rTvAewoAI6isP6vp5hgASAiSjgR9xBgRwFwWQCSYGtaUGUdgoiIjInuKgAi6G6bhgLwqgxDjXUIIiKy5brYrQCAKwBxJ4L51hmIiMieyG4FQLkFEHuuYqF1BiIiCoPdtgAA3gUQe4IF1hGIiCgMZLcCwGsA4i6f2YTF1iGIiMieAAcDgKPzkAHQ1TgP+UiAD+QMbLbOQURE9hToWFqqKQcbcBB2f08Aih0F3rTOQEREoeEsO/x/7Z0s0MU6CflM8IZ1BCIiCg833bKTI4oO1kHIX1wBICKi3YnmOzoCFoC4GB4ZeQAAIABJREFUExdvW2cgIqIQUe3owEVH6xzkr1weH1hnICKiMHE6Oq7DFYCYy7fsjI+tQxARUYi42skRFwdY5yBfLZOByFqHICKiUOnoQNDeOgX56kPrAEREFDba0RHlNQBxpsAn1hmIiChkHOnoqHALIM4cYIV1BiIiCp2ODngbYKypoto6AxERhYsoOjgA2lkHIf+osAAQEdGeVFDgAMhYByH/OFwBICKivTgqGQdAgXUQ8o8C66wzEBFRuCiUKwBxpw7WW2cgIqLQKXBEWADiTF1ssM5AREQhoyhwVLkFEGcFKa4AEBHRXnZcBJi2zkE+2orN1hGIiCh0CngRYNy5yFlHICKi0OFFgLGXZwEgIqJ9sADE3hYWACIi2gcLQOz9lwWAiIj2UeBYJyAiIqLAiQMga52CfHQM7/IgIqJ95FkA4q4VCwAREe2DBSD2UiwARES0j5wDYJt1CvKRwwJARET7yDsArxKPNUEb6whERBQ6eUeEKwBxti2FdtYZiIgodHKOKq8BiDNxWACIiGhPCmzmRYAxJy7aW2cgIqJwEcEWXgQYcwJ0sM5AREQhoywAsecKulpnICKikBFsdiDYYJ2D/CPAgdYZiIgoZBRbHCjWWucg/whXAIiIaC8C2eKIYJ11EPKPKlcAiIhoTwpd5yhXAOKu0DoAERGFi0LWOuAKQNwdah2AiIjCxRFdyxWA+Ouu85CxDkFEROGhkHWOwxWAuEvVrMLB1iGIiCg8VN21DsAVgLhLp/B56wxERBQejgq3AJJAgS9aZyAiovAQOGsc5RZA7IngKOsMREQUHjkHK5yMYJV1EPLd0dYBiIgoRLZhhQNgOYC8dRbyj4ArAERE9Bm3x4cHrXJkGHIAqq3TkH8U+Lw+jTbWOYiIKBRWlZdL3tnxl6WmUchvTi6FvtYhiIgoFFYAAAtAQqiDIusMREQUCrsKgCgLQNw5iv7WGYiIKBQ+BnYUABUss81CflPlCgAREQEKfATsKgBcAYg7QT+ditbWMYiIyJYD2bUC4LgsAAmQybVCsXUIIiKypZBdKwAuVwCSQXCCdQQiIrLlSm7XCkBG8YltHAqEYpB1BCIislWw1dlVAHAyVgDYZBmIAiA4Ucs+u/WTiIiSZ0PFrwtXAjtvAxQogHdNI1EQumRP4gOBiIgS7L2df9j1alDxtkkUCpTkcbJ1BiIiMvPZi/1dBUBYABJBWACIiJJKVfctAMoCkBRDdRIKrEMQEZEF2XcLQFwWgIRok+uEk6xDEBFR8LS2awDSKRaAxBB82ToCEREZSOHNnX/ctQIwDMsBbDAJRIES4AzrDEREFLjNz2e6f7TzL3vfE/5OwGHIgAJf2PoselrnICKiQL2BMnF3/mWPAqDgNkBSOA5GW2cgIqLgCPD67n936vskxVqpdQAiIgqOav0FYFGwcchQP24DEBElh0o9BSCnLABJ4qRwrnUGIiIKSEqX7P7XPQpAi5PxPoD1gQYiO4rzrSMQEVEgNs1NF+5xnd+eWwDb3xSIqwDJccy2WRhoHYKIiHymunj3OwCAfW8D5HUACeO4+IZ1BiIi8pnIPrN9nwLgsgAkigIX6pNoYZ2DiIj8I2hAAYCDhYGkobDolC/gkwGJiOJMHHf/BSADvAYgF0giCgUVfNs6AxER+cbNZwsW7/3Bfa8BGIYaAG8FEonC4uSt03GMdQgiIvLFf+f+sus+7/Wz7xYAABUs8D8PhYkjuNw6AxER+eKl2j5YawEA8LyPQSicvqlPo411CCIi8pYCr9T28doLgLAAJNAB2TRXAYiI4ial+nJtH6+1AGSqsRjAOl8TUegIcINOQoF1DiIi8kzNptWFr9X2iVoLgIxBHkCtjYFi7eBsZ3zNOgQREXmmqupeydb2ibquAQB4HUAiCXCjltX774KIiKJjTl2fqPsXvWKuL1Eo7I7KD8FXrUMQEVHziUhlXZ+rswCkW+JFAHlfElGoKXCzdQYiImo2N1eQe6GuT9ZZAGQwNmD7UwEpeY7NzsBw6xBERNQc8toLZYesruuz6Xq/VTFXBf28D0WhJ7gZwEzrGOQzlTHWEchngtsA7WsdgwyIW+fyPwBIfZ/MzcSFqviHt4koMhSnZEZgunUMImqaoTcu7+M67kLUf8E3xZSIXjBnbI9H6vp8vf8oUi5mAFDPU1E0CH7NOwKIost18mPB4Z9UmspmKur7gnr/YcgIfApgn3cQosTomx2Ci61DEFHjDbl12XGAfNk6B5l5reL2A5fX9wUNaYbPeBSGIkiAn/M9Aoiix1W9HfvZ5qX4EmDG/r6mIQXgWQ+yUHT1yKVxvXUIImq4E29eOloUQ61zkCGR/V6/td8CkHYwG8AWTwJRVN2os9DNOgQR7V+vsiUFohhvnYNM5bYVFNT5BMCd9lsAZBhqANR7KwHFXtu8i59YhyCi/eu0rdN1EBxpnYNMvfRSWef1+/uihl4dyusAEm6dFlz2g0ePG2Sdg4jqdvwtnx6kqrdZ5yBjimkN+bIGFQAVXgeQZOvdDK5ePzg9J9f9j6WTSlPWeYiodhnN3w6gvXUOsuVAn2zY1zVAZhhehWJZ8yJRFK13M7h6wxC8kTsA25Dq/47kv2OdiYj2NeTmZScB+Lp1DjK3bPb4woUN+cIGFQARqAqfCJc0uw//zyjG9Z1UephdKiLa26hr3m6honeDt/2RyjRAGvQAvwY/IcpR/KfpiShqah3+27VJwf2DRSYiqt2Gdq1vhqKndQ6yJ9Kw/X+gEQUgtQVPAtjcpEQUKfUM/x10VNHEcy4INBQR1eqEW5b3hspN1jkoFLIt3BYNvmavwQVAzsBmgNsAcbf/4b+D6B1Fk0q7BpOKiGpTUqbplLp/AdDCOguFwszpEzqta+gXN+pNIhSY0vg8FBXrtABXbRi6/+G/XRcg/2u/MxFR3fJbl9+iwLHWOSgcGjujG1UAMoqpAHKNSkSRsN7N4Jr1g/F2rkNjvu2i/pNGX+hXJiKq2+AbP+6n0Futc1BouI5kGnWtXqMKgIzAKgD7fbwgRUuDl/1rIcAfeVcAUbBKyt5vCcd5CECBdRYKjRfmjO3aqNv1G/0+0dwGiJfmDP8dOqSQn9hrUil/EREFJLe14FcA+ljnoBARafRsbnQByACPAmjQPYYUbh4M/52OzWj+Z15kIqL6Dbnxk68Cwgdy0Z5cp9EFoEkPjcjOwMvghSeR5uHw30lF9Mz5pVMe9+qARLSnQbd+1CPtphYp0Nk6C4XKy5XjCo9v7Dc1egVgh0eb+H0UAj4MfwAQVflL0cNnFnp5UCLarvgKzaTc1MMc/lSLiU35piYVgDTwMAC3Kd9Lthp5q19jdUUq9SDfMIjIe607L/8NgCHWOSh0FC7+1ZRvbFIBkJPxIYDKpnwv2WnirX6NJCe/o/kJPp6AKHEG3/TJBQq92joHhVJl5YTC/zXlG5u6BQAFHmrq91LwfFr2r53ghgHlo6/0/0RE8Tf0xuV9IHKfdQ4KKZEmLf8DzSgAma2YBGBLU7+fghPo8N9BFXf2mzh6WGAnJIqhE36w/MC84/4HQBvrLBRKuSycJi3/A80oAHI61gN4oqnfT8GwGP47ZBzBvwZMKj0i6BMTxUGvsiUFTsadJMDnrbNQWOlTL4096NOmfneTCwAAiHAbIMwMh/9OnRT5qf2nnGUWgCiaVA6o6Xg/gJOsk1B4CZy/Nef7m1UAUu0xDcDK5hyD/BGC4b/T0U5WJpbMKklbByGKisE3Lf+xCL5unYNCbU3bjRunNucAzVsBGIisSNPuPyT/+HyrX6MpZOS66k53WOcgioIhNy29DKJl1jko9B6ZdueRW5tzgGYVAABwBX9v7jHIO8Hc6tckV/WfOPq31iGIwmzwzcu/ooK7rXNQFDRv+R9o4qOA95adgdcBHO3FsajpQrTsXydV3LrwvEfHWucgCpuht35yguvKswBaW2eh0Ptv5bjCXs09SLNXAABAgXu8OA41XRSGPwCI4BdF5aNvsM5BFCYn3PJxf9eVx8HhTw2ggCfPhfCkAGQcPABgsxfHosaLyvD/jOL2/hPPvtw6BlEYDLp56dGOOk8B6GidhSJha2abN1vvnhQAGYa1onjEi2NR40Ru+G8nInJ3UfnZ51sHIbI0+OaPv5gCZgI4yDoLRYMqyit+XejJ3XeeFAAAcBV3eXUsapiwXe3fSCmoPFg0afSZ1kGILAy++eMvAqlZALpbZ6HoSKk3y/+AhwWg4BQsgGKeV8ej+oX4av/GyACY3H/S6G9aByEK0tAfLe25ffgr3z6bGuON2RO6z/HqYJ4VAABQh7evBCGiy/51SQvwlwETz77eOghREIbe9EmRm8ZsDn9qLBH9IyDq1fE8LQCZlngYwGovj0l7itnw30lU5DdF5eeMtw5C5Keht35ygisyE4ou1lkoctZvK2jZ7Hv/d+dpAZATsAV8m2DfxHT476J6Y9Gk0XeirMzTf5dEYXDCTUtHuq48BSCmP8DkK8VfXyrrvN7LQ3r+i9Z18CcAni1R0HaxH/67XN2/16K/Fd9zRcY6CJFXhtyy7JuO4HEA7ayzUCQpxP2j1wf1vAC0GIY3IHja6+MmWcSv9m80Ufm623Hlv/o+eBHfA50ib/BNn9yoqn/F9oteiZpAn6gcd/BbXh/Vn6VWxe2+HDeBYnK1f1OcmWq56fm+k0oPsw5C1BSjrnm7xZCblz4AEV7bQs3iqtzpx3E9eS+A2mRn4EUAx/t1/CRI0LJ/fVa5itJF5z06yzoIUUMdd/PHnQvgTAZwknUWirzFleO69/Py6v+dfLvYShR857dm4PD/TGdH8EzRxLOvtQ5C1BAn3LK8dwGcV8DhT9643Y/hD/i4AqCTkMp3xpsKHO7XOeKKw792CtybWtPl6qor781aZyGqzYk3fXKeiPwZQFvrLBQLH29Z1f0LVfeKL7/z/FsBGIO8C/zOr+PHFYd/3QS4It9x5cy+j559oHUWot2VlGl68C3LxovII+DwJ+/81q/hD/hYAAAgsxl/AeDJmxYkAYf//gkwOJWTef3Lzy2xzkIEAINu/ahHbuuyCqjeaJ2FYmV9S7fl/X6ewNcCIGdgM4A/+HmOuODwb5RDRN2ZReXn/L7XpNIC6zCUXINvXv6VlJtaAOBE6ywUMyJ3T5/QaZ2vp/Dz4ACg09E5J/gQAO/prgOHf7O8oo58beG5k9+2DkLJUVL2fsvc1hYTAFyDAH6PUuJsdrPOYc//qtsKP0/i+yNXZQRWCfBXv88TVRz+zXYsXK0aMOmcK6yDUDKccMvy3rmtLV4GcC04/MkHqrjH7+EPBPSPV2ejey6LdwG0CuJ8UcHh77l/5bJbr1j8tSfWWAeh+Ckp03SuZukNEPkpgBbWeSi2tuad/OEv/OKQT/w+USBvuiJDsQzAPUGcKyqS9njfgJybzrRY1L/87K9aB6F4GXLzsmNyW5fN3fFUPw5/8pH+OYjhDwS4fKWz0TWXxXvgLTJ85R8AhTyegvPdqjHl/7POQtFVfIVmWnde9kMFfgwOfvLfNrg4snJCYSC/twLdv8pOxy8h+GGQ5wwbDv9AbYbq/ztC0r8qH1Oetw5D0TL4xqWDsf3dTXtZZ6HEuLtyXOF3gjpZoAVgxx0B7yOhb4nJ4W9FFrrIX7lozL9ftk5C4XfUhMrCzusP+aXjZi4EL/Kj4GzJO/kjg1r+Bwz+cWdn4hdQ3BL0ea2t0wJ8Z/2QJL6rX1jkVXEnCtyfLjz732utw1AIlZWkO3yu26WpXJtfHLb0yi6tth5snYiSRPHryvGFPwjylIEXAJ2FA3Iu3gPQMehzW+Er/1BZDdVftpT0HS+MKd9iHYbCocNfxoyAOr8F0BsAUm4rHPbJVWAJoIBsdLPO4UHc+rc7k+Wt7AyUAfiJxbmDxuEfWh8L5GeHw7mf1wckV4f7zx8IwVgoTtn7cywBFBQR/GzO2MIfB37eoE8IAPosOuQcvAegk8X5g8LhHwmvq+hPFpZOKbcOQsFpd3/pUY6kfwbVc1HP78F0vg0OW3oVWm4tDDAdJczqdIuth1eUHRb41qTZBS7bZuB7AvzW6vx+455/5DwH6M0Lxkx5wToI+aftX0qPcZD6kSi+BiDdkO/hSgD5SYHr544rNHnnXLMCoPOQya3DawC+aJXBL3zlH2lzVfT3C5f0m4yyMtc6DHmjw1/OGyAq31PgQgCpxn4/SwD55P12Gzf1nHbnkVstTm56i0tuJr6qin9bZvAah39svKOQuw7Y1O6eikseqLEOQ03T8f4LBiv0RgW+0txjsQSQ11TkvLlju0+yOr/5Pa7ZmXgWihHWObzA4R9Ln4riT9nc1t/zPQYioqzM6Xjwm192RX8MYKCXh2YJIA+9XDmu+5cAUasA5gVg20z0E8V8BPS+BH7hnn/c6XoAfwbS9y8YU/5f6zS0ry73n1+4DfiWAJcDOMSv87AEkCdcDKmcUFhpGcG8AABAbgb+osAl1jmaiq/8k0aqFHgoC+ehJWPKV1unSbSyMqfDIa+PAHAFIGcCyARxWpYAahZBeeXYwjH2MUJAn0FhLoW3ALSxztJYHP6JViOQqaq4d8GYyTMgMFvKS5p295celULqAgUuBnCYRQaWAGqiLWmVYyrGd//AOkgoCgAAZGfgJwDKrHM0Bpf9aTfvQvE3SGoytwj80fGe0s9pJnWOKs4HcJx1HoAlgJpA9KeVY3uUWccAQlQAdCpa51rjTQCR+EniK3+qx/sQmQoXU521nZ+ruvLerHWgqOpwX+lh4qRHq+i5UByPEP3O2oklgBrho9ZZp+czv+q2yToIELIfptwMlCpgdktEQ3H4UyOsAvCkik7dUpB/6s2v/meDdaBQm1Sa6rAu018c9wwVfAWKYutIDcESQA2iMqZyfPfQPHU0VAUAALIzMBUe3LPrFy77UzNsBuQ5Va10HGdO+41tX0n8MwYU0vH+83rlHRkOF8NF9CRAItms+dhg2o9ZleMKh1uH2F3oCoDOwKE5YAlCeEEgX/mTx3KALIJgrsKtzGp6RuzvKvjrN1u2y28uduAMguAEACcCONA6lle4EkB12Obk0X/2Lwtftw6yu9AVAADITsctEPzCOsfu+MqfAuACWAxgnkAWQmSRqLxaNaZ8nXWwpuj6h9K2Na1SfR1oP6j0B1AEoB+AAuNovmIJoFr8vHJc4f9Zh9hbKAuATkJBrjMWADjGOgvA4U/mPhDoWyrOG1C8AZG3nHzugxon89GSMeXbTJNNKi3osDFzsGjuUNXUF1XcowVyNICjAByKiD/gq6lYAmg3H7bOOr3CcuHf7kJZAAAgOx1DIHgOxhk5/CnEFMByAB8CslRUlwOohshKQKtVZRXE3eTA3eik0ptqamo+e5Tx4rePXffZmx2VlTkdDnxr1z/wTPYAJ13QNue6bR3JtwGczqro4gBdFdoVIt2g6K7AoQJ0Q0KH/P6wBBAAiMhX5ozt/oR1jtqEtgAA9k8I5J4/xd17G2K9Gm+OFwYmXEie+FeXUDf3lOKHAKotzs3hT0TNlUttwns9/oAtLT62jkLBW51F6hrrEPUJdQGQEVilwI1Bn5fDn4i8kne24P0ed7MEJI3I9S+NPehT6xj1CXUBAICCk/FXAE8GdT4OfyLyGktA0siMyrHdHrJOsT+hLwAAkM7jcgC+3x/N4U9EfmEJSIxNUOcKQEL/5mCRKAAyEktFcZ2f5+DwJyK/5Z0t+KDwHtS0WGodhfwicmPl+IPes47REJEoAACQHoG/QzHZj2Nz+BNRUHhhYKzNqSzodrd1iIaKTAEAgHQBrgKwwstjcvgTUdC4HRBL61wHF6FMXOsgDRWpAiBDUS2KK706Hoc/EVlhCYgXhVz3/C8KP7TO0RiRKgAAkB6BfyvwSHOPw+FPRNZYAuJBBY/NHdf9b9Y5GityBQAAMoqrsf0RqE3C4U9EYcESEHnVOaQ8W5kOUiQLgIzAKhFchu3PQm8UDn8iChveHRBZCjiXhv2BP3WJZAEAgPRwPAHgd435Hg5/Igor3h0QPQq5q3Jct8etczRVZAsAAKQ74EYoXmzI13L4E1HYcTsgUl5za3KBP6reS5EuADIQ2TzwNQDr6vs6Dn8iigqWgEiocVznwhd+e8gW6yDNEekCAAAtR+A9AS6v6/Mc/kQUNSwBIae4bvaEboutYzRX5AsAAKRPRrkA9+39cQ5/IooqXhgYVjqpcnzhvdYpvBCLAgAAKQfXAli08+8c/kQUdbwwMGQUb2dbtKxzxTlqYlMAZBhqXMWFADZz+BNRXHA7IDRqHOh5L5V1Xm8dxCuxKQAA0GIE/rsWLa/71vqSLRz+RBQXLAH2ROSq2eN7LLDO4aVYFQAA6HpyzZ//57b/u3UOIiIvsQTYUcGf54zt/oB1Dq/FrgAAgKzu/F0FKq1zEBF5iRcGmpjvbslfax3CD2IdwC/Fk0d3d/OYB6DQOgtRWL23ocA6AjVBym2Fwz65Cq22HmwdJdYEWCUp59jZP+/2vnUWP8RyBQAAqs55dJmKUwpgm3UWIiIvcTsgEPm84sK4Dn8gxgUAABaW/ut5gdxgnYOIyGssAf5S4AfPjy98xjqHn1LWAfy2rPz1l7uPOfpzgBRZZyEKmzXbYv8rINZUcljXbiHabj4KmXx76zhx8s+54wp/ZB3Cb7FeAdipw8YO31XgJescRERe44WB3hLglXxN/jLrHEFIRAGouOSBmgxSZwH40DoLEZHX+MRAr8jSVN4dHfU3+WmoRBQAAHhlTPlyIHU69vPOgUREUcRrAppti6s4q+KXByfmP2BiCgAALBhT/l9ROQ9AzjoLEZHXWAKazBXgwufHd3/FOkiQElUAAGD+eZOfhuD71jmIiPzAEtB4InLTnHGF/7bOEbREXgK8vPz1l7uX9uwC4DjrLESWeBdAPPHugEa5r3Jc4c3WISwkbgVgpyOQ+h6AJ61zEBH5gSsBDaB4It2i+3esY1iJ7aOAG6J46hmt3S2ZZwGcYJ2FyAIfBRx/fGxwnea1zjolz/yq2ybrIFYSuwIAAFVnTN2cSeuZAN6wzkJE5AeuBNTqvaykvpLk4Q8kvAAAwMujp6zKp3AKgI+ssxAR+YEPC9pDdV7zp7409qBPrYNYS3wBAIBXz3n0Y9eRUYCssc5CROQHPiwIALAeilEvjD/kHesgYcACsMOicycvEVdPB7DZOgsRkR8Svh2wRSBnVo4vrLIOEhYsALuZf/6jL6rohQDy1lmIiPyQ0BKQV+Drc8Z1f846SJiwAOxlYemUxwBcAsC1zkJE5IeElQAF9PK54woftQ4SNiwAtVgw5tGHRPQysAQQUUwl5MJAhcg1leN6/NU6SBjxMWB1WFb+xsLC0mNWAzjdOguRX/gkwGRznSzWtVsQ3ycGqt5cOa7wt9Yxwoo//fVYVv76y4Vjeq4DcJp1FiI/sABQbB8brLitcnyPcdYxwow//fuxrPz1F7uXHqMAhllnIfIaCwABMSwBKmWV4wt/Zh0j7PjT3wDLy19/rlvp0RmBDLXOQuQlFgDaKTYlQPHryvGFt1rHiAL+9DfQ8vI3ZnYvPdoB5CTrLEReYQGg3UW+BIhMqBxX+CPrGFHBn/5GWF7+RkX3c4+ugcgI6yxEXmABoL1FtgSITKgc2/0m6xhRwp/+Rlr+rzfmFo7puQXAKdZZiJqLBYBqE7kSoLitclzhT6xjRA1/+ptgWfnrc7uP6bkRwEjrLETNwQJAdYlICVAIrq8cV3i7dZAo4k9/Ey0vf/2F7ucevQYipwEQ6zxETcECQPUJeQnY/pCfsYV3WgeJKj4JsBkWnDflDhW9CEDWOgsRkR9C+sTAPIBvVI7t/gfrIFHGAtBMC0un/ENUzgGwxToLEZEfQvZWwlsFcn7luMKHrINEHQuAB+afN3kqoKMAXW+dhYjIDyF5A6G1CpwyZ1z3f1mGiAsWAI8sGDPlOTjOyQBWWmchIvKDcQlYBtctmTuucI7FyeOIBcBDC86dPC+dkuMBvG2dhYjID0Yl4F03lRpSOeHgRUGeNO5YADz2yjmT38ukdRCA562zEBH5IcgSIMArAhn0/M8Petf3kyUMC4APXh49ZVW+ps1IhTxunYWIyA9B3B0gwJOtss6wOeO6V/t2kgRjAfDJqxc/tOlIOGdB5E/WWYiI/ODr3QGCe1Mtun/1mV912+T9wQngA2wCUTTpnJsA/QVYuChk3ttQYB2BYiDltsJhn1yFVlsP9uJweQDfrxxXeIcXB6O6sQAEZED52aNV5UEAbayzEO3EAkBe8agEbAScCyrHdeP2aQD4ijQg80unPApXTwTwP+ssRERe8+DCwI8d1aEc/sFhAQjQgvOnLEI+NwjAK9ZZiIi81owS8FJWUgNnj++xwI9cVDsWgIAtuOA/S51W2RIoHrHOQkTktcaWAFX8PV+TH/bS2IM+9Tka7YXXABgaMOmcKxR6F4CMdRZKJl4DQH5pwDUBOajeVjm+x4Qgc9EuLADGiiadfRIgkwAcaJ2FkocFgPxUTwmoVpHz5o7tPssiF23HLQBjC8ZMeS6dzw8EMM86CxGRl+rYDpgPFwM5/O2xAITAKxc89pHTKnsSFA9aZyEi8tLOElDT4tNNAB7K1+QHV04o5N1QIcAtgJApKj/7YqjcDaC1dRaKP24BUEA2p7Jtr1397T/fbx2EdmEBCKH+k87qL3DKARxhnYXijQWAAvC646TOW3PJPxZbB6E9cQsghBaO+fdCB6mBgDxqnYWIqKkEeKhNbtNADv9w4gpAyHFLgPzEFQDyyXoV+fb6Sx9+2DoI1Y0rACG3oHTKg+LqQACLrLMQETXAPKR0AId/+LEARMD886e83mFT+y9B5A4Aap2HiKgWKsAd69rlT1z3zYnvWoeh/eMWQMT0n3jOWSJ6L4Cu1lko+rgFQF5QYClUvrX+soefss5CDccVgIhZeN7kf+fT2luAf1tnISKCSLmDJpRFAAAHxElEQVSmC/py+EcPVwAirH/52aWizj2AdrTOQtHEFQBqhhXi6lVrL5/Iu5UiiisAEbawdEo5UlokAB+pSUSBEeCJbC7dn8M/2rgCEAdlZU5Rr1e/C8VYAG2t41B0cAWAGkfXQuTGdZc+cq91Emo+FoAY6f/wWZ93UnKPQkZaZ6FoYAGgRngqnc5ftuob5Z9YByFvsADE0PZrA+RuAJ2ts1C4sQBQA1QL9AdrvzWRb1YWM7wGIIYWlk4pd1LoA2CydRYiiiwV4CE3J8dw+McTVwBirv+k0V8W4E4Ah1lnofDhCgDVThe7It/ecOkjz1snIf9wBSDmFo559ImWSPUSxU8BbLXOQ0ShtlmAn65r5w7k8I8/rgAkSNGk0mOA/N0AhlpnoXDgCgDtJMDjUOfqtZf980PrLBQMFoAEGjDxnDNU9E4Ah1pnIVssAATgQxG9bu2lEx+zDkLB4hZAAs0/b/JUp1X2mB3bAjXWeYjIxCYBftquXb4nh38ycQUg4fpOHn1wKo+xAC6yzkLB4wpAIrkC/CPr5H+06ZLy5dZhyA4LAAEAiiadPQiQ2wGcaJ2FgsMCkDgzxXFuWHvJPxdaByF7LAC0i0L6/+vsc6EyXoAvWMch/7EAJMZbUL1t3WUTy62DUHjwGgDaRaALS6eUZ5HqKZArAVRbRyKiZlmlkGvX5dr35vCnvXEFgOp01GNntmtdk/oOBLcA0t46D3mPKwBxJRsg+keRluPXXvLAWus0FE4sALRfxf88o4ubKfgBVK8F0Mo6D3mHBSB2NkLwB9Q4E9Z9559rrMNQuLEAUIP1nTz6YCeP/xPgEgAZ6zzUfCwAsbFJgPuzrozddPnDn1qHoWhgAaBGK55U+jlX3Bugejm4IhBpLACRtxXA33JO/ie8pY8aiwWAmqz3P888KJPJXA/VawC0ts5DjccCEFmbFHpf3nEncPBTU7EAULP1/ueZBxWkUzcocCUvFowWFoDIqRbgj/l0wZ0bvvHgKuswFG0sAOSZox47s12rrZlLBXoDgEOs89D+sQBExnuiekfr/Ob7ll45dbN1GIoHFgDyXPE9V2TcTtUXiMoPFehtnYfqxgIQevMF+vu17dx/YEx53joMxQsLAPlHIQPKzz5V4VwL6Kngg6dChwUglFSAJ6Du7WsvmzTbOgzFFwsABaL4kbMOd1Opy6G4AtCO1nloOxaAUFkHYGJe8r/feGn5f63DUPyxAFCgjv/7qPbbMi2/CZGrABxtnSfpWABCQFAF4N422U1/5/4+BYkFgMwMmHRW8f9v7/5eq67jOI4/39/vWUc31yQ3CBoGWi1UZm5klAtERFAqZnEMwikzy39j/0G30ZVM2saOiCV0IQsvcvYDzKTUi2IJuZml2zlOdLbz/by7WIl1IXN69j075/W4OTB28eKw892TL+f7/QaiDw32ossIU6EASM2MQR7no8LBoXNpj5HapACQ1G0+tnvVbCnaD/4BOiuwqBQAi+4nh48z2fjI5N5Pb6Y9RmqbAkAqSsdwd6dbvA/394DmtPdUOwXAopgEjkbYkan3B0+nPUbkXwoAqUjPfbEz++R0/Q6MHse70bMHykIBUDYzBiPu3l9Mmo5z6JPZtAeJ/J8CQCrey8O5p0uW5HDeBV5Df7ePjQLgsQoGX7vRHz8RD+kUv1Q6HUhlSZl7IqG9Y3gOxcAjUwA8Mge+w+xYjA9OHhj6Le1BIvOlg6csWZ1D3WuTKH7b8N3AK+hGQw9NAbAgicE3uOfjunD0xv78eNqDRBZCASBVoXPgzeZQl9nlHuUM3wHoP9s8KADm7Y7Bl26cSDJ1x2/tO/JH2oNEHpUCQKpOe39PQyZ7e1swf8NgF9Ca9qZKpQB4oHGwk+Z8Xp/cOqmb9Ei1UQBIdXOsI9/d4RbtxNkJbAYyac+qFAqA/7gDNor7CB6NFA8OfI/haY8SKRcFgNSU9v6ehjh7+1UituNsB++ghj8HtR4Ahl108xMQRopWf5rewzNpbxJZLDV74BOBuUsMZ0m2GXQZvO6wjhr6MmGNBUAJ+MHgjGOjiZVO3TqQ/zPtUSJpUQCI3Gf9cO6prIctAe8yowvoAJalvatcqjsAbBr41vBRczvrcfarQu/hQtqrRCqFAkDkAbae2pqZurGqLfLQCVEnzhbwTVTJWYIqCoBZ4KLDOYMzcWJnJifaLtHXF9IeJlKpFAAiD6nts7cal89k2onYGGEvuftGYANL8ImGSzQAbhr86HDB3C+aRWcbGktnr+zJ30l7mMhSogAQeQxyw7l4LArPh+AbDGtzC+vN7UWHNio4DCo8AIrAz2C/uIVLEZzH7Hyhd+hy2sNEqoECQKSc+vqi9nUXns14eMGNNbivdWONwVpgDbAizXkVEAAzho25cQF8DBiDMAaZsWLvwK+6DE+kfBQAIinaNJxrCVFojRNaIax27BmMVmA1eAtYC3OPRS7LZ7WMAZA4XDOYcJgwZ9yNq5H5leD8HkeZK6W/wtXpQ4PXyzVARB5MASBS4XLDufgytNwNpWYza7HImwmsBJowVhrW5OYrzaNG8AZgOdgyI6wIWJ1BE9h9X1r0eiAL9wLgLsbcXe6cEjB971eNqX9+nmAUwQq4T4EVwQsOc69GMeNRgSgqxiG5cb0xucaefLIY74+ILMzfDG+tqQy5mw8AAAAASUVORK5CYII=;" parent="1" vertex="1">
          <mxGeometry x="750.25" y="695.63" width="23.75" height="23.75" as="geometry" />
        </mxCell>
        <mxCell id="aj0srUwWaOgaoKYd7bmc-12" value="&lt;font style=&quot;font-size: 13px;&quot;&gt;Login with Google&lt;/font&gt;" style="text;html=1;strokeColor=none;fillColor=none;align=center;verticalAlign=middle;whiteSpace=wrap;rounded=0;" parent="1" vertex="1">
          <mxGeometry x="791.5" y="690" width="110" height="37.5" as="geometry" />
        </mxCell>
        <mxCell id="aj0srUwWaOgaoKYd7bmc-14" value="&lt;font style=&quot;font-size: 15px;&quot;&gt;@&lt;/font&gt;" style="text;html=1;strokeColor=none;fillColor=none;align=center;verticalAlign=middle;whiteSpace=wrap;rounded=0;" parent="1" vertex="1">
          <mxGeometry x="900" y="470" width="40" height="40" as="geometry" />
        </mxCell>
        <mxCell id="aj0srUwWaOgaoKYd7bmc-15" value="Create new account? &lt;font size=&quot;1&quot; style=&quot;&quot; color=&quot;#273990&quot;&gt;&lt;u style=&quot;font-size: 16px;&quot;&gt;Register&lt;/u&gt;&lt;/font&gt;" style="text;html=1;strokeColor=none;fillColor=none;align=left;verticalAlign=middle;whiteSpace=wrap;rounded=0;" parent="1" vertex="1">
          <mxGeometry x="720" y="840" width="260" height="30" as="geometry" />
        </mxCell>
      </root>
    </mxGraphModel>
  </diagram>
  <diagram id="6UboQayrQj7qccDqbzaP" name="franchise">
    <mxGraphModel dx="1426" dy="793" grid="1" gridSize="10" guides="1" tooltips="1" connect="1" arrows="1" fold="1" page="1" pageScale="1" pageWidth="1200" pageHeight="1920" math="0" shadow="0">
      <root>
        <mxCell id="0" />
        <mxCell id="1" parent="0" />
        <mxCell id="4we7Il0Vu6DUeBgwsApE-1" value="&lt;b&gt;&lt;font style=&quot;font-size: 16px;&quot;&gt;Main Page&lt;/font&gt;&lt;/b&gt;" style="rounded=0;whiteSpace=wrap;html=1;" vertex="1" parent="1">
          <mxGeometry x="600" y="40" width="160" height="40" as="geometry" />
        </mxCell>
        <mxCell id="4we7Il0Vu6DUeBgwsApE-14" style="edgeStyle=orthogonalEdgeStyle;rounded=0;orthogonalLoop=1;jettySize=auto;html=1;entryX=0;entryY=0.5;entryDx=0;entryDy=0;" edge="1" parent="1" source="4we7Il0Vu6DUeBgwsApE-2" target="4we7Il0Vu6DUeBgwsApE-11">
          <mxGeometry relative="1" as="geometry" />
        </mxCell>
        <mxCell id="4we7Il0Vu6DUeBgwsApE-15" style="edgeStyle=orthogonalEdgeStyle;rounded=0;orthogonalLoop=1;jettySize=auto;html=1;entryX=0;entryY=0.5;entryDx=0;entryDy=0;" edge="1" parent="1" source="4we7Il0Vu6DUeBgwsApE-2" target="4we7Il0Vu6DUeBgwsApE-12">
          <mxGeometry relative="1" as="geometry" />
        </mxCell>
        <mxCell id="4we7Il0Vu6DUeBgwsApE-16" style="edgeStyle=orthogonalEdgeStyle;rounded=0;orthogonalLoop=1;jettySize=auto;html=1;entryX=0;entryY=0.75;entryDx=0;entryDy=0;" edge="1" parent="1" source="4we7Il0Vu6DUeBgwsApE-2" target="4we7Il0Vu6DUeBgwsApE-13">
          <mxGeometry relative="1" as="geometry" />
        </mxCell>
        <mxCell id="4we7Il0Vu6DUeBgwsApE-2" value="Home" style="rounded=1;whiteSpace=wrap;html=1;" vertex="1" parent="1">
          <mxGeometry x="360" y="120" width="120" height="40" as="geometry" />
        </mxCell>
        <mxCell id="4we7Il0Vu6DUeBgwsApE-22" style="edgeStyle=orthogonalEdgeStyle;rounded=0;orthogonalLoop=1;jettySize=auto;html=1;entryX=0;entryY=0.75;entryDx=0;entryDy=0;" edge="1" parent="1" source="4we7Il0Vu6DUeBgwsApE-3" target="4we7Il0Vu6DUeBgwsApE-17">
          <mxGeometry relative="1" as="geometry" />
        </mxCell>
        <mxCell id="4we7Il0Vu6DUeBgwsApE-24" style="edgeStyle=orthogonalEdgeStyle;rounded=0;orthogonalLoop=1;jettySize=auto;html=1;" edge="1" parent="1" source="4we7Il0Vu6DUeBgwsApE-3">
          <mxGeometry relative="1" as="geometry">
            <mxPoint x="520" y="430" as="targetPoint" />
          </mxGeometry>
        </mxCell>
        <mxCell id="4we7Il0Vu6DUeBgwsApE-25" style="edgeStyle=orthogonalEdgeStyle;rounded=0;orthogonalLoop=1;jettySize=auto;html=1;entryX=0;entryY=0.75;entryDx=0;entryDy=0;" edge="1" parent="1" source="4we7Il0Vu6DUeBgwsApE-3" target="4we7Il0Vu6DUeBgwsApE-18">
          <mxGeometry relative="1" as="geometry" />
        </mxCell>
        <mxCell id="4we7Il0Vu6DUeBgwsApE-26" style="edgeStyle=orthogonalEdgeStyle;rounded=0;orthogonalLoop=1;jettySize=auto;html=1;" edge="1" parent="1" source="4we7Il0Vu6DUeBgwsApE-3">
          <mxGeometry relative="1" as="geometry">
            <mxPoint x="520" y="360" as="targetPoint" />
          </mxGeometry>
        </mxCell>
        <mxCell id="4we7Il0Vu6DUeBgwsApE-3" value="Product" style="rounded=1;whiteSpace=wrap;html=1;" vertex="1" parent="1">
          <mxGeometry x="520" y="120" width="120" height="40" as="geometry" />
        </mxCell>
        <mxCell id="4we7Il0Vu6DUeBgwsApE-31" style="edgeStyle=orthogonalEdgeStyle;rounded=0;orthogonalLoop=1;jettySize=auto;html=1;entryX=1;entryY=0.5;entryDx=0;entryDy=0;" edge="1" parent="1" source="4we7Il0Vu6DUeBgwsApE-4" target="4we7Il0Vu6DUeBgwsApE-27">
          <mxGeometry relative="1" as="geometry" />
        </mxCell>
        <mxCell id="4we7Il0Vu6DUeBgwsApE-4" value="About" style="rounded=1;whiteSpace=wrap;html=1;" vertex="1" parent="1">
          <mxGeometry x="680" y="120" width="120" height="40" as="geometry" />
        </mxCell>
        <mxCell id="4we7Il0Vu6DUeBgwsApE-5" value="Contact" style="rounded=1;whiteSpace=wrap;html=1;" vertex="1" parent="1">
          <mxGeometry x="840" y="120" width="120" height="40" as="geometry" />
        </mxCell>
        <mxCell id="4we7Il0Vu6DUeBgwsApE-7" style="edgeStyle=orthogonalEdgeStyle;rounded=0;orthogonalLoop=1;jettySize=auto;html=1;entryX=0.4;entryY=0.025;entryDx=0;entryDy=0;entryPerimeter=0;" edge="1" parent="1" source="4we7Il0Vu6DUeBgwsApE-1" target="4we7Il0Vu6DUeBgwsApE-2">
          <mxGeometry relative="1" as="geometry" />
        </mxCell>
        <mxCell id="4we7Il0Vu6DUeBgwsApE-8" style="edgeStyle=orthogonalEdgeStyle;rounded=0;orthogonalLoop=1;jettySize=auto;html=1;entryX=0.375;entryY=0;entryDx=0;entryDy=0;entryPerimeter=0;" edge="1" parent="1" source="4we7Il0Vu6DUeBgwsApE-1" target="4we7Il0Vu6DUeBgwsApE-3">
          <mxGeometry relative="1" as="geometry" />
        </mxCell>
        <mxCell id="4we7Il0Vu6DUeBgwsApE-9" style="edgeStyle=orthogonalEdgeStyle;rounded=0;orthogonalLoop=1;jettySize=auto;html=1;entryX=0.558;entryY=-0.1;entryDx=0;entryDy=0;entryPerimeter=0;" edge="1" parent="1" source="4we7Il0Vu6DUeBgwsApE-1" target="4we7Il0Vu6DUeBgwsApE-5">
          <mxGeometry relative="1" as="geometry" />
        </mxCell>
        <mxCell id="4we7Il0Vu6DUeBgwsApE-10" style="edgeStyle=orthogonalEdgeStyle;rounded=0;orthogonalLoop=1;jettySize=auto;html=1;entryX=0.567;entryY=0;entryDx=0;entryDy=0;entryPerimeter=0;" edge="1" parent="1" source="4we7Il0Vu6DUeBgwsApE-1" target="4we7Il0Vu6DUeBgwsApE-4">
          <mxGeometry relative="1" as="geometry" />
        </mxCell>
        <mxCell id="4we7Il0Vu6DUeBgwsApE-11" value="Slide Show" style="rounded=1;whiteSpace=wrap;html=1;" vertex="1" parent="1">
          <mxGeometry x="160" y="200" width="200" height="40" as="geometry" />
        </mxCell>
        <mxCell id="4we7Il0Vu6DUeBgwsApE-12" value="List Of Product" style="rounded=1;whiteSpace=wrap;html=1;" vertex="1" parent="1">
          <mxGeometry x="160" y="250" width="200" height="40" as="geometry" />
        </mxCell>
        <mxCell id="4we7Il0Vu6DUeBgwsApE-13" value="Footer" style="rounded=1;whiteSpace=wrap;html=1;" vertex="1" parent="1">
          <mxGeometry x="160" y="300" width="200" height="40" as="geometry" />
        </mxCell>
        <mxCell id="4we7Il0Vu6DUeBgwsApE-17" value="Cake" style="rounded=1;whiteSpace=wrap;html=1;" vertex="1" parent="1">
          <mxGeometry x="520" y="190" width="120" height="50" as="geometry" />
        </mxCell>
        <mxCell id="4we7Il0Vu6DUeBgwsApE-18" value="Wedding" style="rounded=1;whiteSpace=wrap;html=1;" vertex="1" parent="1">
          <mxGeometry x="520" y="260" width="120" height="50" as="geometry" />
        </mxCell>
        <mxCell id="4we7Il0Vu6DUeBgwsApE-19" value="Treats" style="rounded=1;whiteSpace=wrap;html=1;" vertex="1" parent="1">
          <mxGeometry x="520" y="330" width="120" height="50" as="geometry" />
        </mxCell>
        <mxCell id="4we7Il0Vu6DUeBgwsApE-20" value="CupeCake" style="rounded=1;whiteSpace=wrap;html=1;" vertex="1" parent="1">
          <mxGeometry x="520" y="400" width="120" height="50" as="geometry" />
        </mxCell>
        <mxCell id="4we7Il0Vu6DUeBgwsApE-21" value="&lt;div style=&quot;font-family: Consolas, &amp;quot;Courier New&amp;quot;, monospace; font-size: 14px; line-height: 19px;&quot;&gt;&lt;span style=&quot;background-color: rgb(255, 255, 255);&quot;&gt;Accessories&lt;/span&gt;&lt;/div&gt;" style="rounded=1;whiteSpace=wrap;html=1;" vertex="1" parent="1">
          <mxGeometry x="520" y="470" width="120" height="50" as="geometry" />
        </mxCell>
        <mxCell id="4we7Il0Vu6DUeBgwsApE-23" style="edgeStyle=orthogonalEdgeStyle;rounded=0;orthogonalLoop=1;jettySize=auto;html=1;entryX=0;entryY=0.5;entryDx=0;entryDy=0;" edge="1" parent="1" target="4we7Il0Vu6DUeBgwsApE-21">
          <mxGeometry relative="1" as="geometry">
            <mxPoint x="533" y="149" as="sourcePoint" />
            <mxPoint x="470" y="491" as="targetPoint" />
          </mxGeometry>
        </mxCell>
        <mxCell id="4we7Il0Vu6DUeBgwsApE-27" value="About the Website" style="rounded=1;whiteSpace=wrap;html=1;" vertex="1" parent="1">
          <mxGeometry x="680" y="190" width="120" height="60" as="geometry" />
        </mxCell>
        <mxCell id="4we7Il0Vu6DUeBgwsApE-28" value="Contact Information" style="rounded=1;whiteSpace=wrap;html=1;" vertex="1" parent="1">
          <mxGeometry x="840" y="190" width="120" height="60" as="geometry" />
        </mxCell>
        <mxCell id="4we7Il0Vu6DUeBgwsApE-30" style="edgeStyle=orthogonalEdgeStyle;rounded=0;orthogonalLoop=1;jettySize=auto;html=1;entryX=0.992;entryY=0.633;entryDx=0;entryDy=0;entryPerimeter=0;" edge="1" parent="1" source="4we7Il0Vu6DUeBgwsApE-5" target="4we7Il0Vu6DUeBgwsApE-28">
          <mxGeometry relative="1" as="geometry" />
        </mxCell>
      </root>
    </mxGraphModel>
  </diagram>
  <diagram id="x-3YTo7O5x37IDggjUeG" name="Page-7">
    <mxGraphModel dx="2504" dy="1410" grid="1" gridSize="10" guides="1" tooltips="1" connect="1" arrows="1" fold="1" page="1" pageScale="1" pageWidth="1200" pageHeight="1920" math="0" shadow="0">
      <root>
        <mxCell id="0" />
        <mxCell id="1" parent="0" />
        <mxCell id="85AuDy9JD0C3FrGx6muK-2" style="edgeStyle=orthogonalEdgeStyle;rounded=0;orthogonalLoop=1;jettySize=auto;html=1;entryX=0;entryY=0.5;entryDx=0;entryDy=0;" edge="1" parent="1" source="pkAZKquTFPmJFKTdVSOB-1" target="85AuDy9JD0C3FrGx6muK-1">
          <mxGeometry relative="1" as="geometry" />
        </mxCell>
        <mxCell id="pkAZKquTFPmJFKTdVSOB-1" value="Admin" style="shape=umlActor;html=1;verticalLabelPosition=bottom;verticalAlign=top;align=center;" vertex="1" parent="1">
          <mxGeometry x="30" y="850" width="60" height="120" as="geometry" />
        </mxCell>
        <mxCell id="pkAZKquTFPmJFKTdVSOB-16" value="" style="edgeStyle=orthogonalEdgeStyle;rounded=0;orthogonalLoop=1;jettySize=auto;html=1;" edge="1" parent="1" source="pkAZKquTFPmJFKTdVSOB-2" target="pkAZKquTFPmJFKTdVSOB-15">
          <mxGeometry relative="1" as="geometry" />
        </mxCell>
        <mxCell id="pkAZKquTFPmJFKTdVSOB-2" value="&lt;font style=&quot;font-size: 16px;&quot;&gt;Home Page&lt;/font&gt;" style="ellipse;whiteSpace=wrap;html=1;" vertex="1" parent="1">
          <mxGeometry x="243.13" y="73.82" width="70" height="70" as="geometry" />
        </mxCell>
        <mxCell id="pkAZKquTFPmJFKTdVSOB-17" value="" style="edgeStyle=orthogonalEdgeStyle;rounded=0;orthogonalLoop=1;jettySize=auto;html=1;" edge="1" parent="1" source="pkAZKquTFPmJFKTdVSOB-4" target="pkAZKquTFPmJFKTdVSOB-10">
          <mxGeometry relative="1" as="geometry" />
        </mxCell>
        <mxCell id="pkAZKquTFPmJFKTdVSOB-4" value="&lt;font style=&quot;font-size: 16px;&quot;&gt;Product Page&lt;/font&gt;" style="ellipse;whiteSpace=wrap;html=1;" vertex="1" parent="1">
          <mxGeometry x="245" y="148.82" width="75" height="60" as="geometry" />
        </mxCell>
        <mxCell id="pkAZKquTFPmJFKTdVSOB-6" value="&lt;font style=&quot;font-size: 16px;&quot;&gt;About Us Page&lt;/font&gt;" style="ellipse;whiteSpace=wrap;html=1;" vertex="1" parent="1">
          <mxGeometry x="245" y="230" width="75" height="60" as="geometry" />
        </mxCell>
        <mxCell id="pkAZKquTFPmJFKTdVSOB-7" value="&lt;font style=&quot;font-size: 16px;&quot;&gt;Login&amp;nbsp;&lt;br&gt;Register&lt;br&gt;&lt;/font&gt;" style="ellipse;whiteSpace=wrap;html=1;" vertex="1" parent="1">
          <mxGeometry x="245" y="310" width="65" height="60" as="geometry" />
        </mxCell>
        <mxCell id="pkAZKquTFPmJFKTdVSOB-8" value="&lt;font style=&quot;font-size: 16px;&quot;&gt;Contact UsPage&lt;/font&gt;" style="ellipse;whiteSpace=wrap;html=1;" vertex="1" parent="1">
          <mxGeometry x="237.5" y="390" width="72.5" height="70" as="geometry" />
        </mxCell>
        <mxCell id="pkAZKquTFPmJFKTdVSOB-18" value="" style="edgeStyle=orthogonalEdgeStyle;rounded=0;orthogonalLoop=1;jettySize=auto;html=1;" edge="1" parent="1" source="pkAZKquTFPmJFKTdVSOB-10" target="pkAZKquTFPmJFKTdVSOB-14">
          <mxGeometry relative="1" as="geometry" />
        </mxCell>
        <mxCell id="pkAZKquTFPmJFKTdVSOB-10" value="&lt;font style=&quot;font-size: 16px;&quot;&gt;View Single Product&lt;/font&gt;" style="ellipse;whiteSpace=wrap;html=1;" vertex="1" parent="1">
          <mxGeometry x="410" y="143.82" width="70" height="70" as="geometry" />
        </mxCell>
        <mxCell id="pkAZKquTFPmJFKTdVSOB-59" value="" style="edgeStyle=orthogonalEdgeStyle;rounded=0;orthogonalLoop=1;jettySize=auto;html=1;" edge="1" parent="1" source="pkAZKquTFPmJFKTdVSOB-11" target="pkAZKquTFPmJFKTdVSOB-12">
          <mxGeometry relative="1" as="geometry" />
        </mxCell>
        <mxCell id="pkAZKquTFPmJFKTdVSOB-11" value="&lt;font style=&quot;font-size: 16px;&quot;&gt;Cart&lt;/font&gt;" style="ellipse;whiteSpace=wrap;html=1;" vertex="1" parent="1">
          <mxGeometry x="241.88" y="480" width="71.25" height="70" as="geometry" />
        </mxCell>
        <mxCell id="pkAZKquTFPmJFKTdVSOB-60" value="" style="edgeStyle=orthogonalEdgeStyle;rounded=0;orthogonalLoop=1;jettySize=auto;html=1;" edge="1" parent="1" source="pkAZKquTFPmJFKTdVSOB-12" target="pkAZKquTFPmJFKTdVSOB-13">
          <mxGeometry relative="1" as="geometry" />
        </mxCell>
        <mxCell id="pkAZKquTFPmJFKTdVSOB-12" value="&lt;font style=&quot;font-size: 16px;&quot;&gt;Shopping cart&lt;/font&gt;" style="ellipse;whiteSpace=wrap;html=1;" vertex="1" parent="1">
          <mxGeometry x="360" y="485" width="70" height="70" as="geometry" />
        </mxCell>
        <mxCell id="pkAZKquTFPmJFKTdVSOB-13" value="&lt;font style=&quot;font-size: 16px;&quot;&gt;Delivery Form&lt;/font&gt;" style="ellipse;whiteSpace=wrap;html=1;" vertex="1" parent="1">
          <mxGeometry x="478.75" y="485" width="80" height="80" as="geometry" />
        </mxCell>
        <mxCell id="pkAZKquTFPmJFKTdVSOB-14" value="&lt;font style=&quot;font-size: 13px;&quot;&gt;View Product By Category&lt;/font&gt;" style="ellipse;whiteSpace=wrap;html=1;" vertex="1" parent="1">
          <mxGeometry x="550" y="143.82" width="70" height="70" as="geometry" />
        </mxCell>
        <mxCell id="pkAZKquTFPmJFKTdVSOB-15" value="&lt;font style=&quot;font-size: 16px;&quot;&gt;View Single Product&lt;/font&gt;" style="ellipse;whiteSpace=wrap;html=1;" vertex="1" parent="1">
          <mxGeometry x="405" y="48.82" width="80" height="80" as="geometry" />
        </mxCell>
        <mxCell id="pkAZKquTFPmJFKTdVSOB-26" style="edgeStyle=orthogonalEdgeStyle;rounded=0;orthogonalLoop=1;jettySize=auto;html=1;entryX=0;entryY=0.5;entryDx=0;entryDy=0;" edge="1" parent="1" target="pkAZKquTFPmJFKTdVSOB-33">
          <mxGeometry relative="1" as="geometry">
            <mxPoint x="110" y="920" as="sourcePoint" />
          </mxGeometry>
        </mxCell>
        <mxCell id="pkAZKquTFPmJFKTdVSOB-27" style="edgeStyle=orthogonalEdgeStyle;rounded=0;orthogonalLoop=1;jettySize=auto;html=1;entryX=0;entryY=0.5;entryDx=0;entryDy=0;" edge="1" parent="1" target="pkAZKquTFPmJFKTdVSOB-34">
          <mxGeometry relative="1" as="geometry">
            <mxPoint x="110" y="920" as="sourcePoint" />
          </mxGeometry>
        </mxCell>
        <mxCell id="pkAZKquTFPmJFKTdVSOB-28" style="edgeStyle=orthogonalEdgeStyle;rounded=0;orthogonalLoop=1;jettySize=auto;html=1;entryX=0;entryY=0.5;entryDx=0;entryDy=0;" edge="1" parent="1" target="pkAZKquTFPmJFKTdVSOB-35">
          <mxGeometry relative="1" as="geometry">
            <mxPoint x="110" y="920" as="sourcePoint" />
          </mxGeometry>
        </mxCell>
        <mxCell id="pkAZKquTFPmJFKTdVSOB-29" value="" style="edgeStyle=orthogonalEdgeStyle;rounded=0;orthogonalLoop=1;jettySize=auto;html=1;" edge="1" parent="1" source="pkAZKquTFPmJFKTdVSOB-30" target="pkAZKquTFPmJFKTdVSOB-45">
          <mxGeometry relative="1" as="geometry" />
        </mxCell>
        <mxCell id="pkAZKquTFPmJFKTdVSOB-30" value="&lt;font style=&quot;font-size: 16px;&quot;&gt;Home Page&lt;/font&gt;" style="ellipse;whiteSpace=wrap;html=1;" vertex="1" parent="1">
          <mxGeometry x="500" y="720" width="60" height="70" as="geometry" />
        </mxCell>
        <mxCell id="pkAZKquTFPmJFKTdVSOB-31" style="edgeStyle=orthogonalEdgeStyle;rounded=0;orthogonalLoop=1;jettySize=auto;html=1;entryX=0.011;entryY=0.434;entryDx=0;entryDy=0;entryPerimeter=0;" edge="1" parent="1" target="pkAZKquTFPmJFKTdVSOB-30">
          <mxGeometry relative="1" as="geometry">
            <mxPoint x="80" y="980" as="sourcePoint" />
            <Array as="points">
              <mxPoint x="300" y="1050" />
              <mxPoint x="300" y="743" />
            </Array>
          </mxGeometry>
        </mxCell>
        <mxCell id="pkAZKquTFPmJFKTdVSOB-32" value="" style="edgeStyle=orthogonalEdgeStyle;rounded=0;orthogonalLoop=1;jettySize=auto;html=1;" edge="1" parent="1" source="pkAZKquTFPmJFKTdVSOB-33" target="pkAZKquTFPmJFKTdVSOB-38">
          <mxGeometry relative="1" as="geometry" />
        </mxCell>
        <mxCell id="pkAZKquTFPmJFKTdVSOB-33" value="&lt;font style=&quot;font-size: 16px;&quot;&gt;Product Page&lt;/font&gt;" style="ellipse;whiteSpace=wrap;html=1;" vertex="1" parent="1">
          <mxGeometry x="495" y="820" width="75" height="60" as="geometry" />
        </mxCell>
        <mxCell id="pkAZKquTFPmJFKTdVSOB-34" value="&lt;font style=&quot;font-size: 16px;&quot;&gt;About Us Page&lt;/font&gt;" style="ellipse;whiteSpace=wrap;html=1;" vertex="1" parent="1">
          <mxGeometry x="495" y="900" width="75" height="60" as="geometry" />
        </mxCell>
        <mxCell id="pkAZKquTFPmJFKTdVSOB-35" value="&lt;font style=&quot;font-size: 16px;&quot;&gt;Login&amp;nbsp;&lt;br&gt;Register&lt;br&gt;&lt;/font&gt;" style="ellipse;whiteSpace=wrap;html=1;" vertex="1" parent="1">
          <mxGeometry x="495" y="980" width="65" height="60" as="geometry" />
        </mxCell>
        <mxCell id="pkAZKquTFPmJFKTdVSOB-36" value="&lt;font style=&quot;font-size: 16px;&quot;&gt;Contact UsPage&lt;/font&gt;" style="ellipse;whiteSpace=wrap;html=1;" vertex="1" parent="1">
          <mxGeometry x="487.5" y="1060" width="72.5" height="70" as="geometry" />
        </mxCell>
        <mxCell id="pkAZKquTFPmJFKTdVSOB-37" value="" style="edgeStyle=orthogonalEdgeStyle;rounded=0;orthogonalLoop=1;jettySize=auto;html=1;" edge="1" parent="1" source="pkAZKquTFPmJFKTdVSOB-38" target="pkAZKquTFPmJFKTdVSOB-44">
          <mxGeometry relative="1" as="geometry" />
        </mxCell>
        <mxCell id="pkAZKquTFPmJFKTdVSOB-38" value="&lt;font style=&quot;font-size: 16px;&quot;&gt;View Single Product&lt;/font&gt;" style="ellipse;whiteSpace=wrap;html=1;" vertex="1" parent="1">
          <mxGeometry x="630" y="820" width="70" height="70" as="geometry" />
        </mxCell>
        <mxCell id="pkAZKquTFPmJFKTdVSOB-39" value="" style="edgeStyle=orthogonalEdgeStyle;rounded=0;orthogonalLoop=1;jettySize=auto;html=1;" edge="1" parent="1" source="pkAZKquTFPmJFKTdVSOB-40" target="pkAZKquTFPmJFKTdVSOB-42">
          <mxGeometry relative="1" as="geometry" />
        </mxCell>
        <mxCell id="pkAZKquTFPmJFKTdVSOB-40" value="&lt;font style=&quot;font-size: 16px;&quot;&gt;Cart&lt;/font&gt;" style="ellipse;whiteSpace=wrap;html=1;" vertex="1" parent="1">
          <mxGeometry x="478.75" y="1150" width="71.25" height="70" as="geometry" />
        </mxCell>
        <mxCell id="pkAZKquTFPmJFKTdVSOB-41" value="" style="edgeStyle=orthogonalEdgeStyle;rounded=0;orthogonalLoop=1;jettySize=auto;html=1;" edge="1" parent="1" source="pkAZKquTFPmJFKTdVSOB-42" target="pkAZKquTFPmJFKTdVSOB-43">
          <mxGeometry relative="1" as="geometry" />
        </mxCell>
        <mxCell id="pkAZKquTFPmJFKTdVSOB-42" value="&lt;font style=&quot;font-size: 16px;&quot;&gt;Shopping cart&lt;/font&gt;" style="ellipse;whiteSpace=wrap;html=1;" vertex="1" parent="1">
          <mxGeometry x="620" y="1150" width="70" height="70" as="geometry" />
        </mxCell>
        <mxCell id="pkAZKquTFPmJFKTdVSOB-43" value="&lt;font style=&quot;font-size: 16px;&quot;&gt;Delivery Form&lt;/font&gt;" style="ellipse;whiteSpace=wrap;html=1;" vertex="1" parent="1">
          <mxGeometry x="730" y="1140" width="80" height="80" as="geometry" />
        </mxCell>
        <mxCell id="pkAZKquTFPmJFKTdVSOB-44" value="&lt;font style=&quot;font-size: 16px;&quot;&gt;View Product By Category&lt;/font&gt;" style="ellipse;whiteSpace=wrap;html=1;" vertex="1" parent="1">
          <mxGeometry x="760" y="820" width="90" height="70" as="geometry" />
        </mxCell>
        <mxCell id="pkAZKquTFPmJFKTdVSOB-45" value="&lt;font style=&quot;font-size: 16px;&quot;&gt;View Single Product&lt;/font&gt;" style="ellipse;whiteSpace=wrap;html=1;" vertex="1" parent="1">
          <mxGeometry x="640" y="730" width="90" height="80" as="geometry" />
        </mxCell>
        <mxCell id="pkAZKquTFPmJFKTdVSOB-46" style="edgeStyle=orthogonalEdgeStyle;rounded=0;orthogonalLoop=1;jettySize=auto;html=1;entryX=0.029;entryY=0.589;entryDx=0;entryDy=0;entryPerimeter=0;" edge="1" parent="1" target="pkAZKquTFPmJFKTdVSOB-36">
          <mxGeometry relative="1" as="geometry">
            <mxPoint x="80" y="980" as="sourcePoint" />
            <Array as="points">
              <mxPoint x="498" y="1110" />
            </Array>
          </mxGeometry>
        </mxCell>
        <mxCell id="pkAZKquTFPmJFKTdVSOB-47" style="edgeStyle=orthogonalEdgeStyle;rounded=0;orthogonalLoop=1;jettySize=auto;html=1;entryX=0;entryY=0.667;entryDx=0;entryDy=0;entryPerimeter=0;" edge="1" parent="1" target="pkAZKquTFPmJFKTdVSOB-40">
          <mxGeometry relative="1" as="geometry">
            <mxPoint x="110" y="920" as="sourcePoint" />
          </mxGeometry>
        </mxCell>
        <mxCell id="pkAZKquTFPmJFKTdVSOB-53" style="edgeStyle=orthogonalEdgeStyle;rounded=0;orthogonalLoop=1;jettySize=auto;html=1;entryX=0;entryY=0;entryDx=0;entryDy=0;" edge="1" parent="1" source="pkAZKquTFPmJFKTdVSOB-48" target="pkAZKquTFPmJFKTdVSOB-2">
          <mxGeometry relative="1" as="geometry">
            <Array as="points">
              <mxPoint x="200" y="230" />
              <mxPoint x="200" y="64" />
            </Array>
          </mxGeometry>
        </mxCell>
        <mxCell id="pkAZKquTFPmJFKTdVSOB-54" style="edgeStyle=orthogonalEdgeStyle;rounded=0;orthogonalLoop=1;jettySize=auto;html=1;" edge="1" parent="1" source="pkAZKquTFPmJFKTdVSOB-48" target="pkAZKquTFPmJFKTdVSOB-4">
          <mxGeometry relative="1" as="geometry" />
        </mxCell>
        <mxCell id="pkAZKquTFPmJFKTdVSOB-55" style="edgeStyle=orthogonalEdgeStyle;rounded=0;orthogonalLoop=1;jettySize=auto;html=1;entryX=0;entryY=0.5;entryDx=0;entryDy=0;" edge="1" parent="1" source="pkAZKquTFPmJFKTdVSOB-48" target="pkAZKquTFPmJFKTdVSOB-6">
          <mxGeometry relative="1" as="geometry" />
        </mxCell>
        <mxCell id="pkAZKquTFPmJFKTdVSOB-56" style="edgeStyle=orthogonalEdgeStyle;rounded=0;orthogonalLoop=1;jettySize=auto;html=1;entryX=0;entryY=0.5;entryDx=0;entryDy=0;" edge="1" parent="1" source="pkAZKquTFPmJFKTdVSOB-48" target="pkAZKquTFPmJFKTdVSOB-7">
          <mxGeometry relative="1" as="geometry" />
        </mxCell>
        <mxCell id="pkAZKquTFPmJFKTdVSOB-57" style="edgeStyle=orthogonalEdgeStyle;rounded=0;orthogonalLoop=1;jettySize=auto;html=1;entryX=0;entryY=0.5;entryDx=0;entryDy=0;" edge="1" parent="1" source="pkAZKquTFPmJFKTdVSOB-48" target="pkAZKquTFPmJFKTdVSOB-8">
          <mxGeometry relative="1" as="geometry" />
        </mxCell>
        <mxCell id="pkAZKquTFPmJFKTdVSOB-48" value="Customer" style="shape=umlActor;html=1;verticalLabelPosition=bottom;verticalAlign=top;align=center;" vertex="1" parent="1">
          <mxGeometry x="40" y="170" width="60" height="120" as="geometry" />
        </mxCell>
        <mxCell id="pkAZKquTFPmJFKTdVSOB-58" style="edgeStyle=orthogonalEdgeStyle;rounded=0;orthogonalLoop=1;jettySize=auto;html=1;entryX=0.036;entryY=0.654;entryDx=0;entryDy=0;entryPerimeter=0;" edge="1" parent="1" source="pkAZKquTFPmJFKTdVSOB-48" target="pkAZKquTFPmJFKTdVSOB-11">
          <mxGeometry relative="1" as="geometry">
            <Array as="points">
              <mxPoint x="170" y="230" />
              <mxPoint x="170" y="526" />
            </Array>
          </mxGeometry>
        </mxCell>
        <mxCell id="85AuDy9JD0C3FrGx6muK-1" value="Admin&amp;nbsp;&lt;br&gt;Dashboard" style="ellipse;whiteSpace=wrap;html=1;" vertex="1" parent="1">
          <mxGeometry x="495" y="640" width="75" height="70" as="geometry" />
        </mxCell>
      </root>
    </mxGraphModel>
  </diagram>
</mxfile>
